; NON-PLATED HOLES START AT T1
; THROUGH (PLATED) HOLES START AT T100
M48
INCH
T1C0.125984
T100C0.038000
T101C0.040000
T102C0.027559
%
T1
X001388Y001277
X027388Y026277
X001388Y026277
X027388Y001277
T100
X026388Y005277
X010388Y007273
X003388Y014277
X020388Y016281
X020388Y020282
X020388Y007281
X010388Y011278
X002388Y014277
X026388Y014277
X001388Y017277
X010388Y013278
X020388Y019282
X020388Y018282
X010388Y022277
X010388Y017278
X001388Y016277
X025388Y015277
X010388Y025284
X020388Y011280
X010388Y016278
X020388Y023281
X020388Y013280
X026388Y008277
X026388Y009277
X010388Y020277
X020388Y006281
X020388Y021281
X004388Y014277
X003388Y017277
X010388Y014278
X001388Y014277
X002388Y017277
X020388Y024281
X027388Y014277
X002388Y016277
X010388Y009278
X010388Y008278
X020388Y014281
X010388Y019277
X001388Y009277
X001388Y008277
X003388Y016277
X010388Y021277
X010388Y015278
X020388Y010280
X010388Y012278
X026388Y003277
X010388Y023277
X020388Y022281
X020388Y009280
X020388Y008281
X020388Y015281
X001388Y010277
X001388Y018277
X010388Y006274
X010388Y010278
X027388Y015277
X020388Y012280
X010388Y018278
X020388Y025281
X020388Y017282
X026388Y015277
X026388Y004277
X010388Y024277
X003388Y018277
X002388Y018277
X025388Y014277
X026388Y010277
T101
X003388Y023277
X003388Y021277
T102
X006388Y021277
X006388Y022277
T00
M30
