G04 MADE WITH FRITZING*
G04 WWW.FRITZING.ORG*
G04 DOUBLE SIDED*
G04 HOLES PLATED*
G04 CONTOUR ON CENTER OF CONTOUR VECTOR*
%FSLAX26Y26*%
%MOIN*%
%ADD10C,0.065000*%
%ADD11C,0.078000*%
%ADD12C,0.080000*%
%ADD13R,0.079986X0.080000*%
%ADD14R,0.078000X0.078000*%
%ADD15C,0.024000*%
%ADD16R,0.001000X0.001000*%
G04 COPPER1*
%FSLAX26Y26*%
%MOIN*%
D10*
X638870Y2127792D03*
X638870Y2227792D03*
X638870Y2127792D03*
X638870Y2227792D03*
D11*
X2038870Y628200D03*
X2038870Y728200D03*
X2038870Y828200D03*
X2038870Y928080D03*
X2038870Y1028080D03*
X2038870Y1128080D03*
X2038870Y1228080D03*
X2038870Y1328080D03*
X2038870Y1428200D03*
X2038870Y1528200D03*
X2038870Y1628200D03*
X2038870Y1728200D03*
X2038870Y1828200D03*
X2038870Y1928200D03*
X2038870Y2028200D03*
X2038870Y2128140D03*
X2038870Y2228150D03*
X2038870Y2328150D03*
X2038870Y2428140D03*
X2038870Y2528140D03*
X1038870Y2528410D03*
X1038870Y2427800D03*
X1038870Y2327800D03*
X1038870Y2227800D03*
X1038870Y2127800D03*
X1038870Y2027800D03*
X1038870Y1927800D03*
X1038870Y1827850D03*
X1038870Y1727850D03*
X1038870Y1627850D03*
X1038870Y1527850D03*
X1038870Y1427850D03*
X1038870Y1327850D03*
X1038870Y1227850D03*
X1038870Y1127850D03*
X1038870Y1027850D03*
X1038870Y927850D03*
X1038870Y827850D03*
X1038870Y727320D03*
X1038870Y627410D03*
D12*
X338872Y2127791D03*
X338872Y2327791D03*
D11*
X138872Y1027790D03*
X138872Y927790D03*
X138872Y827790D03*
X138872Y1627790D03*
X238872Y1627790D03*
X338872Y1627790D03*
X138872Y1727790D03*
X238872Y1727790D03*
X338872Y1727790D03*
X138872Y1827791D03*
X238872Y1827791D03*
X338872Y1827791D03*
X2538870Y1527790D03*
X2638870Y1527790D03*
X2738870Y1527790D03*
X2538870Y1427790D03*
X2638870Y1427790D03*
X2738870Y1427790D03*
X2638870Y527790D03*
X2638870Y427790D03*
X2638870Y327790D03*
X438872Y1427790D03*
X338872Y1427790D03*
X238872Y1427790D03*
X138872Y1427790D03*
X2638870Y1027790D03*
X2638870Y927790D03*
X2638870Y827790D03*
D13*
X338879Y2127791D03*
D14*
X138872Y1027790D03*
X138872Y1627790D03*
X138872Y1727790D03*
X138872Y1827791D03*
X2538870Y1527790D03*
X2538870Y1427790D03*
X2638870Y527790D03*
X438872Y1427790D03*
X2638870Y1027790D03*
D15*
X638117Y1427250D02*
X1019870Y1427820D01*
D02*
X457872Y1427740D02*
X638118Y1427250D01*
D02*
X2238920Y227040D02*
X338450Y227040D01*
D02*
X338450Y927290D02*
X242577Y1409160D01*
D02*
X338450Y227040D02*
X338450Y927290D01*
D02*
X2620450Y323150D02*
X2238920Y227040D01*
D02*
X2238920Y227040D02*
X2628340Y811980D01*
D02*
X338450Y927290D02*
X157869Y927750D01*
D02*
X2521880Y1519290D02*
X2138870Y1327790D01*
D02*
X2138870Y1327790D02*
X2057870Y1328030D01*
D02*
X2521880Y1419290D02*
X2338870Y1327790D01*
D02*
X2338870Y1327790D02*
X2054690Y1138610D01*
D02*
X2738870Y1446790D02*
X2738870Y1508790D01*
D02*
X738872Y2427791D02*
X1020860Y2522366D01*
D02*
X354872Y2139791D02*
X738872Y2427791D01*
D16*
X606500Y2260280D02*
X670500Y2260280D01*
X606500Y2259280D02*
X670500Y2259280D01*
X606500Y2258280D02*
X670500Y2258280D01*
X606500Y2257280D02*
X670500Y2257280D01*
X606500Y2256280D02*
X670500Y2256280D01*
X606500Y2255280D02*
X670500Y2255280D01*
X606500Y2254280D02*
X670500Y2254280D01*
X606500Y2253280D02*
X670500Y2253280D01*
X606500Y2252280D02*
X670500Y2252280D01*
X606500Y2251280D02*
X670500Y2251280D01*
X606500Y2250280D02*
X670500Y2250280D01*
X606500Y2249280D02*
X670500Y2249280D01*
X606500Y2248280D02*
X670500Y2248280D01*
X606500Y2247280D02*
X670500Y2247280D01*
X606500Y2246280D02*
X670500Y2246280D01*
X606500Y2245280D02*
X670500Y2245280D01*
X606500Y2244280D02*
X670500Y2244280D01*
X606500Y2243280D02*
X670500Y2243280D01*
X606500Y2242280D02*
X670500Y2242280D01*
X606500Y2241280D02*
X634500Y2241280D01*
X642500Y2241280D02*
X670500Y2241280D01*
X606500Y2240280D02*
X632500Y2240280D01*
X645500Y2240280D02*
X670500Y2240280D01*
X606500Y2239280D02*
X630500Y2239280D01*
X646500Y2239280D02*
X670500Y2239280D01*
X606500Y2238280D02*
X629500Y2238280D01*
X648500Y2238280D02*
X670500Y2238280D01*
X606500Y2237280D02*
X628500Y2237280D01*
X649500Y2237280D02*
X670500Y2237280D01*
X606500Y2236280D02*
X627500Y2236280D01*
X650500Y2236280D02*
X670500Y2236280D01*
X606500Y2235280D02*
X626500Y2235280D01*
X650500Y2235280D02*
X670500Y2235280D01*
X606500Y2234280D02*
X626500Y2234280D01*
X651500Y2234280D02*
X670500Y2234280D01*
X606500Y2233280D02*
X625500Y2233280D01*
X651500Y2233280D02*
X670500Y2233280D01*
X606500Y2232280D02*
X625500Y2232280D01*
X652500Y2232280D02*
X670500Y2232280D01*
X606500Y2231280D02*
X624500Y2231280D01*
X652500Y2231280D02*
X670500Y2231280D01*
X606500Y2230280D02*
X624500Y2230280D01*
X652500Y2230280D02*
X670500Y2230280D01*
X606500Y2229280D02*
X624500Y2229280D01*
X652500Y2229280D02*
X670500Y2229280D01*
X606500Y2228280D02*
X624500Y2228280D01*
X653500Y2228280D02*
X670500Y2228280D01*
X606500Y2227280D02*
X624500Y2227280D01*
X652500Y2227280D02*
X670500Y2227280D01*
X606500Y2226280D02*
X624500Y2226280D01*
X652500Y2226280D02*
X670500Y2226280D01*
X606500Y2225280D02*
X624500Y2225280D01*
X652500Y2225280D02*
X670500Y2225280D01*
X606500Y2224280D02*
X624500Y2224280D01*
X652500Y2224280D02*
X670500Y2224280D01*
X606500Y2223280D02*
X625500Y2223280D01*
X652500Y2223280D02*
X670500Y2223280D01*
X606500Y2222280D02*
X625500Y2222280D01*
X651500Y2222280D02*
X670500Y2222280D01*
X606500Y2221280D02*
X626500Y2221280D01*
X651500Y2221280D02*
X670500Y2221280D01*
X606500Y2220280D02*
X626500Y2220280D01*
X650500Y2220280D02*
X670500Y2220280D01*
X606500Y2219280D02*
X627500Y2219280D01*
X649500Y2219280D02*
X670500Y2219280D01*
X606500Y2218280D02*
X628500Y2218280D01*
X649500Y2218280D02*
X670500Y2218280D01*
X606500Y2217280D02*
X629500Y2217280D01*
X647500Y2217280D02*
X670500Y2217280D01*
X606500Y2216280D02*
X630500Y2216280D01*
X646500Y2216280D02*
X670500Y2216280D01*
X606500Y2215280D02*
X633500Y2215280D01*
X644500Y2215280D02*
X670500Y2215280D01*
X606500Y2214280D02*
X636500Y2214280D01*
X640500Y2214280D02*
X670500Y2214280D01*
X606500Y2213280D02*
X670500Y2213280D01*
X606500Y2212280D02*
X670500Y2212280D01*
X606500Y2211280D02*
X670500Y2211280D01*
X606500Y2210280D02*
X670500Y2210280D01*
X606500Y2209280D02*
X670500Y2209280D01*
X606500Y2208280D02*
X670500Y2208280D01*
X606500Y2207280D02*
X670500Y2207280D01*
X606500Y2206280D02*
X670500Y2206280D01*
X606500Y2205280D02*
X670500Y2205280D01*
X606500Y2204280D02*
X670500Y2204280D01*
X606500Y2203280D02*
X670500Y2203280D01*
X606500Y2202280D02*
X670500Y2202280D01*
X606500Y2201280D02*
X670500Y2201280D01*
X606500Y2200280D02*
X670500Y2200280D01*
X606500Y2199280D02*
X670500Y2199280D01*
X606500Y2198280D02*
X670500Y2198280D01*
X606500Y2197280D02*
X670500Y2197280D01*
X606500Y2196280D02*
X670500Y2196280D01*
D02*
G04 End of Copper1*
M02*