G04 MADE WITH FRITZING*
G04 WWW.FRITZING.ORG*
G04 DOUBLE SIDED*
G04 HOLES PLATED*
G04 CONTOUR ON CENTER OF CONTOUR VECTOR*
%FSLAX26Y26*%
%MOIN*%
%ADD10C,0.078000*%
%ADD11C,0.080000*%
%ADD12C,0.039370*%
%ADD13R,0.079986X0.080000*%
%ADD14R,0.078000X0.078000*%
%ADD15C,0.024000*%
G04 COPPER0*
%FSLAX26Y26*%
%MOIN*%
D10*
X2105540Y639310D03*
X2105540Y739310D03*
X2105540Y839310D03*
X2105540Y939190D03*
X2105540Y1039190D03*
X2105540Y1139190D03*
X2105540Y1239190D03*
X2105540Y1339190D03*
X2105540Y1439310D03*
X2105540Y1539310D03*
X2105540Y1639310D03*
X2105540Y1739310D03*
X2105540Y1839310D03*
X2105540Y1939310D03*
X2105540Y2039310D03*
X2105540Y2139250D03*
X2105540Y2239260D03*
X2105540Y2339260D03*
X2105540Y2439250D03*
X2105540Y2539250D03*
X1105540Y2539520D03*
X1105540Y2438910D03*
X1105540Y2338910D03*
X1105540Y2238910D03*
X1105540Y2138910D03*
X1105540Y2038910D03*
X1105540Y1938910D03*
X1105540Y1838960D03*
X1105540Y1738960D03*
X1105540Y1638960D03*
X1105540Y1538960D03*
X1105540Y1438960D03*
X1105540Y1338960D03*
X1105540Y1238960D03*
X1105540Y1138960D03*
X1105540Y1038960D03*
X1105540Y938960D03*
X1105540Y838960D03*
X1105540Y738430D03*
X1105540Y638520D03*
D11*
X505539Y2138901D03*
X505539Y2338901D03*
D10*
X2605540Y1538900D03*
X2705540Y1538900D03*
X2805540Y1538900D03*
X2605540Y1438900D03*
X2705540Y1438900D03*
X2805540Y1438900D03*
X305539Y1638900D03*
X305539Y1538900D03*
X305539Y1438900D03*
X2705540Y538900D03*
X2705540Y438900D03*
X2705540Y338900D03*
X2705540Y1038900D03*
X2705540Y938900D03*
X2705540Y838900D03*
X505539Y238900D03*
X505539Y338900D03*
X505539Y438900D03*
X505539Y538900D03*
X505539Y638900D03*
X505539Y738900D03*
X505539Y838900D03*
X505539Y938900D03*
X505539Y1038900D03*
X505539Y1138900D03*
D12*
X1805540Y938900D03*
D13*
X505546Y2138901D03*
D14*
X2605540Y1538900D03*
X2605540Y1438900D03*
X305539Y1638900D03*
X2705540Y538900D03*
X2705540Y1038900D03*
X505539Y238900D03*
D15*
X2405540Y1138900D02*
X2605540Y938900D01*
D02*
X2118960Y1425860D02*
X2405540Y1138900D01*
D02*
X2605540Y938900D02*
X2686540Y938900D01*
D02*
X2205540Y2538901D02*
X2795760Y1555190D01*
D02*
X2124540Y2539185D02*
X2205540Y2538902D01*
D02*
X805539Y2538901D02*
X1005540Y2638901D01*
D02*
X522180Y2349995D02*
X805539Y2538901D01*
D02*
X1505540Y2638901D02*
X2086800Y2542364D01*
D02*
X1005540Y2638901D02*
X1505540Y2638901D01*
D02*
X2505540Y1238900D02*
X2692100Y1052340D01*
D02*
X2120730Y1527890D02*
X2505540Y1238900D01*
D02*
X523971Y243510D02*
X2087110Y634690D01*
D02*
X805539Y1938901D02*
X1087510Y2032893D01*
D02*
X605539Y1538900D02*
X805539Y1938901D01*
D02*
X323564Y1444910D02*
X605539Y1538900D01*
D02*
X518777Y552530D02*
X534667Y568890D01*
D02*
X905539Y1238900D02*
X1074670Y1408890D01*
D02*
X805539Y638900D02*
X905539Y1238900D01*
D02*
X534672Y568890D02*
X805544Y638900D01*
D02*
X1074670Y1408890D02*
X1091930Y1425700D01*
D02*
X309919Y1657390D02*
X438667Y2200890D01*
D02*
X438672Y2200890D02*
X486672Y2296890D01*
D02*
X486672Y2296889D02*
X497349Y2320657D01*
D02*
X489448Y849000D02*
X438667Y880890D01*
D02*
X305539Y938900D02*
X205539Y1338900D01*
D02*
X438672Y880890D02*
X305544Y938900D01*
D02*
X205539Y1338900D02*
X246667Y1504890D01*
D02*
X246672Y1504890D02*
X289092Y1529400D01*
D02*
X1805540Y1738900D02*
X2089740Y1928750D01*
D02*
X1805540Y946780D02*
X1805540Y1738900D01*
G04 End of Copper0*
M02*