G04 MADE WITH FRITZING*
G04 WWW.FRITZING.ORG*
G04 DOUBLE SIDED*
G04 HOLES PLATED*
G04 CONTOUR ON CENTER OF CONTOUR VECTOR*
%FSLAX26Y26*%
%MOIN*%
%ADD10C,0.088000*%
%ADD11C,0.090000*%
%ADD12C,0.135984*%
%ADD13C,0.049370*%
%ADD14R,0.089986X0.090000*%
%ADD15R,0.088000X0.088000*%
G04 MASK0*
%FSLAX26Y26*%
%MOIN*%
D10*
X2105540Y639310D03*
X2105540Y739310D03*
X2105540Y839310D03*
X2105540Y939190D03*
X2105540Y1039190D03*
X2105540Y1139190D03*
X2105540Y1239190D03*
X2105540Y1339190D03*
X2105540Y1439310D03*
X2105540Y1539310D03*
X2105540Y1639310D03*
X2105540Y1739310D03*
X2105540Y1839310D03*
X2105540Y1939310D03*
X2105540Y2039310D03*
X2105540Y2139250D03*
X2105540Y2239260D03*
X2105540Y2339260D03*
X2105540Y2439250D03*
X2105540Y2539250D03*
X1105540Y2539520D03*
X1105540Y2438910D03*
X1105540Y2338910D03*
X1105540Y2238910D03*
X1105540Y2138910D03*
X1105540Y2038910D03*
X1105540Y1938910D03*
X1105540Y1838960D03*
X1105540Y1738960D03*
X1105540Y1638960D03*
X1105540Y1538960D03*
X1105540Y1438960D03*
X1105540Y1338960D03*
X1105540Y1238960D03*
X1105540Y1138960D03*
X1105540Y1038960D03*
X1105540Y938960D03*
X1105540Y838960D03*
X1105540Y738430D03*
X1105540Y638520D03*
D11*
X505539Y2138901D03*
X505539Y2338901D03*
D10*
X2605540Y1538900D03*
X2705540Y1538900D03*
X2805540Y1538900D03*
X2605540Y1438900D03*
X2705540Y1438900D03*
X2805540Y1438900D03*
D12*
X205538Y2638901D03*
X205538Y138900D03*
X2805540Y138900D03*
X2805540Y2638901D03*
D10*
X305539Y1638900D03*
X305539Y1538900D03*
X305539Y1438900D03*
X2705540Y538900D03*
X2705540Y438900D03*
X2705540Y338900D03*
X2705540Y1038900D03*
X2705540Y938900D03*
X2705540Y838900D03*
X505539Y238900D03*
X505539Y338900D03*
X505539Y438900D03*
X505539Y538900D03*
X505539Y638900D03*
X505539Y738900D03*
X505539Y838900D03*
X505539Y938900D03*
X505539Y1038900D03*
X505539Y1138900D03*
D13*
X1805540Y938900D03*
D14*
X505546Y2138901D03*
D15*
X2605540Y1538900D03*
X2605540Y1438900D03*
X305539Y1638900D03*
X2705540Y538900D03*
X2705540Y1038900D03*
X505539Y238900D03*
G04 End of Mask0*
M02*