; NON-PLATED HOLES START AT T1
; THROUGH (PLATED) HOLES START AT T100
M48
INCH
T1C0.125984
T100C0.038000
T101C0.040000
T102C0.015748
%
T1
X002055Y001389
X028055Y001389
X028055Y026389
X002055Y026389
T100
X005055Y006389
X005055Y002389
X011055Y011389
X021055Y025392
X021055Y009391
X021055Y010391
X021055Y013391
X027055Y008388
X021055Y019393
X011055Y021389
X011055Y007384
X011055Y019389
X005055Y007388
X021055Y022392
X005055Y005389
X011055Y009389
X005055Y010388
X021055Y007393
X005055Y008388
X028055Y014388
X011055Y022389
X026055Y015388
X021055Y016393
X003055Y014388
X021055Y008393
X011055Y016389
X027055Y014388
X011055Y012389
X027055Y010388
X003055Y016389
X011055Y006385
X011055Y015389
X021055Y021392
X021055Y015393
X027055Y005389
X011055Y008389
X021055Y023392
X005055Y004389
X021055Y012391
X005055Y003389
X011055Y018389
X027055Y009388
X021055Y024392
X021055Y018393
X021055Y006393
X021055Y014393
X005055Y011388
X027055Y004389
X011055Y014389
X021055Y017393
X011055Y017389
X011055Y024389
X011055Y023389
X027055Y015388
X011055Y020389
X005055Y009388
X011055Y025395
X003055Y015388
X011055Y013389
X028055Y015388
X011055Y010389
X021055Y020393
X026055Y014388
X021055Y011391
X027055Y003389
T101
X005055Y023389
X005055Y021389
T102
X018055Y009388
T00
M30
