G04 MADE WITH FRITZING*
G04 WWW.FRITZING.ORG*
G04 DOUBLE SIDED*
G04 HOLES PLATED*
G04 CONTOUR ON CENTER OF CONTOUR VECTOR*
%FSLAX26Y26*%
%MOIN*%
%ADD10C,0.078000*%
%ADD11C,0.080000*%
%ADD12R,0.078000X0.078000*%
%ADD13R,0.079986X0.080000*%
%ADD14C,0.024000*%
%ADD15R,0.001000X0.001000*%
G04 COPPER0*
%FSLAX26Y26*%
%MOIN*%
D10*
X1234970Y195020D03*
X1134970Y195020D03*
X1034970Y195020D03*
X934976Y195020D03*
X834976Y195020D03*
X734975Y195020D03*
X634975Y195020D03*
X534975Y195020D03*
X434980Y795010D03*
X434980Y895010D03*
X434980Y995010D03*
X434980Y1095010D03*
X434980Y1195010D03*
X434980Y1295010D03*
X434980Y1395010D03*
X434980Y1495010D03*
X1834980Y795360D03*
X1834980Y895360D03*
X1834980Y995360D03*
X1834980Y1095240D03*
X1834980Y1195240D03*
X1834980Y1295240D03*
X1834980Y1395240D03*
X1834980Y1495240D03*
X1834980Y1595360D03*
X1834980Y1695360D03*
X1834980Y1795360D03*
X1834980Y1895360D03*
X1834980Y1995360D03*
X1834980Y2095360D03*
X1834980Y2195360D03*
X1834980Y2295300D03*
X1834980Y2395310D03*
X1834980Y2495310D03*
X1834980Y2595300D03*
X1834980Y2695300D03*
X834980Y2695570D03*
X834980Y2594960D03*
X834980Y2494960D03*
X834980Y2394960D03*
X834980Y2294960D03*
X834980Y2194960D03*
X834980Y2094960D03*
X834980Y1995010D03*
X834980Y1895010D03*
X834980Y1795010D03*
X834980Y1695010D03*
X834980Y1595010D03*
X834980Y1495010D03*
X834980Y1395010D03*
X834980Y1295010D03*
X834980Y1195010D03*
X834980Y1095010D03*
X834980Y995010D03*
X834980Y894480D03*
X834980Y794570D03*
D11*
X534974Y2395013D03*
X534974Y2595013D03*
D10*
X234978Y1895010D03*
X334978Y1895010D03*
X434978Y1895010D03*
X234978Y1995013D03*
X334978Y1995013D03*
X434978Y1995013D03*
X2334980Y1595010D03*
X2434980Y1595010D03*
X2534980Y1595010D03*
X2334980Y1495010D03*
X2434980Y1495010D03*
X2534980Y1495010D03*
X2434980Y595010D03*
X2434980Y495010D03*
X2434980Y395010D03*
X2434980Y1095010D03*
X2434980Y995010D03*
X2434980Y895010D03*
D12*
X534751Y194800D03*
X434758Y1495230D03*
D13*
X534981Y2395013D03*
D12*
X234978Y1895010D03*
X234978Y1995013D03*
X2334980Y1595010D03*
X2334980Y1495010D03*
X2434980Y595010D03*
X2434980Y1095010D03*
D14*
X849079Y982280D02*
X1032110Y817000D01*
D02*
X1032110Y817000D02*
X1034900Y214010D01*
D02*
X935047Y214010D02*
X936105Y505000D01*
D02*
X936111Y505000D02*
X447283Y1080530D01*
D02*
X826481Y212010D02*
X734977Y395010D01*
D02*
X734978Y395010D02*
X634978Y495010D01*
D02*
X634978Y495010D02*
X360106Y661000D01*
D02*
X360111Y661000D02*
X334983Y695010D01*
D02*
X334978Y695010D02*
X336106Y1081000D01*
D02*
X336111Y1081000D02*
X422535Y1180660D01*
D02*
X817984Y1486520D02*
X451972Y1303510D01*
D02*
X726481Y212010D02*
X634978Y395010D01*
D02*
X334978Y595010D02*
X234978Y795010D01*
D02*
X634978Y395010D02*
X334978Y595010D01*
D02*
X234978Y795010D02*
X288106Y1153000D01*
D02*
X288111Y1153000D02*
X421324Y1281810D01*
D02*
X630607Y213500D02*
X624106Y241000D01*
D02*
X334978Y395010D02*
X234978Y595010D01*
D02*
X624111Y241000D02*
X334983Y395010D01*
D02*
X134978Y795010D02*
X234978Y1295010D01*
D02*
X234978Y595010D02*
X134978Y795010D01*
D02*
X234978Y1295010D02*
X417984Y1386520D01*
D02*
X1223150Y180140D02*
X1176110Y121000D01*
D02*
X1176110Y121000D02*
X576111Y121000D01*
D02*
X576111Y121000D02*
X544212Y178410D01*
D02*
X1821550Y781920D02*
X1248410Y208450D01*
D02*
X1849690Y2083336D02*
X1872110Y2065002D01*
D02*
X1872100Y2065002D02*
X2280100Y1417000D01*
D02*
X2280100Y1417000D02*
X2434970Y1395010D01*
D02*
X2534980Y1195010D02*
X2534980Y795010D01*
D02*
X2434980Y1395010D02*
X2534980Y1195010D01*
D02*
X2534980Y795010D02*
X2443470Y612010D01*
D02*
X2527370Y1577600D02*
X2520110Y1561000D01*
D02*
X2520100Y1561000D02*
X2530790Y1513550D01*
D02*
X2434980Y1576010D02*
X2434980Y1514010D01*
D02*
X426481Y1512010D02*
X243475Y1878020D01*
D02*
X526034Y2577125D02*
X243475Y2012007D01*
D02*
X343475Y2012007D02*
X526034Y2377125D01*
D02*
X634978Y2295013D02*
X817982Y2386467D01*
D02*
X634978Y1995013D02*
X634978Y2295013D01*
D02*
X451972Y1903510D02*
X634978Y1995013D01*
D02*
X334978Y1914010D02*
X334978Y1976013D01*
D02*
X2234980Y1295010D02*
X2334980Y995010D01*
D02*
X1850170Y1583950D02*
X2234980Y1295010D01*
D02*
X2334980Y995010D02*
X2415980Y995010D01*
D02*
X1934980Y2595013D02*
X2525200Y1611310D01*
D02*
X1848390Y2681855D02*
X1934980Y2595014D01*
D02*
X734978Y2795013D02*
X934978Y2795013D01*
D02*
X549120Y2609155D02*
X734978Y2795013D01*
D02*
X1234980Y2695013D02*
X1815980Y2695300D01*
D02*
X934978Y2795013D02*
X1234980Y2695013D01*
D02*
X2334980Y1295010D02*
X2426480Y1112010D01*
D02*
X1849810Y1683490D02*
X2334980Y1295010D01*
D15*
D02*
G04 End of Copper0*
M02*