; NON-PLATED HOLES START AT T1
; THROUGH (PLATED) HOLES START AT T100
M48
INCH
T1C0.125984
T100C0.038000
T101C0.040000
%
T1
X025349Y027950
X001349Y001950
X025349Y001950
X001349Y027950
T100
X018349Y018953
X008349Y015950
X004349Y012950
X004349Y010950
X010349Y001950
X008349Y009950
X008349Y021949
X018349Y022952
X008349Y024949
X008349Y023949
X018349Y007953
X024349Y004950
X008349Y016950
X024349Y003950
X018349Y010952
X018349Y023953
X024349Y008950
X018349Y024953
X018349Y021953
X018349Y012952
X004349Y019950
X024349Y009950
X008349Y020949
X008349Y022949
X004349Y018950
X024349Y015950
X004349Y013950
X025349Y015950
X004349Y007950
X004349Y014950
X004349Y011950
X006349Y001950
X018349Y014952
X018349Y011952
X018349Y020953
X012349Y001950
X018349Y013952
X008349Y001950
X018349Y019953
X023349Y014950
X008349Y017950
X007349Y001950
X008349Y013950
X008349Y014950
X024349Y010950
X018349Y009953
X008349Y011950
X008349Y026955
X002349Y019950
X003349Y019950
X008349Y025949
X018349Y015953
X009349Y001950
X008349Y018950
X005349Y001950
X024349Y005950
X004349Y008950
X018349Y016953
X018349Y025952
X004349Y009950
X008349Y012950
X025349Y014950
X008349Y010950
X024349Y014950
X008349Y008944
X018349Y026952
X002349Y018950
X018349Y017953
X003349Y018950
X008349Y019950
X011349Y001950
X008349Y007945
X023349Y015950
X018349Y008953
T101
X005349Y025950
X005349Y023950
T00
M30
