G04 MADE WITH FRITZING*
G04 WWW.FRITZING.ORG*
G04 DOUBLE SIDED*
G04 HOLES PLATED*
G04 CONTOUR ON CENTER OF CONTOUR VECTOR*
%FSLAX26Y26*%
%MOIN*%
%ADD10C,0.088000*%
%ADD11C,0.090000*%
%ADD12C,0.135984*%
%ADD13R,0.088000X0.088000*%
%ADD14R,0.089986X0.090000*%
%ADD15R,0.001000X0.001000*%
G04 MASK1*
%FSLAX26Y26*%
%MOIN*%
D10*
X1234970Y195020D03*
X1134970Y195020D03*
X1034970Y195020D03*
X934976Y195020D03*
X834976Y195020D03*
X734975Y195020D03*
X634975Y195020D03*
X534975Y195020D03*
X434980Y795010D03*
X434980Y895010D03*
X434980Y995010D03*
X434980Y1095010D03*
X434980Y1195010D03*
X434980Y1295010D03*
X434980Y1395010D03*
X434980Y1495010D03*
X1834980Y795360D03*
X1834980Y895360D03*
X1834980Y995360D03*
X1834980Y1095240D03*
X1834980Y1195240D03*
X1834980Y1295240D03*
X1834980Y1395240D03*
X1834980Y1495240D03*
X1834980Y1595360D03*
X1834980Y1695360D03*
X1834980Y1795360D03*
X1834980Y1895360D03*
X1834980Y1995360D03*
X1834980Y2095360D03*
X1834980Y2195360D03*
X1834980Y2295300D03*
X1834980Y2395310D03*
X1834980Y2495310D03*
X1834980Y2595300D03*
X1834980Y2695300D03*
X834980Y2695570D03*
X834980Y2594960D03*
X834980Y2494960D03*
X834980Y2394960D03*
X834980Y2294960D03*
X834980Y2194960D03*
X834980Y2094960D03*
X834980Y1995010D03*
X834980Y1895010D03*
X834980Y1795010D03*
X834980Y1695010D03*
X834980Y1595010D03*
X834980Y1495010D03*
X834980Y1395010D03*
X834980Y1295010D03*
X834980Y1195010D03*
X834980Y1095010D03*
X834980Y995010D03*
X834980Y894480D03*
X834980Y794570D03*
D11*
X534974Y2395013D03*
X534974Y2595013D03*
D10*
X234978Y1895010D03*
X334978Y1895010D03*
X434978Y1895010D03*
X234978Y1995013D03*
X334978Y1995013D03*
X434978Y1995013D03*
X2334980Y1595010D03*
X2434980Y1595010D03*
X2534980Y1595010D03*
X2334980Y1495010D03*
X2434980Y1495010D03*
X2534980Y1495010D03*
D12*
X134981Y2795014D03*
X134981Y195010D03*
X2534980Y195010D03*
X2534980Y2795014D03*
D10*
X2434980Y595010D03*
X2434980Y495010D03*
X2434980Y395010D03*
X2434980Y1095010D03*
X2434980Y995010D03*
X2434980Y895010D03*
D13*
X534751Y194800D03*
X434758Y1495230D03*
D14*
X534981Y2395013D03*
D13*
X234978Y1895010D03*
X234978Y1995013D03*
X2334980Y1595010D03*
X2334980Y1495010D03*
X2434980Y595010D03*
X2434980Y1095010D03*
D15*
D02*
G04 End of Mask1*
M02*