G04 MADE WITH FRITZING*
G04 WWW.FRITZING.ORG*
G04 DOUBLE SIDED*
G04 HOLES PLATED*
G04 CONTOUR ON CENTER OF CONTOUR VECTOR*
%FSLAX26Y26*%
%MOIN*%
%ADD10C,0.010000*%
%ADD11R,0.001000X0.001000*%
G04 SILK1*
%FSLAX26Y26*%
%MOIN*%
D10*
X317892Y518593D02*
X517892Y518593D01*
D02*
X517892Y518593D02*
X517892Y452593D01*
D02*
X517892Y452593D02*
X317892Y452593D01*
D02*
X317892Y452593D02*
X317892Y518593D01*
D02*
X317892Y618593D02*
X517892Y618593D01*
D02*
X517892Y618593D02*
X517892Y552593D01*
D02*
X517892Y552593D02*
X317892Y552593D01*
D02*
X317892Y552593D02*
X317892Y618593D01*
D02*
X258392Y235593D02*
X658392Y235593D01*
D02*
X658392Y235593D02*
X658392Y335593D01*
D02*
X658392Y335593D02*
X258392Y335593D01*
D02*
X258392Y335593D02*
X258392Y235593D01*
D02*
X758392Y735593D02*
X758392Y435593D01*
D02*
X758392Y435593D02*
X858392Y435593D01*
D02*
X858392Y435593D02*
X858392Y735593D01*
D02*
X858392Y735593D02*
X758392Y735593D01*
D02*
X1158390Y735593D02*
X1158390Y435593D01*
D02*
X1158390Y435593D02*
X1258390Y435593D01*
D02*
X1258390Y435593D02*
X1258390Y735593D01*
D02*
X1258390Y735593D02*
X1158390Y735593D01*
D02*
X1558390Y735593D02*
X1558390Y435593D01*
D02*
X1558390Y435593D02*
X1658390Y435593D01*
D02*
X1658390Y435593D02*
X1658390Y735593D01*
D02*
X1658390Y735593D02*
X1558390Y735593D01*
D02*
X1558390Y335593D02*
X1558390Y35593D01*
D02*
X1558390Y35593D02*
X1658390Y35593D01*
D02*
X1658390Y35593D02*
X1658390Y335593D01*
D02*
X1658390Y335593D02*
X1558390Y335593D01*
D02*
X1358390Y335593D02*
X1358390Y35593D01*
D02*
X1358390Y35593D02*
X1458390Y35593D01*
D02*
X1458390Y35593D02*
X1458390Y335593D01*
D02*
X1458390Y335593D02*
X1358390Y335593D01*
D02*
X1158390Y335593D02*
X1158390Y35593D01*
D02*
X1158390Y35593D02*
X1258390Y35593D01*
D02*
X1258390Y35593D02*
X1258390Y335593D01*
D02*
X1258390Y335593D02*
X1158390Y335593D01*
D02*
X958392Y335593D02*
X958392Y35593D01*
D02*
X958392Y35593D02*
X1058390Y35593D01*
D02*
X1058390Y35593D02*
X1058390Y335593D01*
D02*
X1058390Y335593D02*
X958392Y335593D01*
D02*
X958392Y735593D02*
X958392Y435593D01*
D02*
X958392Y435593D02*
X1058390Y435593D01*
D02*
X1058390Y435593D02*
X1058390Y735593D01*
D02*
X1058390Y735593D02*
X958392Y735593D01*
D02*
X1358390Y735593D02*
X1358390Y435593D01*
D02*
X1358390Y435593D02*
X1458390Y435593D01*
D02*
X1458390Y435593D02*
X1458390Y735593D01*
D02*
X1458390Y735593D02*
X1358390Y735593D01*
D02*
X758392Y335593D02*
X758392Y35593D01*
D02*
X758392Y35593D02*
X858392Y35593D01*
D02*
X858392Y35593D02*
X858392Y335593D01*
D02*
X858392Y335593D02*
X758392Y335593D01*
D11*
X500Y779665D02*
X1927500Y779665D01*
X500Y778665D02*
X1927500Y778665D01*
X500Y777665D02*
X1927500Y777665D01*
X500Y776665D02*
X1927500Y776665D01*
X500Y775665D02*
X1927500Y775665D01*
X500Y774665D02*
X1927500Y774665D01*
X500Y773665D02*
X1927500Y773665D01*
X500Y772665D02*
X1927500Y772665D01*
X500Y771665D02*
X7500Y771665D01*
X1920500Y771665D02*
X1927500Y771665D01*
X500Y770665D02*
X7500Y770665D01*
X1920500Y770665D02*
X1927500Y770665D01*
X500Y769665D02*
X7500Y769665D01*
X1920500Y769665D02*
X1927500Y769665D01*
X500Y768665D02*
X7500Y768665D01*
X1920500Y768665D02*
X1927500Y768665D01*
X500Y767665D02*
X7500Y767665D01*
X1920500Y767665D02*
X1927500Y767665D01*
X500Y766665D02*
X7500Y766665D01*
X1920500Y766665D02*
X1927500Y766665D01*
X500Y765665D02*
X7500Y765665D01*
X1920500Y765665D02*
X1927500Y765665D01*
X500Y764665D02*
X7500Y764665D01*
X1920500Y764665D02*
X1927500Y764665D01*
X500Y763665D02*
X7500Y763665D01*
X1920500Y763665D02*
X1927500Y763665D01*
X500Y762665D02*
X7500Y762665D01*
X1920500Y762665D02*
X1927500Y762665D01*
X500Y761665D02*
X7500Y761665D01*
X1920500Y761665D02*
X1927500Y761665D01*
X500Y760665D02*
X7500Y760665D01*
X1920500Y760665D02*
X1927500Y760665D01*
X500Y759665D02*
X7500Y759665D01*
X1920500Y759665D02*
X1927500Y759665D01*
X500Y758665D02*
X7500Y758665D01*
X1920500Y758665D02*
X1927500Y758665D01*
X500Y757665D02*
X7500Y757665D01*
X1920500Y757665D02*
X1927500Y757665D01*
X500Y756665D02*
X7500Y756665D01*
X1920500Y756665D02*
X1927500Y756665D01*
X500Y755665D02*
X7500Y755665D01*
X1920500Y755665D02*
X1927500Y755665D01*
X500Y754665D02*
X7500Y754665D01*
X1920500Y754665D02*
X1927500Y754665D01*
X500Y753665D02*
X7500Y753665D01*
X1920500Y753665D02*
X1927500Y753665D01*
X500Y752665D02*
X7500Y752665D01*
X1920500Y752665D02*
X1927500Y752665D01*
X500Y751665D02*
X7500Y751665D01*
X1920500Y751665D02*
X1927500Y751665D01*
X500Y750665D02*
X7500Y750665D01*
X1920500Y750665D02*
X1927500Y750665D01*
X500Y749665D02*
X7500Y749665D01*
X1920500Y749665D02*
X1927500Y749665D01*
X500Y748665D02*
X7500Y748665D01*
X1920500Y748665D02*
X1927500Y748665D01*
X500Y747665D02*
X7500Y747665D01*
X1920500Y747665D02*
X1927500Y747665D01*
X500Y746665D02*
X7500Y746665D01*
X1920500Y746665D02*
X1927500Y746665D01*
X500Y745665D02*
X7500Y745665D01*
X1920500Y745665D02*
X1927500Y745665D01*
X500Y744665D02*
X7500Y744665D01*
X1920500Y744665D02*
X1927500Y744665D01*
X500Y743665D02*
X7500Y743665D01*
X1920500Y743665D02*
X1927500Y743665D01*
X500Y742665D02*
X7500Y742665D01*
X1920500Y742665D02*
X1927500Y742665D01*
X500Y741665D02*
X7500Y741665D01*
X1920500Y741665D02*
X1927500Y741665D01*
X500Y740665D02*
X7500Y740665D01*
X1920500Y740665D02*
X1927500Y740665D01*
X500Y739665D02*
X7500Y739665D01*
X1920500Y739665D02*
X1927500Y739665D01*
X500Y738665D02*
X7500Y738665D01*
X1920500Y738665D02*
X1927500Y738665D01*
X500Y737665D02*
X7500Y737665D01*
X1920500Y737665D02*
X1927500Y737665D01*
X500Y736665D02*
X7500Y736665D01*
X791500Y736665D02*
X791500Y736665D01*
X991500Y736665D02*
X991500Y736665D01*
X1191500Y736665D02*
X1191500Y736665D01*
X1390500Y736665D02*
X1391500Y736665D01*
X1590500Y736665D02*
X1591500Y736665D01*
X1920500Y736665D02*
X1927500Y736665D01*
X500Y735665D02*
X7500Y735665D01*
X790500Y735665D02*
X792500Y735665D01*
X990500Y735665D02*
X992500Y735665D01*
X1190500Y735665D02*
X1192500Y735665D01*
X1389500Y735665D02*
X1392500Y735665D01*
X1589500Y735665D02*
X1592500Y735665D01*
X1920500Y735665D02*
X1927500Y735665D01*
X500Y734665D02*
X7500Y734665D01*
X789500Y734665D02*
X793500Y734665D01*
X989500Y734665D02*
X993500Y734665D01*
X1189500Y734665D02*
X1193500Y734665D01*
X1388500Y734665D02*
X1393500Y734665D01*
X1588500Y734665D02*
X1593500Y734665D01*
X1920500Y734665D02*
X1927500Y734665D01*
X500Y733665D02*
X7500Y733665D01*
X788500Y733665D02*
X794500Y733665D01*
X988500Y733665D02*
X994500Y733665D01*
X1188500Y733665D02*
X1194500Y733665D01*
X1387500Y733665D02*
X1393500Y733665D01*
X1587500Y733665D02*
X1593500Y733665D01*
X1920500Y733665D02*
X1927500Y733665D01*
X500Y732665D02*
X7500Y732665D01*
X787500Y732665D02*
X793500Y732665D01*
X987500Y732665D02*
X993500Y732665D01*
X1187500Y732665D02*
X1193500Y732665D01*
X1386500Y732665D02*
X1393500Y732665D01*
X1586500Y732665D02*
X1592500Y732665D01*
X1920500Y732665D02*
X1927500Y732665D01*
X500Y731665D02*
X7500Y731665D01*
X786500Y731665D02*
X792500Y731665D01*
X986500Y731665D02*
X992500Y731665D01*
X1186500Y731665D02*
X1192500Y731665D01*
X1385500Y731665D02*
X1392500Y731665D01*
X1585500Y731665D02*
X1591500Y731665D01*
X1920500Y731665D02*
X1927500Y731665D01*
X500Y730665D02*
X7500Y730665D01*
X785500Y730665D02*
X791500Y730665D01*
X985500Y730665D02*
X991500Y730665D01*
X1185500Y730665D02*
X1191500Y730665D01*
X1384500Y730665D02*
X1391500Y730665D01*
X1584500Y730665D02*
X1590500Y730665D01*
X1920500Y730665D02*
X1927500Y730665D01*
X500Y729665D02*
X7500Y729665D01*
X784500Y729665D02*
X790500Y729665D01*
X984500Y729665D02*
X990500Y729665D01*
X1184500Y729665D02*
X1190500Y729665D01*
X1383500Y729665D02*
X1390500Y729665D01*
X1583500Y729665D02*
X1589500Y729665D01*
X1920500Y729665D02*
X1927500Y729665D01*
X500Y728665D02*
X7500Y728665D01*
X1920500Y728665D02*
X1927500Y728665D01*
X500Y727665D02*
X7500Y727665D01*
X1920500Y727665D02*
X1927500Y727665D01*
X500Y726665D02*
X7500Y726665D01*
X1920500Y726665D02*
X1927500Y726665D01*
X500Y725665D02*
X7500Y725665D01*
X1920500Y725665D02*
X1927500Y725665D01*
X500Y724665D02*
X7500Y724665D01*
X1920500Y724665D02*
X1927500Y724665D01*
X500Y723665D02*
X7500Y723665D01*
X1920500Y723665D02*
X1927500Y723665D01*
X500Y722665D02*
X7500Y722665D01*
X1920500Y722665D02*
X1927500Y722665D01*
X500Y721665D02*
X7500Y721665D01*
X1920500Y721665D02*
X1927500Y721665D01*
X500Y720665D02*
X7500Y720665D01*
X1920500Y720665D02*
X1927500Y720665D01*
X500Y719665D02*
X7500Y719665D01*
X1920500Y719665D02*
X1927500Y719665D01*
X500Y718665D02*
X7500Y718665D01*
X1920500Y718665D02*
X1927500Y718665D01*
X500Y717665D02*
X7500Y717665D01*
X68500Y717665D02*
X71500Y717665D01*
X1920500Y717665D02*
X1927500Y717665D01*
X500Y716665D02*
X7500Y716665D01*
X67500Y716665D02*
X73500Y716665D01*
X1920500Y716665D02*
X1927500Y716665D01*
X500Y715665D02*
X7500Y715665D01*
X66500Y715665D02*
X74500Y715665D01*
X1920500Y715665D02*
X1927500Y715665D01*
X500Y714665D02*
X7500Y714665D01*
X66500Y714665D02*
X74500Y714665D01*
X1920500Y714665D02*
X1927500Y714665D01*
X500Y713665D02*
X7500Y713665D01*
X65500Y713665D02*
X74500Y713665D01*
X1920500Y713665D02*
X1927500Y713665D01*
X500Y712665D02*
X7500Y712665D01*
X65500Y712665D02*
X74500Y712665D01*
X1920500Y712665D02*
X1927500Y712665D01*
X500Y711665D02*
X7500Y711665D01*
X65500Y711665D02*
X74500Y711665D01*
X1920500Y711665D02*
X1927500Y711665D01*
X500Y710665D02*
X7500Y710665D01*
X65500Y710665D02*
X74500Y710665D01*
X1709500Y710665D02*
X1724500Y710665D01*
X1755500Y710665D02*
X1765500Y710665D01*
X1782500Y710665D02*
X1782500Y710665D01*
X1920500Y710665D02*
X1927500Y710665D01*
X500Y709665D02*
X7500Y709665D01*
X65500Y709665D02*
X74500Y709665D01*
X1363500Y709665D02*
X1363500Y709665D01*
X1563500Y709665D02*
X1563500Y709665D01*
X1708500Y709665D02*
X1727500Y709665D01*
X1752500Y709665D02*
X1767500Y709665D01*
X1780500Y709665D02*
X1784500Y709665D01*
X1920500Y709665D02*
X1927500Y709665D01*
X500Y708665D02*
X7500Y708665D01*
X65500Y708665D02*
X74500Y708665D01*
X763500Y708665D02*
X763500Y708665D01*
X963500Y708665D02*
X963500Y708665D01*
X1163500Y708665D02*
X1163500Y708665D01*
X1362500Y708665D02*
X1363500Y708665D01*
X1562500Y708665D02*
X1563500Y708665D01*
X1706500Y708665D02*
X1728500Y708665D01*
X1751500Y708665D02*
X1767500Y708665D01*
X1780500Y708665D02*
X1784500Y708665D01*
X1920500Y708665D02*
X1927500Y708665D01*
X500Y707665D02*
X7500Y707665D01*
X65500Y707665D02*
X74500Y707665D01*
X94500Y707665D02*
X97500Y707665D01*
X762500Y707665D02*
X763500Y707665D01*
X962500Y707665D02*
X963500Y707665D01*
X1162500Y707665D02*
X1163500Y707665D01*
X1361500Y707665D02*
X1363500Y707665D01*
X1561500Y707665D02*
X1563500Y707665D01*
X1706500Y707665D02*
X1729500Y707665D01*
X1750500Y707665D02*
X1767500Y707665D01*
X1780500Y707665D02*
X1784500Y707665D01*
X1920500Y707665D02*
X1927500Y707665D01*
X500Y706665D02*
X7500Y706665D01*
X65500Y706665D02*
X74500Y706665D01*
X92500Y706665D02*
X98500Y706665D01*
X761500Y706665D02*
X763500Y706665D01*
X961500Y706665D02*
X963500Y706665D01*
X1161500Y706665D02*
X1163500Y706665D01*
X1360500Y706665D02*
X1363500Y706665D01*
X1560500Y706665D02*
X1563500Y706665D01*
X1705500Y706665D02*
X1729500Y706665D01*
X1749500Y706665D02*
X1767500Y706665D01*
X1780500Y706665D02*
X1784500Y706665D01*
X1920500Y706665D02*
X1927500Y706665D01*
X500Y705665D02*
X7500Y705665D01*
X65500Y705665D02*
X74500Y705665D01*
X91500Y705665D02*
X99500Y705665D01*
X760500Y705665D02*
X763500Y705665D01*
X960500Y705665D02*
X963500Y705665D01*
X1160500Y705665D02*
X1163500Y705665D01*
X1359500Y705665D02*
X1363500Y705665D01*
X1559500Y705665D02*
X1563500Y705665D01*
X1705500Y705665D02*
X1730500Y705665D01*
X1748500Y705665D02*
X1765500Y705665D01*
X1780500Y705665D02*
X1784500Y705665D01*
X1920500Y705665D02*
X1927500Y705665D01*
X500Y704665D02*
X7500Y704665D01*
X65500Y704665D02*
X74500Y704665D01*
X91500Y704665D02*
X100500Y704665D01*
X759500Y704665D02*
X763500Y704665D01*
X959500Y704665D02*
X963500Y704665D01*
X1159500Y704665D02*
X1163500Y704665D01*
X1358500Y704665D02*
X1363500Y704665D01*
X1558500Y704665D02*
X1563500Y704665D01*
X1705500Y704665D02*
X1709500Y704665D01*
X1725500Y704665D02*
X1730500Y704665D01*
X1748500Y704665D02*
X1753500Y704665D01*
X1780500Y704665D02*
X1784500Y704665D01*
X1920500Y704665D02*
X1927500Y704665D01*
X500Y703665D02*
X7500Y703665D01*
X65500Y703665D02*
X74500Y703665D01*
X91500Y703665D02*
X100500Y703665D01*
X758500Y703665D02*
X763500Y703665D01*
X958500Y703665D02*
X963500Y703665D01*
X1158500Y703665D02*
X1163500Y703665D01*
X1357500Y703665D02*
X1363500Y703665D01*
X1557500Y703665D02*
X1563500Y703665D01*
X1705500Y703665D02*
X1710500Y703665D01*
X1726500Y703665D02*
X1730500Y703665D01*
X1747500Y703665D02*
X1752500Y703665D01*
X1780500Y703665D02*
X1784500Y703665D01*
X1920500Y703665D02*
X1927500Y703665D01*
X500Y702665D02*
X7500Y702665D01*
X65500Y702665D02*
X74500Y702665D01*
X91500Y702665D02*
X100500Y702665D01*
X757500Y702665D02*
X763500Y702665D01*
X957500Y702665D02*
X963500Y702665D01*
X1157500Y702665D02*
X1163500Y702665D01*
X1357500Y702665D02*
X1363500Y702665D01*
X1556500Y702665D02*
X1563500Y702665D01*
X1705500Y702665D02*
X1711500Y702665D01*
X1726500Y702665D02*
X1729500Y702665D01*
X1747500Y702665D02*
X1752500Y702665D01*
X1780500Y702665D02*
X1784500Y702665D01*
X1920500Y702665D02*
X1927500Y702665D01*
X500Y701665D02*
X7500Y701665D01*
X65500Y701665D02*
X74500Y701665D01*
X91500Y701665D02*
X100500Y701665D01*
X757500Y701665D02*
X762500Y701665D01*
X957500Y701665D02*
X962500Y701665D01*
X1157500Y701665D02*
X1162500Y701665D01*
X1357500Y701665D02*
X1362500Y701665D01*
X1557500Y701665D02*
X1562500Y701665D01*
X1706500Y701665D02*
X1712500Y701665D01*
X1727500Y701665D02*
X1729500Y701665D01*
X1746500Y701665D02*
X1751500Y701665D01*
X1780500Y701665D02*
X1784500Y701665D01*
X1920500Y701665D02*
X1927500Y701665D01*
X500Y700665D02*
X7500Y700665D01*
X65500Y700665D02*
X74500Y700665D01*
X91500Y700665D02*
X100500Y700665D01*
X758500Y700665D02*
X761500Y700665D01*
X958500Y700665D02*
X961500Y700665D01*
X1158500Y700665D02*
X1161500Y700665D01*
X1358500Y700665D02*
X1361500Y700665D01*
X1558500Y700665D02*
X1561500Y700665D01*
X1707500Y700665D02*
X1712500Y700665D01*
X1746500Y700665D02*
X1751500Y700665D01*
X1780500Y700665D02*
X1784500Y700665D01*
X1920500Y700665D02*
X1927500Y700665D01*
X500Y699665D02*
X7500Y699665D01*
X65500Y699665D02*
X74500Y699665D01*
X91500Y699665D02*
X100500Y699665D01*
X759500Y699665D02*
X760500Y699665D01*
X959500Y699665D02*
X960500Y699665D01*
X1159500Y699665D02*
X1160500Y699665D01*
X1359500Y699665D02*
X1360500Y699665D01*
X1559500Y699665D02*
X1560500Y699665D01*
X1707500Y699665D02*
X1713500Y699665D01*
X1745500Y699665D02*
X1750500Y699665D01*
X1780500Y699665D02*
X1784500Y699665D01*
X1920500Y699665D02*
X1927500Y699665D01*
X500Y698665D02*
X7500Y698665D01*
X65500Y698665D02*
X74500Y698665D01*
X91500Y698665D02*
X100500Y698665D01*
X1708500Y698665D02*
X1714500Y698665D01*
X1745500Y698665D02*
X1750500Y698665D01*
X1780500Y698665D02*
X1784500Y698665D01*
X1920500Y698665D02*
X1927500Y698665D01*
X500Y697665D02*
X7500Y697665D01*
X65500Y697665D02*
X74500Y697665D01*
X91500Y697665D02*
X100500Y697665D01*
X1709500Y697665D02*
X1715500Y697665D01*
X1745500Y697665D02*
X1749500Y697665D01*
X1780500Y697665D02*
X1784500Y697665D01*
X1920500Y697665D02*
X1927500Y697665D01*
X500Y696665D02*
X7500Y696665D01*
X65500Y696665D02*
X74500Y696665D01*
X91500Y696665D02*
X100500Y696665D01*
X1710500Y696665D02*
X1715500Y696665D01*
X1744500Y696665D02*
X1749500Y696665D01*
X1780500Y696665D02*
X1784500Y696665D01*
X1920500Y696665D02*
X1927500Y696665D01*
X500Y695665D02*
X7500Y695665D01*
X65500Y695665D02*
X74500Y695665D01*
X91500Y695665D02*
X100500Y695665D01*
X1711500Y695665D02*
X1716500Y695665D01*
X1744500Y695665D02*
X1748500Y695665D01*
X1780500Y695665D02*
X1784500Y695665D01*
X1920500Y695665D02*
X1927500Y695665D01*
X500Y694665D02*
X7500Y694665D01*
X65500Y694665D02*
X74500Y694665D01*
X91500Y694665D02*
X100500Y694665D01*
X1711500Y694665D02*
X1717500Y694665D01*
X1743500Y694665D02*
X1748500Y694665D01*
X1780500Y694665D02*
X1784500Y694665D01*
X1920500Y694665D02*
X1927500Y694665D01*
X500Y693665D02*
X7500Y693665D01*
X65500Y693665D02*
X74500Y693665D01*
X91500Y693665D02*
X100500Y693665D01*
X1712500Y693665D02*
X1718500Y693665D01*
X1743500Y693665D02*
X1747500Y693665D01*
X1780500Y693665D02*
X1784500Y693665D01*
X1920500Y693665D02*
X1927500Y693665D01*
X500Y692665D02*
X7500Y692665D01*
X65500Y692665D02*
X74500Y692665D01*
X91500Y692665D02*
X100500Y692665D01*
X1713500Y692665D02*
X1719500Y692665D01*
X1743500Y692665D02*
X1747500Y692665D01*
X1780500Y692665D02*
X1784500Y692665D01*
X1920500Y692665D02*
X1927500Y692665D01*
X500Y691665D02*
X7500Y691665D01*
X65500Y691665D02*
X74500Y691665D01*
X91500Y691665D02*
X100500Y691665D01*
X1714500Y691665D02*
X1719500Y691665D01*
X1743500Y691665D02*
X1747500Y691665D01*
X1780500Y691665D02*
X1784500Y691665D01*
X1920500Y691665D02*
X1927500Y691665D01*
X500Y690665D02*
X7500Y690665D01*
X65500Y690665D02*
X74500Y690665D01*
X91500Y690665D02*
X100500Y690665D01*
X1714500Y690665D02*
X1720500Y690665D01*
X1742500Y690665D02*
X1747500Y690665D01*
X1780500Y690665D02*
X1784500Y690665D01*
X1920500Y690665D02*
X1927500Y690665D01*
X500Y689665D02*
X7500Y689665D01*
X65500Y689665D02*
X74500Y689665D01*
X91500Y689665D02*
X100500Y689665D01*
X1715500Y689665D02*
X1721500Y689665D01*
X1743500Y689665D02*
X1747500Y689665D01*
X1780500Y689665D02*
X1784500Y689665D01*
X1920500Y689665D02*
X1927500Y689665D01*
X500Y688665D02*
X7500Y688665D01*
X65500Y688665D02*
X74500Y688665D01*
X91500Y688665D02*
X100500Y688665D01*
X1716500Y688665D02*
X1722500Y688665D01*
X1743500Y688665D02*
X1747500Y688665D01*
X1780500Y688665D02*
X1784500Y688665D01*
X1920500Y688665D02*
X1927500Y688665D01*
X500Y687665D02*
X7500Y687665D01*
X65500Y687665D02*
X74500Y687665D01*
X91500Y687665D02*
X100500Y687665D01*
X1717500Y687665D02*
X1722500Y687665D01*
X1743500Y687665D02*
X1747500Y687665D01*
X1780500Y687665D02*
X1784500Y687665D01*
X1920500Y687665D02*
X1927500Y687665D01*
X500Y686665D02*
X7500Y686665D01*
X65500Y686665D02*
X74500Y686665D01*
X91500Y686665D02*
X100500Y686665D01*
X1718500Y686665D02*
X1723500Y686665D01*
X1743500Y686665D02*
X1748500Y686665D01*
X1780500Y686665D02*
X1784500Y686665D01*
X1920500Y686665D02*
X1927500Y686665D01*
X500Y685665D02*
X7500Y685665D01*
X65500Y685665D02*
X74500Y685665D01*
X91500Y685665D02*
X100500Y685665D01*
X254500Y685665D02*
X273500Y685665D01*
X406500Y685665D02*
X407500Y685665D01*
X480500Y685665D02*
X503500Y685665D01*
X517500Y685665D02*
X519500Y685665D01*
X538500Y685665D02*
X539500Y685665D01*
X1718500Y685665D02*
X1724500Y685665D01*
X1744500Y685665D02*
X1748500Y685665D01*
X1780500Y685665D02*
X1784500Y685665D01*
X1920500Y685665D02*
X1927500Y685665D01*
X500Y684665D02*
X7500Y684665D01*
X65500Y684665D02*
X74500Y684665D01*
X91500Y684665D02*
X100500Y684665D01*
X254500Y684665D02*
X275500Y684665D01*
X405500Y684665D02*
X408500Y684665D01*
X479500Y684665D02*
X503500Y684665D01*
X516500Y684665D02*
X520500Y684665D01*
X536500Y684665D02*
X540500Y684665D01*
X1719500Y684665D02*
X1725500Y684665D01*
X1744500Y684665D02*
X1749500Y684665D01*
X1780500Y684665D02*
X1784500Y684665D01*
X1920500Y684665D02*
X1927500Y684665D01*
X500Y683665D02*
X7500Y683665D01*
X65500Y683665D02*
X74500Y683665D01*
X91500Y683665D02*
X100500Y683665D01*
X254500Y683665D02*
X276500Y683665D01*
X404500Y683665D02*
X409500Y683665D01*
X478500Y683665D02*
X503500Y683665D01*
X516500Y683665D02*
X520500Y683665D01*
X535500Y683665D02*
X541500Y683665D01*
X1720500Y683665D02*
X1726500Y683665D01*
X1744500Y683665D02*
X1749500Y683665D01*
X1780500Y683665D02*
X1784500Y683665D01*
X1920500Y683665D02*
X1927500Y683665D01*
X500Y682665D02*
X7500Y682665D01*
X65500Y682665D02*
X74500Y682665D01*
X91500Y682665D02*
X100500Y682665D01*
X254500Y682665D02*
X277500Y682665D01*
X404500Y682665D02*
X409500Y682665D01*
X478500Y682665D02*
X503500Y682665D01*
X516500Y682665D02*
X520500Y682665D01*
X534500Y682665D02*
X540500Y682665D01*
X1721500Y682665D02*
X1726500Y682665D01*
X1745500Y682665D02*
X1750500Y682665D01*
X1780500Y682665D02*
X1784500Y682665D01*
X1920500Y682665D02*
X1927500Y682665D01*
X500Y681665D02*
X7500Y681665D01*
X65500Y681665D02*
X74500Y681665D01*
X91500Y681665D02*
X100500Y681665D01*
X254500Y681665D02*
X277500Y681665D01*
X404500Y681665D02*
X409500Y681665D01*
X478500Y681665D02*
X503500Y681665D01*
X516500Y681665D02*
X520500Y681665D01*
X533500Y681665D02*
X540500Y681665D01*
X1721500Y681665D02*
X1727500Y681665D01*
X1745500Y681665D02*
X1750500Y681665D01*
X1780500Y681665D02*
X1784500Y681665D01*
X1920500Y681665D02*
X1927500Y681665D01*
X500Y680665D02*
X7500Y680665D01*
X65500Y680665D02*
X74500Y680665D01*
X91500Y680665D02*
X100500Y680665D01*
X254500Y680665D02*
X258500Y680665D01*
X272500Y680665D02*
X278500Y680665D01*
X404500Y680665D02*
X409500Y680665D01*
X421500Y680665D02*
X423500Y680665D01*
X479500Y680665D02*
X483500Y680665D01*
X499500Y680665D02*
X503500Y680665D01*
X516500Y680665D02*
X520500Y680665D01*
X532500Y680665D02*
X539500Y680665D01*
X1722500Y680665D02*
X1728500Y680665D01*
X1746500Y680665D02*
X1751500Y680665D01*
X1780500Y680665D02*
X1784500Y680665D01*
X1920500Y680665D02*
X1927500Y680665D01*
X500Y679665D02*
X7500Y679665D01*
X65500Y679665D02*
X74500Y679665D01*
X91500Y679665D02*
X100500Y679665D01*
X254500Y679665D02*
X258500Y679665D01*
X273500Y679665D02*
X278500Y679665D01*
X404500Y679665D02*
X409500Y679665D01*
X420500Y679665D02*
X424500Y679665D01*
X479500Y679665D02*
X482500Y679665D01*
X499500Y679665D02*
X503500Y679665D01*
X516500Y679665D02*
X520500Y679665D01*
X531500Y679665D02*
X538500Y679665D01*
X1706500Y679665D02*
X1708500Y679665D01*
X1723500Y679665D02*
X1729500Y679665D01*
X1746500Y679665D02*
X1751500Y679665D01*
X1780500Y679665D02*
X1784500Y679665D01*
X1920500Y679665D02*
X1927500Y679665D01*
X500Y678665D02*
X7500Y678665D01*
X65500Y678665D02*
X75500Y678665D01*
X90500Y678665D02*
X100500Y678665D01*
X254500Y678665D02*
X258500Y678665D01*
X274500Y678665D02*
X278500Y678665D01*
X404500Y678665D02*
X409500Y678665D01*
X420500Y678665D02*
X424500Y678665D01*
X480500Y678665D02*
X480500Y678665D01*
X499500Y678665D02*
X503500Y678665D01*
X516500Y678665D02*
X520500Y678665D01*
X529500Y678665D02*
X537500Y678665D01*
X1705500Y678665D02*
X1709500Y678665D01*
X1724500Y678665D02*
X1729500Y678665D01*
X1747500Y678665D02*
X1752500Y678665D01*
X1780500Y678665D02*
X1784500Y678665D01*
X1920500Y678665D02*
X1927500Y678665D01*
X500Y677665D02*
X7500Y677665D01*
X65500Y677665D02*
X140500Y677665D01*
X254500Y677665D02*
X258500Y677665D01*
X274500Y677665D02*
X278500Y677665D01*
X404500Y677665D02*
X409500Y677665D01*
X420500Y677665D02*
X424500Y677665D01*
X499500Y677665D02*
X503500Y677665D01*
X516500Y677665D02*
X520500Y677665D01*
X528500Y677665D02*
X535500Y677665D01*
X1705500Y677665D02*
X1709500Y677665D01*
X1724500Y677665D02*
X1730500Y677665D01*
X1747500Y677665D02*
X1752500Y677665D01*
X1780500Y677665D02*
X1784500Y677665D01*
X1920500Y677665D02*
X1927500Y677665D01*
X500Y676665D02*
X7500Y676665D01*
X65500Y676665D02*
X141500Y676665D01*
X254500Y676665D02*
X258500Y676665D01*
X274500Y676665D02*
X278500Y676665D01*
X404500Y676665D02*
X409500Y676665D01*
X420500Y676665D02*
X424500Y676665D01*
X499500Y676665D02*
X503500Y676665D01*
X516500Y676665D02*
X520500Y676665D01*
X527500Y676665D02*
X534500Y676665D01*
X1705500Y676665D02*
X1710500Y676665D01*
X1725500Y676665D02*
X1730500Y676665D01*
X1748500Y676665D02*
X1753500Y676665D01*
X1780500Y676665D02*
X1784500Y676665D01*
X1920500Y676665D02*
X1927500Y676665D01*
X500Y675665D02*
X7500Y675665D01*
X65500Y675665D02*
X142500Y675665D01*
X254500Y675665D02*
X258500Y675665D01*
X274500Y675665D02*
X278500Y675665D01*
X404500Y675665D02*
X409500Y675665D01*
X420500Y675665D02*
X424500Y675665D01*
X499500Y675665D02*
X503500Y675665D01*
X516500Y675665D02*
X520500Y675665D01*
X526500Y675665D02*
X533500Y675665D01*
X1705500Y675665D02*
X1711500Y675665D01*
X1725500Y675665D02*
X1730500Y675665D01*
X1748500Y675665D02*
X1755500Y675665D01*
X1780500Y675665D02*
X1785500Y675665D01*
X1920500Y675665D02*
X1927500Y675665D01*
X500Y674665D02*
X7500Y674665D01*
X65500Y674665D02*
X142500Y674665D01*
X254500Y674665D02*
X258500Y674665D01*
X274500Y674665D02*
X278500Y674665D01*
X404500Y674665D02*
X409500Y674665D01*
X420500Y674665D02*
X424500Y674665D01*
X499500Y674665D02*
X503500Y674665D01*
X516500Y674665D02*
X520500Y674665D01*
X525500Y674665D02*
X532500Y674665D01*
X1706500Y674665D02*
X1730500Y674665D01*
X1749500Y674665D02*
X1767500Y674665D01*
X1780500Y674665D02*
X1804500Y674665D01*
X1920500Y674665D02*
X1927500Y674665D01*
X500Y673665D02*
X7500Y673665D01*
X65500Y673665D02*
X142500Y673665D01*
X254500Y673665D02*
X258500Y673665D01*
X273500Y673665D02*
X278500Y673665D01*
X404500Y673665D02*
X409500Y673665D01*
X420500Y673665D02*
X424500Y673665D01*
X499500Y673665D02*
X503500Y673665D01*
X516500Y673665D02*
X520500Y673665D01*
X524500Y673665D02*
X531500Y673665D01*
X1706500Y673665D02*
X1729500Y673665D01*
X1750500Y673665D02*
X1767500Y673665D01*
X1780500Y673665D02*
X1805500Y673665D01*
X1920500Y673665D02*
X1927500Y673665D01*
X500Y672665D02*
X7500Y672665D01*
X65500Y672665D02*
X142500Y672665D01*
X254500Y672665D02*
X278500Y672665D01*
X404500Y672665D02*
X409500Y672665D01*
X420500Y672665D02*
X424500Y672665D01*
X499500Y672665D02*
X503500Y672665D01*
X516500Y672665D02*
X520500Y672665D01*
X522500Y672665D02*
X530500Y672665D01*
X1707500Y672665D02*
X1728500Y672665D01*
X1751500Y672665D02*
X1767500Y672665D01*
X1780500Y672665D02*
X1805500Y672665D01*
X1920500Y672665D02*
X1927500Y672665D01*
X500Y671665D02*
X7500Y671665D01*
X65500Y671665D02*
X142500Y671665D01*
X254500Y671665D02*
X277500Y671665D01*
X404500Y671665D02*
X409500Y671665D01*
X420500Y671665D02*
X424500Y671665D01*
X499500Y671665D02*
X503500Y671665D01*
X516500Y671665D02*
X528500Y671665D01*
X1708500Y671665D02*
X1727500Y671665D01*
X1752500Y671665D02*
X1767500Y671665D01*
X1780500Y671665D02*
X1804500Y671665D01*
X1920500Y671665D02*
X1927500Y671665D01*
X500Y670665D02*
X7500Y670665D01*
X65500Y670665D02*
X141500Y670665D01*
X254500Y670665D02*
X277500Y670665D01*
X404500Y670665D02*
X409500Y670665D01*
X420500Y670665D02*
X424500Y670665D01*
X498500Y670665D02*
X503500Y670665D01*
X516500Y670665D02*
X527500Y670665D01*
X1710500Y670665D02*
X1725500Y670665D01*
X1754500Y670665D02*
X1766500Y670665D01*
X1780500Y670665D02*
X1803500Y670665D01*
X1920500Y670665D02*
X1927500Y670665D01*
X500Y669665D02*
X7500Y669665D01*
X65500Y669665D02*
X140500Y669665D01*
X254500Y669665D02*
X276500Y669665D01*
X404500Y669665D02*
X409500Y669665D01*
X420500Y669665D02*
X424500Y669665D01*
X497500Y669665D02*
X503500Y669665D01*
X516500Y669665D02*
X526500Y669665D01*
X1920500Y669665D02*
X1927500Y669665D01*
X500Y668665D02*
X7500Y668665D01*
X66500Y668665D02*
X138500Y668665D01*
X254500Y668665D02*
X274500Y668665D01*
X404500Y668665D02*
X409500Y668665D01*
X420500Y668665D02*
X424500Y668665D01*
X496500Y668665D02*
X503500Y668665D01*
X516500Y668665D02*
X525500Y668665D01*
X1920500Y668665D02*
X1927500Y668665D01*
X500Y667665D02*
X7500Y667665D01*
X254500Y667665D02*
X272500Y667665D01*
X404500Y667665D02*
X409500Y667665D01*
X420500Y667665D02*
X424500Y667665D01*
X495500Y667665D02*
X502500Y667665D01*
X516500Y667665D02*
X524500Y667665D01*
X1920500Y667665D02*
X1927500Y667665D01*
X500Y666665D02*
X7500Y666665D01*
X254500Y666665D02*
X258500Y666665D01*
X263500Y666665D02*
X268500Y666665D01*
X404500Y666665D02*
X409500Y666665D01*
X420500Y666665D02*
X424500Y666665D01*
X493500Y666665D02*
X500500Y666665D01*
X516500Y666665D02*
X522500Y666665D01*
X1920500Y666665D02*
X1927500Y666665D01*
X500Y665665D02*
X7500Y665665D01*
X254500Y665665D02*
X258500Y665665D01*
X263500Y665665D02*
X269500Y665665D01*
X329500Y665665D02*
X352500Y665665D01*
X404500Y665665D02*
X409500Y665665D01*
X420500Y665665D02*
X424500Y665665D01*
X492500Y665665D02*
X499500Y665665D01*
X516500Y665665D02*
X522500Y665665D01*
X1920500Y665665D02*
X1927500Y665665D01*
X500Y664665D02*
X7500Y664665D01*
X254500Y664665D02*
X258500Y664665D01*
X264500Y664665D02*
X269500Y664665D01*
X329500Y664665D02*
X353500Y664665D01*
X404500Y664665D02*
X409500Y664665D01*
X420500Y664665D02*
X424500Y664665D01*
X491500Y664665D02*
X498500Y664665D01*
X516500Y664665D02*
X523500Y664665D01*
X1920500Y664665D02*
X1927500Y664665D01*
X500Y663665D02*
X7500Y663665D01*
X254500Y663665D02*
X258500Y663665D01*
X265500Y663665D02*
X270500Y663665D01*
X329500Y663665D02*
X353500Y663665D01*
X404500Y663665D02*
X426500Y663665D01*
X490500Y663665D02*
X497500Y663665D01*
X516500Y663665D02*
X524500Y663665D01*
X1920500Y663665D02*
X1927500Y663665D01*
X500Y662665D02*
X7500Y662665D01*
X254500Y662665D02*
X258500Y662665D01*
X265500Y662665D02*
X270500Y662665D01*
X329500Y662665D02*
X353500Y662665D01*
X404500Y662665D02*
X427500Y662665D01*
X489500Y662665D02*
X496500Y662665D01*
X516500Y662665D02*
X525500Y662665D01*
X1920500Y662665D02*
X1927500Y662665D01*
X500Y661665D02*
X7500Y661665D01*
X254500Y661665D02*
X258500Y661665D01*
X266500Y661665D02*
X271500Y661665D01*
X330500Y661665D02*
X352500Y661665D01*
X404500Y661665D02*
X427500Y661665D01*
X489500Y661665D02*
X495500Y661665D01*
X516500Y661665D02*
X526500Y661665D01*
X1920500Y661665D02*
X1927500Y661665D01*
X500Y660665D02*
X7500Y660665D01*
X254500Y660665D02*
X258500Y660665D01*
X266500Y660665D02*
X271500Y660665D01*
X404500Y660665D02*
X427500Y660665D01*
X489500Y660665D02*
X493500Y660665D01*
X516500Y660665D02*
X527500Y660665D01*
X1920500Y660665D02*
X1927500Y660665D01*
X500Y659665D02*
X7500Y659665D01*
X254500Y659665D02*
X258500Y659665D01*
X267500Y659665D02*
X272500Y659665D01*
X404500Y659665D02*
X427500Y659665D01*
X489500Y659665D02*
X493500Y659665D01*
X516500Y659665D02*
X529500Y659665D01*
X1920500Y659665D02*
X1927500Y659665D01*
X500Y658665D02*
X7500Y658665D01*
X254500Y658665D02*
X258500Y658665D01*
X268500Y658665D02*
X273500Y658665D01*
X420500Y658665D02*
X424500Y658665D01*
X450500Y658665D02*
X457500Y658665D01*
X489500Y658665D02*
X493500Y658665D01*
X516500Y658665D02*
X520500Y658665D01*
X523500Y658665D02*
X530500Y658665D01*
X1920500Y658665D02*
X1927500Y658665D01*
X500Y657665D02*
X7500Y657665D01*
X254500Y657665D02*
X258500Y657665D01*
X268500Y657665D02*
X273500Y657665D01*
X420500Y657665D02*
X424500Y657665D01*
X449500Y657665D02*
X458500Y657665D01*
X489500Y657665D02*
X493500Y657665D01*
X516500Y657665D02*
X520500Y657665D01*
X524500Y657665D02*
X531500Y657665D01*
X1920500Y657665D02*
X1927500Y657665D01*
X500Y656665D02*
X7500Y656665D01*
X254500Y656665D02*
X258500Y656665D01*
X269500Y656665D02*
X274500Y656665D01*
X420500Y656665D02*
X424500Y656665D01*
X449500Y656665D02*
X458500Y656665D01*
X489500Y656665D02*
X493500Y656665D01*
X516500Y656665D02*
X520500Y656665D01*
X525500Y656665D02*
X532500Y656665D01*
X1920500Y656665D02*
X1927500Y656665D01*
X500Y655665D02*
X7500Y655665D01*
X254500Y655665D02*
X258500Y655665D01*
X269500Y655665D02*
X274500Y655665D01*
X420500Y655665D02*
X424500Y655665D01*
X449500Y655665D02*
X458500Y655665D01*
X489500Y655665D02*
X493500Y655665D01*
X516500Y655665D02*
X520500Y655665D01*
X526500Y655665D02*
X533500Y655665D01*
X1920500Y655665D02*
X1927500Y655665D01*
X500Y654665D02*
X7500Y654665D01*
X254500Y654665D02*
X258500Y654665D01*
X270500Y654665D02*
X275500Y654665D01*
X420500Y654665D02*
X424500Y654665D01*
X449500Y654665D02*
X458500Y654665D01*
X489500Y654665D02*
X493500Y654665D01*
X516500Y654665D02*
X520500Y654665D01*
X527500Y654665D02*
X534500Y654665D01*
X1920500Y654665D02*
X1927500Y654665D01*
X500Y653665D02*
X7500Y653665D01*
X254500Y653665D02*
X258500Y653665D01*
X270500Y653665D02*
X276500Y653665D01*
X420500Y653665D02*
X424500Y653665D01*
X449500Y653665D02*
X458500Y653665D01*
X489500Y653665D02*
X493500Y653665D01*
X516500Y653665D02*
X520500Y653665D01*
X529500Y653665D02*
X536500Y653665D01*
X1920500Y653665D02*
X1927500Y653665D01*
X500Y652665D02*
X7500Y652665D01*
X254500Y652665D02*
X258500Y652665D01*
X271500Y652665D02*
X276500Y652665D01*
X420500Y652665D02*
X424500Y652665D01*
X449500Y652665D02*
X458500Y652665D01*
X489500Y652665D02*
X493500Y652665D01*
X516500Y652665D02*
X520500Y652665D01*
X530500Y652665D02*
X537500Y652665D01*
X1920500Y652665D02*
X1927500Y652665D01*
X500Y651665D02*
X7500Y651665D01*
X254500Y651665D02*
X258500Y651665D01*
X272500Y651665D02*
X277500Y651665D01*
X420500Y651665D02*
X424500Y651665D01*
X449500Y651665D02*
X458500Y651665D01*
X489500Y651665D02*
X493500Y651665D01*
X516500Y651665D02*
X520500Y651665D01*
X531500Y651665D02*
X538500Y651665D01*
X1920500Y651665D02*
X1927500Y651665D01*
X500Y650665D02*
X7500Y650665D01*
X254500Y650665D02*
X258500Y650665D01*
X272500Y650665D02*
X277500Y650665D01*
X420500Y650665D02*
X424500Y650665D01*
X449500Y650665D02*
X458500Y650665D01*
X489500Y650665D02*
X493500Y650665D01*
X516500Y650665D02*
X520500Y650665D01*
X532500Y650665D02*
X539500Y650665D01*
X1920500Y650665D02*
X1927500Y650665D01*
X500Y649665D02*
X7500Y649665D01*
X254500Y649665D02*
X258500Y649665D01*
X273500Y649665D02*
X278500Y649665D01*
X420500Y649665D02*
X424500Y649665D01*
X450500Y649665D02*
X456500Y649665D01*
X489500Y649665D02*
X493500Y649665D01*
X516500Y649665D02*
X520500Y649665D01*
X533500Y649665D02*
X540500Y649665D01*
X1920500Y649665D02*
X1927500Y649665D01*
X500Y648665D02*
X7500Y648665D01*
X254500Y648665D02*
X258500Y648665D01*
X273500Y648665D02*
X278500Y648665D01*
X420500Y648665D02*
X424500Y648665D01*
X489500Y648665D02*
X493500Y648665D01*
X516500Y648665D02*
X520500Y648665D01*
X534500Y648665D02*
X541500Y648665D01*
X1920500Y648665D02*
X1927500Y648665D01*
X500Y647665D02*
X7500Y647665D01*
X254500Y647665D02*
X258500Y647665D01*
X274500Y647665D02*
X278500Y647665D01*
X420500Y647665D02*
X424500Y647665D01*
X489500Y647665D02*
X493500Y647665D01*
X516500Y647665D02*
X520500Y647665D01*
X536500Y647665D02*
X541500Y647665D01*
X1920500Y647665D02*
X1927500Y647665D01*
X500Y646665D02*
X7500Y646665D01*
X254500Y646665D02*
X257500Y646665D01*
X275500Y646665D02*
X278500Y646665D01*
X420500Y646665D02*
X424500Y646665D01*
X489500Y646665D02*
X492500Y646665D01*
X516500Y646665D02*
X519500Y646665D01*
X537500Y646665D02*
X540500Y646665D01*
X1920500Y646665D02*
X1927500Y646665D01*
X500Y645665D02*
X7500Y645665D01*
X136500Y645665D02*
X139500Y645665D01*
X256500Y645665D02*
X256500Y645665D01*
X276500Y645665D02*
X276500Y645665D01*
X422500Y645665D02*
X422500Y645665D01*
X491500Y645665D02*
X491500Y645665D01*
X518500Y645665D02*
X518500Y645665D01*
X538500Y645665D02*
X539500Y645665D01*
X1920500Y645665D02*
X1927500Y645665D01*
X500Y644665D02*
X7500Y644665D01*
X133500Y644665D02*
X141500Y644665D01*
X1920500Y644665D02*
X1927500Y644665D01*
X500Y643665D02*
X7500Y643665D01*
X130500Y643665D02*
X141500Y643665D01*
X1920500Y643665D02*
X1927500Y643665D01*
X500Y642665D02*
X7500Y642665D01*
X126500Y642665D02*
X142500Y642665D01*
X1920500Y642665D02*
X1927500Y642665D01*
X500Y641665D02*
X7500Y641665D01*
X123500Y641665D02*
X142500Y641665D01*
X1920500Y641665D02*
X1927500Y641665D01*
X500Y640665D02*
X7500Y640665D01*
X119500Y640665D02*
X142500Y640665D01*
X1920500Y640665D02*
X1927500Y640665D01*
X500Y639665D02*
X7500Y639665D01*
X116500Y639665D02*
X142500Y639665D01*
X1920500Y639665D02*
X1927500Y639665D01*
X500Y638665D02*
X7500Y638665D01*
X113500Y638665D02*
X142500Y638665D01*
X1920500Y638665D02*
X1927500Y638665D01*
X500Y637665D02*
X7500Y637665D01*
X109500Y637665D02*
X141500Y637665D01*
X1920500Y637665D02*
X1927500Y637665D01*
X500Y636665D02*
X7500Y636665D01*
X106500Y636665D02*
X140500Y636665D01*
X1920500Y636665D02*
X1927500Y636665D01*
X500Y635665D02*
X7500Y635665D01*
X102500Y635665D02*
X137500Y635665D01*
X1920500Y635665D02*
X1927500Y635665D01*
X500Y634665D02*
X7500Y634665D01*
X99500Y634665D02*
X134500Y634665D01*
X1920500Y634665D02*
X1927500Y634665D01*
X500Y633665D02*
X7500Y633665D01*
X95500Y633665D02*
X130500Y633665D01*
X1920500Y633665D02*
X1927500Y633665D01*
X500Y632665D02*
X7500Y632665D01*
X92500Y632665D02*
X127500Y632665D01*
X1920500Y632665D02*
X1927500Y632665D01*
X500Y631665D02*
X7500Y631665D01*
X89500Y631665D02*
X125500Y631665D01*
X1920500Y631665D02*
X1927500Y631665D01*
X500Y630665D02*
X7500Y630665D01*
X85500Y630665D02*
X125500Y630665D01*
X1920500Y630665D02*
X1927500Y630665D01*
X500Y629665D02*
X7500Y629665D01*
X82500Y629665D02*
X125500Y629665D01*
X1920500Y629665D02*
X1927500Y629665D01*
X500Y628665D02*
X7500Y628665D01*
X78500Y628665D02*
X113500Y628665D01*
X116500Y628665D02*
X125500Y628665D01*
X1920500Y628665D02*
X1927500Y628665D01*
X500Y627665D02*
X7500Y627665D01*
X75500Y627665D02*
X110500Y627665D01*
X116500Y627665D02*
X125500Y627665D01*
X1920500Y627665D02*
X1927500Y627665D01*
X500Y626665D02*
X7500Y626665D01*
X72500Y626665D02*
X107500Y626665D01*
X116500Y626665D02*
X125500Y626665D01*
X1920500Y626665D02*
X1927500Y626665D01*
X500Y625665D02*
X7500Y625665D01*
X68500Y625665D02*
X103500Y625665D01*
X116500Y625665D02*
X125500Y625665D01*
X1920500Y625665D02*
X1927500Y625665D01*
X500Y624665D02*
X7500Y624665D01*
X67500Y624665D02*
X100500Y624665D01*
X116500Y624665D02*
X125500Y624665D01*
X1920500Y624665D02*
X1927500Y624665D01*
X500Y623665D02*
X7500Y623665D01*
X66500Y623665D02*
X96500Y623665D01*
X116500Y623665D02*
X125500Y623665D01*
X1920500Y623665D02*
X1927500Y623665D01*
X500Y622665D02*
X7500Y622665D01*
X66500Y622665D02*
X93500Y622665D01*
X116500Y622665D02*
X125500Y622665D01*
X1920500Y622665D02*
X1927500Y622665D01*
X500Y621665D02*
X7500Y621665D01*
X65500Y621665D02*
X89500Y621665D01*
X116500Y621665D02*
X125500Y621665D01*
X1920500Y621665D02*
X1927500Y621665D01*
X500Y620665D02*
X7500Y620665D01*
X65500Y620665D02*
X89500Y620665D01*
X116500Y620665D02*
X125500Y620665D01*
X1920500Y620665D02*
X1927500Y620665D01*
X500Y619665D02*
X7500Y619665D01*
X65500Y619665D02*
X92500Y619665D01*
X116500Y619665D02*
X125500Y619665D01*
X1920500Y619665D02*
X1927500Y619665D01*
X500Y618665D02*
X7500Y618665D01*
X66500Y618665D02*
X95500Y618665D01*
X116500Y618665D02*
X125500Y618665D01*
X1920500Y618665D02*
X1927500Y618665D01*
X500Y617665D02*
X7500Y617665D01*
X66500Y617665D02*
X99500Y617665D01*
X116500Y617665D02*
X125500Y617665D01*
X1920500Y617665D02*
X1927500Y617665D01*
X500Y616665D02*
X7500Y616665D01*
X68500Y616665D02*
X102500Y616665D01*
X116500Y616665D02*
X125500Y616665D01*
X1920500Y616665D02*
X1927500Y616665D01*
X500Y615665D02*
X7500Y615665D01*
X71500Y615665D02*
X106500Y615665D01*
X116500Y615665D02*
X125500Y615665D01*
X1920500Y615665D02*
X1927500Y615665D01*
X500Y614665D02*
X7500Y614665D01*
X74500Y614665D02*
X109500Y614665D01*
X116500Y614665D02*
X125500Y614665D01*
X1920500Y614665D02*
X1927500Y614665D01*
X500Y613665D02*
X7500Y613665D01*
X77500Y613665D02*
X112500Y613665D01*
X116500Y613665D02*
X125500Y613665D01*
X1920500Y613665D02*
X1927500Y613665D01*
X500Y612665D02*
X7500Y612665D01*
X81500Y612665D02*
X125500Y612665D01*
X1920500Y612665D02*
X1927500Y612665D01*
X500Y611665D02*
X7500Y611665D01*
X84500Y611665D02*
X125500Y611665D01*
X1920500Y611665D02*
X1927500Y611665D01*
X500Y610665D02*
X7500Y610665D01*
X88500Y610665D02*
X125500Y610665D01*
X1920500Y610665D02*
X1927500Y610665D01*
X500Y609665D02*
X7500Y609665D01*
X91500Y609665D02*
X126500Y609665D01*
X1920500Y609665D02*
X1927500Y609665D01*
X500Y608665D02*
X7500Y608665D01*
X94500Y608665D02*
X129500Y608665D01*
X1712500Y608665D02*
X1729500Y608665D01*
X1746500Y608665D02*
X1761500Y608665D01*
X1795500Y608665D02*
X1797500Y608665D01*
X1920500Y608665D02*
X1927500Y608665D01*
X500Y607665D02*
X7500Y607665D01*
X98500Y607665D02*
X133500Y607665D01*
X1710500Y607665D02*
X1731500Y607665D01*
X1745500Y607665D02*
X1763500Y607665D01*
X1794500Y607665D02*
X1798500Y607665D01*
X1920500Y607665D02*
X1927500Y607665D01*
X500Y606665D02*
X7500Y606665D01*
X101500Y606665D02*
X136500Y606665D01*
X1710500Y606665D02*
X1732500Y606665D01*
X1745500Y606665D02*
X1764500Y606665D01*
X1794500Y606665D02*
X1798500Y606665D01*
X1920500Y606665D02*
X1927500Y606665D01*
X500Y605665D02*
X7500Y605665D01*
X105500Y605665D02*
X139500Y605665D01*
X1709500Y605665D02*
X1732500Y605665D01*
X1745500Y605665D02*
X1765500Y605665D01*
X1793500Y605665D02*
X1798500Y605665D01*
X1920500Y605665D02*
X1927500Y605665D01*
X500Y604665D02*
X7500Y604665D01*
X108500Y604665D02*
X141500Y604665D01*
X1709500Y604665D02*
X1733500Y604665D01*
X1746500Y604665D02*
X1765500Y604665D01*
X1793500Y604665D02*
X1799500Y604665D01*
X1920500Y604665D02*
X1927500Y604665D01*
X500Y603665D02*
X7500Y603665D01*
X111500Y603665D02*
X142500Y603665D01*
X1709500Y603665D02*
X1713500Y603665D01*
X1728500Y603665D02*
X1733500Y603665D01*
X1750500Y603665D02*
X1755500Y603665D01*
X1760500Y603665D02*
X1766500Y603665D01*
X1793500Y603665D02*
X1799500Y603665D01*
X1920500Y603665D02*
X1927500Y603665D01*
X500Y602665D02*
X7500Y602665D01*
X115500Y602665D02*
X142500Y602665D01*
X1709500Y602665D02*
X1713500Y602665D01*
X1729500Y602665D02*
X1733500Y602665D01*
X1750500Y602665D02*
X1755500Y602665D01*
X1761500Y602665D02*
X1766500Y602665D01*
X1792500Y602665D02*
X1799500Y602665D01*
X1920500Y602665D02*
X1927500Y602665D01*
X500Y601665D02*
X7500Y601665D01*
X118500Y601665D02*
X142500Y601665D01*
X1709500Y601665D02*
X1714500Y601665D01*
X1729500Y601665D02*
X1733500Y601665D01*
X1750500Y601665D02*
X1755500Y601665D01*
X1762500Y601665D02*
X1767500Y601665D01*
X1792500Y601665D02*
X1800500Y601665D01*
X1920500Y601665D02*
X1927500Y601665D01*
X500Y600665D02*
X7500Y600665D01*
X122500Y600665D02*
X142500Y600665D01*
X1709500Y600665D02*
X1715500Y600665D01*
X1730500Y600665D02*
X1733500Y600665D01*
X1750500Y600665D02*
X1755500Y600665D01*
X1762500Y600665D02*
X1767500Y600665D01*
X1792500Y600665D02*
X1800500Y600665D01*
X1920500Y600665D02*
X1927500Y600665D01*
X500Y599665D02*
X7500Y599665D01*
X125500Y599665D02*
X142500Y599665D01*
X1710500Y599665D02*
X1716500Y599665D01*
X1750500Y599665D02*
X1755500Y599665D01*
X1763500Y599665D02*
X1768500Y599665D01*
X1792500Y599665D02*
X1800500Y599665D01*
X1920500Y599665D02*
X1927500Y599665D01*
X500Y598665D02*
X7500Y598665D01*
X128500Y598665D02*
X142500Y598665D01*
X1711500Y598665D02*
X1716500Y598665D01*
X1750500Y598665D02*
X1755500Y598665D01*
X1763500Y598665D02*
X1768500Y598665D01*
X1791500Y598665D02*
X1800500Y598665D01*
X1920500Y598665D02*
X1927500Y598665D01*
X500Y597665D02*
X7500Y597665D01*
X132500Y597665D02*
X141500Y597665D01*
X1711500Y597665D02*
X1717500Y597665D01*
X1750500Y597665D02*
X1755500Y597665D01*
X1764500Y597665D02*
X1769500Y597665D01*
X1791500Y597665D02*
X1801500Y597665D01*
X1920500Y597665D02*
X1927500Y597665D01*
X500Y596665D02*
X7500Y596665D01*
X135500Y596665D02*
X140500Y596665D01*
X1712500Y596665D02*
X1718500Y596665D01*
X1750500Y596665D02*
X1755500Y596665D01*
X1764500Y596665D02*
X1769500Y596665D01*
X1791500Y596665D02*
X1801500Y596665D01*
X1920500Y596665D02*
X1927500Y596665D01*
X500Y595665D02*
X7500Y595665D01*
X1713500Y595665D02*
X1719500Y595665D01*
X1750500Y595665D02*
X1755500Y595665D01*
X1765500Y595665D02*
X1770500Y595665D01*
X1790500Y595665D02*
X1795500Y595665D01*
X1797500Y595665D02*
X1801500Y595665D01*
X1920500Y595665D02*
X1927500Y595665D01*
X500Y594665D02*
X7500Y594665D01*
X1714500Y594665D02*
X1719500Y594665D01*
X1750500Y594665D02*
X1755500Y594665D01*
X1765500Y594665D02*
X1770500Y594665D01*
X1790500Y594665D02*
X1795500Y594665D01*
X1797500Y594665D02*
X1802500Y594665D01*
X1920500Y594665D02*
X1927500Y594665D01*
X500Y593665D02*
X7500Y593665D01*
X1715500Y593665D02*
X1720500Y593665D01*
X1750500Y593665D02*
X1755500Y593665D01*
X1766500Y593665D02*
X1771500Y593665D01*
X1790500Y593665D02*
X1794500Y593665D01*
X1797500Y593665D02*
X1802500Y593665D01*
X1920500Y593665D02*
X1927500Y593665D01*
X500Y592665D02*
X7500Y592665D01*
X1715500Y592665D02*
X1721500Y592665D01*
X1750500Y592665D02*
X1755500Y592665D01*
X1766500Y592665D02*
X1771500Y592665D01*
X1789500Y592665D02*
X1794500Y592665D01*
X1798500Y592665D02*
X1802500Y592665D01*
X1920500Y592665D02*
X1927500Y592665D01*
X500Y591665D02*
X7500Y591665D01*
X1716500Y591665D02*
X1722500Y591665D01*
X1750500Y591665D02*
X1755500Y591665D01*
X1767500Y591665D02*
X1771500Y591665D01*
X1789500Y591665D02*
X1794500Y591665D01*
X1798500Y591665D02*
X1803500Y591665D01*
X1920500Y591665D02*
X1927500Y591665D01*
X500Y590665D02*
X7500Y590665D01*
X1717500Y590665D02*
X1723500Y590665D01*
X1750500Y590665D02*
X1755500Y590665D01*
X1767500Y590665D02*
X1771500Y590665D01*
X1789500Y590665D02*
X1793500Y590665D01*
X1798500Y590665D02*
X1803500Y590665D01*
X1920500Y590665D02*
X1927500Y590665D01*
X500Y589665D02*
X7500Y589665D01*
X251500Y589665D02*
X317500Y589665D01*
X518500Y589665D02*
X565500Y589665D01*
X1718500Y589665D02*
X1723500Y589665D01*
X1750500Y589665D02*
X1755500Y589665D01*
X1767500Y589665D02*
X1771500Y589665D01*
X1789500Y589665D02*
X1793500Y589665D01*
X1799500Y589665D02*
X1803500Y589665D01*
X1920500Y589665D02*
X1927500Y589665D01*
X500Y588665D02*
X7500Y588665D01*
X251500Y588665D02*
X317500Y588665D01*
X518500Y588665D02*
X565500Y588665D01*
X1718500Y588665D02*
X1724500Y588665D01*
X1750500Y588665D02*
X1755500Y588665D01*
X1767500Y588665D02*
X1771500Y588665D01*
X1788500Y588665D02*
X1793500Y588665D01*
X1799500Y588665D02*
X1803500Y588665D01*
X1920500Y588665D02*
X1927500Y588665D01*
X500Y587665D02*
X7500Y587665D01*
X251500Y587665D02*
X317500Y587665D01*
X518500Y587665D02*
X565500Y587665D01*
X1719500Y587665D02*
X1725500Y587665D01*
X1750500Y587665D02*
X1755500Y587665D01*
X1767500Y587665D02*
X1771500Y587665D01*
X1788500Y587665D02*
X1793500Y587665D01*
X1799500Y587665D02*
X1804500Y587665D01*
X1920500Y587665D02*
X1927500Y587665D01*
X500Y586665D02*
X7500Y586665D01*
X251500Y586665D02*
X317500Y586665D01*
X518500Y586665D02*
X565500Y586665D01*
X1720500Y586665D02*
X1726500Y586665D01*
X1750500Y586665D02*
X1755500Y586665D01*
X1767500Y586665D02*
X1771500Y586665D01*
X1788500Y586665D02*
X1792500Y586665D01*
X1800500Y586665D02*
X1804500Y586665D01*
X1920500Y586665D02*
X1927500Y586665D01*
X500Y585665D02*
X7500Y585665D01*
X251500Y585665D02*
X317500Y585665D01*
X518500Y585665D02*
X565500Y585665D01*
X1721500Y585665D02*
X1726500Y585665D01*
X1750500Y585665D02*
X1755500Y585665D01*
X1766500Y585665D02*
X1771500Y585665D01*
X1787500Y585665D02*
X1792500Y585665D01*
X1800500Y585665D02*
X1804500Y585665D01*
X1920500Y585665D02*
X1927500Y585665D01*
X500Y584665D02*
X7500Y584665D01*
X251500Y584665D02*
X317500Y584665D01*
X518500Y584665D02*
X565500Y584665D01*
X1721500Y584665D02*
X1727500Y584665D01*
X1750500Y584665D02*
X1755500Y584665D01*
X1766500Y584665D02*
X1771500Y584665D01*
X1787500Y584665D02*
X1792500Y584665D01*
X1800500Y584665D02*
X1805500Y584665D01*
X1920500Y584665D02*
X1927500Y584665D01*
X500Y583665D02*
X7500Y583665D01*
X251500Y583665D02*
X317500Y583665D01*
X518500Y583665D02*
X565500Y583665D01*
X1722500Y583665D02*
X1728500Y583665D01*
X1750500Y583665D02*
X1755500Y583665D01*
X1765500Y583665D02*
X1770500Y583665D01*
X1787500Y583665D02*
X1791500Y583665D01*
X1800500Y583665D02*
X1805500Y583665D01*
X1920500Y583665D02*
X1927500Y583665D01*
X500Y582665D02*
X7500Y582665D01*
X251500Y582665D02*
X317500Y582665D01*
X518500Y582665D02*
X565500Y582665D01*
X1723500Y582665D02*
X1729500Y582665D01*
X1750500Y582665D02*
X1755500Y582665D01*
X1765500Y582665D02*
X1770500Y582665D01*
X1787500Y582665D02*
X1805500Y582665D01*
X1920500Y582665D02*
X1927500Y582665D01*
X500Y581665D02*
X7500Y581665D01*
X251500Y581665D02*
X317500Y581665D01*
X518500Y581665D02*
X565500Y581665D01*
X1724500Y581665D02*
X1730500Y581665D01*
X1750500Y581665D02*
X1755500Y581665D01*
X1764500Y581665D02*
X1769500Y581665D01*
X1786500Y581665D02*
X1805500Y581665D01*
X1920500Y581665D02*
X1927500Y581665D01*
X500Y580665D02*
X7500Y580665D01*
X250500Y580665D02*
X316500Y580665D01*
X518500Y580665D02*
X565500Y580665D01*
X1725500Y580665D02*
X1730500Y580665D01*
X1750500Y580665D02*
X1755500Y580665D01*
X1764500Y580665D02*
X1769500Y580665D01*
X1786500Y580665D02*
X1806500Y580665D01*
X1920500Y580665D02*
X1927500Y580665D01*
X500Y579665D02*
X7500Y579665D01*
X1725500Y579665D02*
X1731500Y579665D01*
X1750500Y579665D02*
X1755500Y579665D01*
X1763500Y579665D02*
X1768500Y579665D01*
X1786500Y579665D02*
X1806500Y579665D01*
X1920500Y579665D02*
X1927500Y579665D01*
X500Y578665D02*
X7500Y578665D01*
X1726500Y578665D02*
X1732500Y578665D01*
X1750500Y578665D02*
X1755500Y578665D01*
X1763500Y578665D02*
X1768500Y578665D01*
X1785500Y578665D02*
X1806500Y578665D01*
X1920500Y578665D02*
X1927500Y578665D01*
X500Y577665D02*
X7500Y577665D01*
X1709500Y577665D02*
X1712500Y577665D01*
X1727500Y577665D02*
X1732500Y577665D01*
X1750500Y577665D02*
X1755500Y577665D01*
X1762500Y577665D02*
X1767500Y577665D01*
X1785500Y577665D02*
X1790500Y577665D01*
X1802500Y577665D02*
X1807500Y577665D01*
X1920500Y577665D02*
X1927500Y577665D01*
X500Y576665D02*
X7500Y576665D01*
X1709500Y576665D02*
X1713500Y576665D01*
X1728500Y576665D02*
X1733500Y576665D01*
X1750500Y576665D02*
X1755500Y576665D01*
X1762500Y576665D02*
X1767500Y576665D01*
X1785500Y576665D02*
X1789500Y576665D01*
X1802500Y576665D02*
X1807500Y576665D01*
X1920500Y576665D02*
X1927500Y576665D01*
X500Y575665D02*
X7500Y575665D01*
X1709500Y575665D02*
X1713500Y575665D01*
X1728500Y575665D02*
X1733500Y575665D01*
X1750500Y575665D02*
X1755500Y575665D01*
X1761500Y575665D02*
X1766500Y575665D01*
X1785500Y575665D02*
X1789500Y575665D01*
X1803500Y575665D02*
X1807500Y575665D01*
X1920500Y575665D02*
X1927500Y575665D01*
X500Y574665D02*
X7500Y574665D01*
X1709500Y574665D02*
X1713500Y574665D01*
X1729500Y574665D02*
X1733500Y574665D01*
X1750500Y574665D02*
X1755500Y574665D01*
X1760500Y574665D02*
X1766500Y574665D01*
X1784500Y574665D02*
X1789500Y574665D01*
X1803500Y574665D02*
X1808500Y574665D01*
X1920500Y574665D02*
X1927500Y574665D01*
X500Y573665D02*
X7500Y573665D01*
X1709500Y573665D02*
X1733500Y573665D01*
X1746500Y573665D02*
X1765500Y573665D01*
X1784500Y573665D02*
X1788500Y573665D01*
X1803500Y573665D02*
X1808500Y573665D01*
X1920500Y573665D02*
X1927500Y573665D01*
X500Y572665D02*
X7500Y572665D01*
X135500Y572665D02*
X140500Y572665D01*
X1709500Y572665D02*
X1733500Y572665D01*
X1745500Y572665D02*
X1765500Y572665D01*
X1784500Y572665D02*
X1788500Y572665D01*
X1804500Y572665D02*
X1808500Y572665D01*
X1920500Y572665D02*
X1927500Y572665D01*
X500Y571665D02*
X7500Y571665D01*
X134500Y571665D02*
X141500Y571665D01*
X1710500Y571665D02*
X1732500Y571665D01*
X1745500Y571665D02*
X1764500Y571665D01*
X1783500Y571665D02*
X1788500Y571665D01*
X1804500Y571665D02*
X1808500Y571665D01*
X1920500Y571665D02*
X1927500Y571665D01*
X500Y570665D02*
X7500Y570665D01*
X134500Y570665D02*
X142500Y570665D01*
X1711500Y570665D02*
X1731500Y570665D01*
X1745500Y570665D02*
X1763500Y570665D01*
X1784500Y570665D02*
X1787500Y570665D01*
X1804500Y570665D02*
X1808500Y570665D01*
X1920500Y570665D02*
X1927500Y570665D01*
X500Y569665D02*
X7500Y569665D01*
X133500Y569665D02*
X142500Y569665D01*
X1712500Y569665D02*
X1730500Y569665D01*
X1746500Y569665D02*
X1761500Y569665D01*
X1784500Y569665D02*
X1787500Y569665D01*
X1805500Y569665D02*
X1807500Y569665D01*
X1920500Y569665D02*
X1927500Y569665D01*
X500Y568665D02*
X7500Y568665D01*
X133500Y568665D02*
X142500Y568665D01*
X1920500Y568665D02*
X1927500Y568665D01*
X500Y567665D02*
X7500Y567665D01*
X133500Y567665D02*
X142500Y567665D01*
X1920500Y567665D02*
X1927500Y567665D01*
X500Y566665D02*
X7500Y566665D01*
X133500Y566665D02*
X142500Y566665D01*
X1920500Y566665D02*
X1927500Y566665D01*
X500Y565665D02*
X7500Y565665D01*
X133500Y565665D02*
X142500Y565665D01*
X1920500Y565665D02*
X1927500Y565665D01*
X500Y564665D02*
X7500Y564665D01*
X133500Y564665D02*
X142500Y564665D01*
X1920500Y564665D02*
X1927500Y564665D01*
X500Y563665D02*
X7500Y563665D01*
X133500Y563665D02*
X142500Y563665D01*
X1920500Y563665D02*
X1927500Y563665D01*
X500Y562665D02*
X7500Y562665D01*
X133500Y562665D02*
X142500Y562665D01*
X1920500Y562665D02*
X1927500Y562665D01*
X500Y561665D02*
X7500Y561665D01*
X133500Y561665D02*
X142500Y561665D01*
X1920500Y561665D02*
X1927500Y561665D01*
X500Y560665D02*
X7500Y560665D01*
X133500Y560665D02*
X142500Y560665D01*
X1920500Y560665D02*
X1927500Y560665D01*
X500Y559665D02*
X7500Y559665D01*
X133500Y559665D02*
X142500Y559665D01*
X1920500Y559665D02*
X1927500Y559665D01*
X500Y558665D02*
X7500Y558665D01*
X133500Y558665D02*
X142500Y558665D01*
X1920500Y558665D02*
X1927500Y558665D01*
X500Y557665D02*
X7500Y557665D01*
X133500Y557665D02*
X142500Y557665D01*
X1920500Y557665D02*
X1927500Y557665D01*
X500Y556665D02*
X7500Y556665D01*
X133500Y556665D02*
X142500Y556665D01*
X1920500Y556665D02*
X1927500Y556665D01*
X500Y555665D02*
X7500Y555665D01*
X133500Y555665D02*
X142500Y555665D01*
X1920500Y555665D02*
X1927500Y555665D01*
X500Y554665D02*
X7500Y554665D01*
X133500Y554665D02*
X142500Y554665D01*
X1920500Y554665D02*
X1927500Y554665D01*
X500Y553665D02*
X7500Y553665D01*
X133500Y553665D02*
X142500Y553665D01*
X1920500Y553665D02*
X1927500Y553665D01*
X500Y552665D02*
X7500Y552665D01*
X133500Y552665D02*
X142500Y552665D01*
X1920500Y552665D02*
X1927500Y552665D01*
X500Y551665D02*
X7500Y551665D01*
X133500Y551665D02*
X142500Y551665D01*
X1920500Y551665D02*
X1927500Y551665D01*
X500Y550665D02*
X7500Y550665D01*
X133500Y550665D02*
X142500Y550665D01*
X1920500Y550665D02*
X1927500Y550665D01*
X500Y549665D02*
X7500Y549665D01*
X133500Y549665D02*
X142500Y549665D01*
X1920500Y549665D02*
X1927500Y549665D01*
X500Y548665D02*
X7500Y548665D01*
X133500Y548665D02*
X142500Y548665D01*
X1920500Y548665D02*
X1927500Y548665D01*
X500Y547665D02*
X7500Y547665D01*
X133500Y547665D02*
X142500Y547665D01*
X1920500Y547665D02*
X1927500Y547665D01*
X500Y546665D02*
X7500Y546665D01*
X133500Y546665D02*
X142500Y546665D01*
X1920500Y546665D02*
X1927500Y546665D01*
X500Y545665D02*
X7500Y545665D01*
X133500Y545665D02*
X142500Y545665D01*
X1920500Y545665D02*
X1927500Y545665D01*
X500Y544665D02*
X7500Y544665D01*
X133500Y544665D02*
X142500Y544665D01*
X1920500Y544665D02*
X1927500Y544665D01*
X500Y543665D02*
X7500Y543665D01*
X133500Y543665D02*
X142500Y543665D01*
X1920500Y543665D02*
X1927500Y543665D01*
X500Y542665D02*
X7500Y542665D01*
X133500Y542665D02*
X142500Y542665D01*
X1920500Y542665D02*
X1927500Y542665D01*
X500Y541665D02*
X7500Y541665D01*
X133500Y541665D02*
X142500Y541665D01*
X1920500Y541665D02*
X1927500Y541665D01*
X500Y540665D02*
X7500Y540665D01*
X133500Y540665D02*
X142500Y540665D01*
X1920500Y540665D02*
X1927500Y540665D01*
X500Y539665D02*
X7500Y539665D01*
X133500Y539665D02*
X142500Y539665D01*
X1920500Y539665D02*
X1927500Y539665D01*
X500Y538665D02*
X7500Y538665D01*
X133500Y538665D02*
X142500Y538665D01*
X1920500Y538665D02*
X1927500Y538665D01*
X500Y537665D02*
X7500Y537665D01*
X133500Y537665D02*
X142500Y537665D01*
X1920500Y537665D02*
X1927500Y537665D01*
X500Y536665D02*
X7500Y536665D01*
X133500Y536665D02*
X142500Y536665D01*
X1920500Y536665D02*
X1927500Y536665D01*
X500Y535665D02*
X7500Y535665D01*
X133500Y535665D02*
X142500Y535665D01*
X1920500Y535665D02*
X1927500Y535665D01*
X500Y534665D02*
X7500Y534665D01*
X133500Y534665D02*
X142500Y534665D01*
X1920500Y534665D02*
X1927500Y534665D01*
X500Y533665D02*
X7500Y533665D01*
X69500Y533665D02*
X142500Y533665D01*
X1920500Y533665D02*
X1927500Y533665D01*
X500Y532665D02*
X7500Y532665D01*
X67500Y532665D02*
X142500Y532665D01*
X1920500Y532665D02*
X1927500Y532665D01*
X500Y531665D02*
X7500Y531665D01*
X66500Y531665D02*
X142500Y531665D01*
X1920500Y531665D02*
X1927500Y531665D01*
X500Y530665D02*
X7500Y530665D01*
X66500Y530665D02*
X142500Y530665D01*
X1920500Y530665D02*
X1927500Y530665D01*
X500Y529665D02*
X7500Y529665D01*
X65500Y529665D02*
X142500Y529665D01*
X1920500Y529665D02*
X1927500Y529665D01*
X500Y528665D02*
X7500Y528665D01*
X65500Y528665D02*
X142500Y528665D01*
X1920500Y528665D02*
X1927500Y528665D01*
X500Y527665D02*
X7500Y527665D01*
X66500Y527665D02*
X142500Y527665D01*
X1920500Y527665D02*
X1927500Y527665D01*
X500Y526665D02*
X7500Y526665D01*
X66500Y526665D02*
X142500Y526665D01*
X1920500Y526665D02*
X1927500Y526665D01*
X500Y525665D02*
X7500Y525665D01*
X67500Y525665D02*
X142500Y525665D01*
X1920500Y525665D02*
X1927500Y525665D01*
X500Y524665D02*
X7500Y524665D01*
X68500Y524665D02*
X142500Y524665D01*
X1920500Y524665D02*
X1927500Y524665D01*
X500Y523665D02*
X7500Y523665D01*
X1920500Y523665D02*
X1927500Y523665D01*
X500Y522665D02*
X7500Y522665D01*
X1920500Y522665D02*
X1927500Y522665D01*
X500Y521665D02*
X7500Y521665D01*
X1920500Y521665D02*
X1927500Y521665D01*
X500Y520665D02*
X7500Y520665D01*
X1920500Y520665D02*
X1927500Y520665D01*
X500Y519665D02*
X7500Y519665D01*
X1716500Y519665D02*
X1727500Y519665D01*
X1741500Y519665D02*
X1746500Y519665D01*
X1762500Y519665D02*
X1764500Y519665D01*
X1778500Y519665D02*
X1792500Y519665D01*
X1920500Y519665D02*
X1927500Y519665D01*
X500Y518665D02*
X7500Y518665D01*
X1714500Y518665D02*
X1727500Y518665D01*
X1740500Y518665D02*
X1747500Y518665D01*
X1761500Y518665D02*
X1765500Y518665D01*
X1777500Y518665D02*
X1794500Y518665D01*
X1920500Y518665D02*
X1927500Y518665D01*
X500Y517665D02*
X7500Y517665D01*
X1713500Y517665D02*
X1728500Y517665D01*
X1740500Y517665D02*
X1747500Y517665D01*
X1761500Y517665D02*
X1765500Y517665D01*
X1777500Y517665D02*
X1796500Y517665D01*
X1920500Y517665D02*
X1927500Y517665D01*
X500Y516665D02*
X7500Y516665D01*
X1712500Y516665D02*
X1728500Y516665D01*
X1740500Y516665D02*
X1748500Y516665D01*
X1761500Y516665D02*
X1765500Y516665D01*
X1777500Y516665D02*
X1796500Y516665D01*
X1920500Y516665D02*
X1927500Y516665D01*
X500Y515665D02*
X7500Y515665D01*
X1711500Y515665D02*
X1727500Y515665D01*
X1740500Y515665D02*
X1748500Y515665D01*
X1761500Y515665D02*
X1765500Y515665D01*
X1778500Y515665D02*
X1797500Y515665D01*
X1920500Y515665D02*
X1927500Y515665D01*
X500Y514665D02*
X7500Y514665D01*
X1709500Y514665D02*
X1716500Y514665D01*
X1740500Y514665D02*
X1749500Y514665D01*
X1761500Y514665D02*
X1765500Y514665D01*
X1782500Y514665D02*
X1787500Y514665D01*
X1792500Y514665D02*
X1797500Y514665D01*
X1920500Y514665D02*
X1927500Y514665D01*
X500Y513665D02*
X7500Y513665D01*
X1708500Y513665D02*
X1715500Y513665D01*
X1740500Y513665D02*
X1749500Y513665D01*
X1761500Y513665D02*
X1765500Y513665D01*
X1782500Y513665D02*
X1786500Y513665D01*
X1793500Y513665D02*
X1798500Y513665D01*
X1920500Y513665D02*
X1927500Y513665D01*
X500Y512665D02*
X7500Y512665D01*
X1707500Y512665D02*
X1714500Y512665D01*
X1740500Y512665D02*
X1750500Y512665D01*
X1761500Y512665D02*
X1765500Y512665D01*
X1782500Y512665D02*
X1786500Y512665D01*
X1794500Y512665D02*
X1798500Y512665D01*
X1920500Y512665D02*
X1927500Y512665D01*
X500Y511665D02*
X7500Y511665D01*
X1706500Y511665D02*
X1713500Y511665D01*
X1740500Y511665D02*
X1750500Y511665D01*
X1761500Y511665D02*
X1765500Y511665D01*
X1782500Y511665D02*
X1786500Y511665D01*
X1794500Y511665D02*
X1799500Y511665D01*
X1920500Y511665D02*
X1927500Y511665D01*
X500Y510665D02*
X7500Y510665D01*
X1705500Y510665D02*
X1712500Y510665D01*
X1740500Y510665D02*
X1750500Y510665D01*
X1761500Y510665D02*
X1765500Y510665D01*
X1782500Y510665D02*
X1786500Y510665D01*
X1795500Y510665D02*
X1799500Y510665D01*
X1920500Y510665D02*
X1927500Y510665D01*
X500Y509665D02*
X7500Y509665D01*
X1704500Y509665D02*
X1711500Y509665D01*
X1740500Y509665D02*
X1751500Y509665D01*
X1761500Y509665D02*
X1765500Y509665D01*
X1782500Y509665D02*
X1786500Y509665D01*
X1795500Y509665D02*
X1800500Y509665D01*
X1920500Y509665D02*
X1927500Y509665D01*
X500Y508665D02*
X7500Y508665D01*
X1704500Y508665D02*
X1709500Y508665D01*
X1740500Y508665D02*
X1745500Y508665D01*
X1747500Y508665D02*
X1751500Y508665D01*
X1761500Y508665D02*
X1765500Y508665D01*
X1782500Y508665D02*
X1786500Y508665D01*
X1796500Y508665D02*
X1800500Y508665D01*
X1920500Y508665D02*
X1927500Y508665D01*
X500Y507665D02*
X7500Y507665D01*
X1703500Y507665D02*
X1708500Y507665D01*
X1740500Y507665D02*
X1745500Y507665D01*
X1747500Y507665D02*
X1752500Y507665D01*
X1761500Y507665D02*
X1765500Y507665D01*
X1782500Y507665D02*
X1786500Y507665D01*
X1796500Y507665D02*
X1801500Y507665D01*
X1920500Y507665D02*
X1927500Y507665D01*
X500Y506665D02*
X7500Y506665D01*
X1703500Y506665D02*
X1708500Y506665D01*
X1740500Y506665D02*
X1745500Y506665D01*
X1747500Y506665D02*
X1752500Y506665D01*
X1761500Y506665D02*
X1765500Y506665D01*
X1782500Y506665D02*
X1786500Y506665D01*
X1797500Y506665D02*
X1801500Y506665D01*
X1920500Y506665D02*
X1927500Y506665D01*
X500Y505665D02*
X7500Y505665D01*
X1703500Y505665D02*
X1707500Y505665D01*
X1740500Y505665D02*
X1745500Y505665D01*
X1748500Y505665D02*
X1753500Y505665D01*
X1761500Y505665D02*
X1765500Y505665D01*
X1782500Y505665D02*
X1786500Y505665D01*
X1797500Y505665D02*
X1802500Y505665D01*
X1920500Y505665D02*
X1927500Y505665D01*
X500Y504665D02*
X7500Y504665D01*
X1703500Y504665D02*
X1707500Y504665D01*
X1740500Y504665D02*
X1745500Y504665D01*
X1748500Y504665D02*
X1753500Y504665D01*
X1761500Y504665D02*
X1765500Y504665D01*
X1782500Y504665D02*
X1786500Y504665D01*
X1798500Y504665D02*
X1802500Y504665D01*
X1920500Y504665D02*
X1927500Y504665D01*
X500Y503665D02*
X7500Y503665D01*
X1703500Y503665D02*
X1707500Y503665D01*
X1740500Y503665D02*
X1745500Y503665D01*
X1749500Y503665D02*
X1754500Y503665D01*
X1761500Y503665D02*
X1765500Y503665D01*
X1782500Y503665D02*
X1786500Y503665D01*
X1798500Y503665D02*
X1803500Y503665D01*
X1920500Y503665D02*
X1927500Y503665D01*
X500Y502665D02*
X7500Y502665D01*
X1703500Y502665D02*
X1707500Y502665D01*
X1740500Y502665D02*
X1745500Y502665D01*
X1749500Y502665D02*
X1754500Y502665D01*
X1761500Y502665D02*
X1765500Y502665D01*
X1782500Y502665D02*
X1786500Y502665D01*
X1799500Y502665D02*
X1803500Y502665D01*
X1920500Y502665D02*
X1927500Y502665D01*
X500Y501665D02*
X7500Y501665D01*
X1703500Y501665D02*
X1707500Y501665D01*
X1740500Y501665D02*
X1745500Y501665D01*
X1750500Y501665D02*
X1754500Y501665D01*
X1761500Y501665D02*
X1765500Y501665D01*
X1782500Y501665D02*
X1786500Y501665D01*
X1799500Y501665D02*
X1803500Y501665D01*
X1920500Y501665D02*
X1927500Y501665D01*
X500Y500665D02*
X7500Y500665D01*
X99500Y500665D02*
X108500Y500665D01*
X1703500Y500665D02*
X1707500Y500665D01*
X1740500Y500665D02*
X1745500Y500665D01*
X1750500Y500665D02*
X1755500Y500665D01*
X1761500Y500665D02*
X1765500Y500665D01*
X1782500Y500665D02*
X1786500Y500665D01*
X1799500Y500665D02*
X1803500Y500665D01*
X1920500Y500665D02*
X1927500Y500665D01*
X500Y499665D02*
X7500Y499665D01*
X96500Y499665D02*
X112500Y499665D01*
X1703500Y499665D02*
X1707500Y499665D01*
X1715500Y499665D02*
X1726500Y499665D01*
X1740500Y499665D02*
X1745500Y499665D01*
X1751500Y499665D02*
X1755500Y499665D01*
X1761500Y499665D02*
X1765500Y499665D01*
X1782500Y499665D02*
X1786500Y499665D01*
X1799500Y499665D02*
X1803500Y499665D01*
X1920500Y499665D02*
X1927500Y499665D01*
X500Y498665D02*
X7500Y498665D01*
X94500Y498665D02*
X114500Y498665D01*
X1703500Y498665D02*
X1707500Y498665D01*
X1714500Y498665D02*
X1727500Y498665D01*
X1740500Y498665D02*
X1745500Y498665D01*
X1751500Y498665D02*
X1756500Y498665D01*
X1761500Y498665D02*
X1765500Y498665D01*
X1782500Y498665D02*
X1786500Y498665D01*
X1799500Y498665D02*
X1803500Y498665D01*
X1920500Y498665D02*
X1927500Y498665D01*
X500Y497665D02*
X7500Y497665D01*
X92500Y497665D02*
X116500Y497665D01*
X1703500Y497665D02*
X1707500Y497665D01*
X1714500Y497665D02*
X1728500Y497665D01*
X1740500Y497665D02*
X1745500Y497665D01*
X1751500Y497665D02*
X1756500Y497665D01*
X1761500Y497665D02*
X1765500Y497665D01*
X1782500Y497665D02*
X1786500Y497665D01*
X1799500Y497665D02*
X1803500Y497665D01*
X1920500Y497665D02*
X1927500Y497665D01*
X500Y496665D02*
X7500Y496665D01*
X90500Y496665D02*
X118500Y496665D01*
X1703500Y496665D02*
X1707500Y496665D01*
X1714500Y496665D02*
X1728500Y496665D01*
X1740500Y496665D02*
X1745500Y496665D01*
X1752500Y496665D02*
X1757500Y496665D01*
X1761500Y496665D02*
X1765500Y496665D01*
X1782500Y496665D02*
X1786500Y496665D01*
X1798500Y496665D02*
X1803500Y496665D01*
X1920500Y496665D02*
X1927500Y496665D01*
X500Y495665D02*
X7500Y495665D01*
X88500Y495665D02*
X120500Y495665D01*
X1703500Y495665D02*
X1707500Y495665D01*
X1715500Y495665D02*
X1728500Y495665D01*
X1740500Y495665D02*
X1745500Y495665D01*
X1752500Y495665D02*
X1757500Y495665D01*
X1761500Y495665D02*
X1765500Y495665D01*
X1782500Y495665D02*
X1786500Y495665D01*
X1798500Y495665D02*
X1803500Y495665D01*
X1920500Y495665D02*
X1927500Y495665D01*
X500Y494665D02*
X7500Y494665D01*
X86500Y494665D02*
X122500Y494665D01*
X1703500Y494665D02*
X1707500Y494665D01*
X1723500Y494665D02*
X1728500Y494665D01*
X1740500Y494665D02*
X1745500Y494665D01*
X1753500Y494665D02*
X1757500Y494665D01*
X1761500Y494665D02*
X1765500Y494665D01*
X1782500Y494665D02*
X1786500Y494665D01*
X1797500Y494665D02*
X1802500Y494665D01*
X1920500Y494665D02*
X1927500Y494665D01*
X500Y493665D02*
X7500Y493665D01*
X84500Y493665D02*
X124500Y493665D01*
X1703500Y493665D02*
X1707500Y493665D01*
X1724500Y493665D02*
X1728500Y493665D01*
X1740500Y493665D02*
X1745500Y493665D01*
X1753500Y493665D02*
X1758500Y493665D01*
X1761500Y493665D02*
X1765500Y493665D01*
X1782500Y493665D02*
X1786500Y493665D01*
X1797500Y493665D02*
X1802500Y493665D01*
X1920500Y493665D02*
X1927500Y493665D01*
X500Y492665D02*
X7500Y492665D01*
X82500Y492665D02*
X126500Y492665D01*
X1703500Y492665D02*
X1707500Y492665D01*
X1724500Y492665D02*
X1728500Y492665D01*
X1740500Y492665D02*
X1745500Y492665D01*
X1754500Y492665D02*
X1758500Y492665D01*
X1761500Y492665D02*
X1765500Y492665D01*
X1782500Y492665D02*
X1786500Y492665D01*
X1796500Y492665D02*
X1801500Y492665D01*
X1920500Y492665D02*
X1927500Y492665D01*
X500Y491665D02*
X7500Y491665D01*
X80500Y491665D02*
X128500Y491665D01*
X1703500Y491665D02*
X1707500Y491665D01*
X1724500Y491665D02*
X1728500Y491665D01*
X1740500Y491665D02*
X1745500Y491665D01*
X1754500Y491665D02*
X1759500Y491665D01*
X1761500Y491665D02*
X1765500Y491665D01*
X1782500Y491665D02*
X1786500Y491665D01*
X1796500Y491665D02*
X1801500Y491665D01*
X1920500Y491665D02*
X1927500Y491665D01*
X500Y490665D02*
X7500Y490665D01*
X78500Y490665D02*
X100500Y490665D01*
X108500Y490665D02*
X130500Y490665D01*
X1703500Y490665D02*
X1707500Y490665D01*
X1724500Y490665D02*
X1728500Y490665D01*
X1740500Y490665D02*
X1745500Y490665D01*
X1754500Y490665D02*
X1759500Y490665D01*
X1761500Y490665D02*
X1765500Y490665D01*
X1782500Y490665D02*
X1786500Y490665D01*
X1795500Y490665D02*
X1800500Y490665D01*
X1920500Y490665D02*
X1927500Y490665D01*
X500Y489665D02*
X7500Y489665D01*
X76500Y489665D02*
X97500Y489665D01*
X110500Y489665D02*
X132500Y489665D01*
X251500Y489665D02*
X317500Y489665D01*
X518500Y489665D02*
X565500Y489665D01*
X1703500Y489665D02*
X1707500Y489665D01*
X1724500Y489665D02*
X1728500Y489665D01*
X1740500Y489665D02*
X1745500Y489665D01*
X1755500Y489665D02*
X1765500Y489665D01*
X1782500Y489665D02*
X1786500Y489665D01*
X1795500Y489665D02*
X1800500Y489665D01*
X1920500Y489665D02*
X1927500Y489665D01*
X500Y488665D02*
X7500Y488665D01*
X74500Y488665D02*
X95500Y488665D01*
X112500Y488665D02*
X134500Y488665D01*
X251500Y488665D02*
X317500Y488665D01*
X518500Y488665D02*
X565500Y488665D01*
X1703500Y488665D02*
X1707500Y488665D01*
X1724500Y488665D02*
X1728500Y488665D01*
X1740500Y488665D02*
X1745500Y488665D01*
X1755500Y488665D02*
X1765500Y488665D01*
X1782500Y488665D02*
X1786500Y488665D01*
X1794500Y488665D02*
X1799500Y488665D01*
X1920500Y488665D02*
X1927500Y488665D01*
X500Y487665D02*
X7500Y487665D01*
X72500Y487665D02*
X93500Y487665D01*
X114500Y487665D02*
X136500Y487665D01*
X251500Y487665D02*
X317500Y487665D01*
X518500Y487665D02*
X565500Y487665D01*
X1703500Y487665D02*
X1707500Y487665D01*
X1724500Y487665D02*
X1728500Y487665D01*
X1740500Y487665D02*
X1745500Y487665D01*
X1756500Y487665D02*
X1765500Y487665D01*
X1782500Y487665D02*
X1786500Y487665D01*
X1794500Y487665D02*
X1799500Y487665D01*
X1920500Y487665D02*
X1927500Y487665D01*
X500Y486665D02*
X7500Y486665D01*
X70500Y486665D02*
X91500Y486665D01*
X116500Y486665D02*
X137500Y486665D01*
X251500Y486665D02*
X317500Y486665D01*
X518500Y486665D02*
X565500Y486665D01*
X1703500Y486665D02*
X1707500Y486665D01*
X1723500Y486665D02*
X1728500Y486665D01*
X1740500Y486665D02*
X1745500Y486665D01*
X1756500Y486665D02*
X1765500Y486665D01*
X1782500Y486665D02*
X1786500Y486665D01*
X1793500Y486665D02*
X1798500Y486665D01*
X1920500Y486665D02*
X1927500Y486665D01*
X500Y485665D02*
X7500Y485665D01*
X69500Y485665D02*
X89500Y485665D01*
X118500Y485665D02*
X138500Y485665D01*
X251500Y485665D02*
X317500Y485665D01*
X518500Y485665D02*
X565500Y485665D01*
X1703500Y485665D02*
X1708500Y485665D01*
X1723500Y485665D02*
X1727500Y485665D01*
X1740500Y485665D02*
X1745500Y485665D01*
X1757500Y485665D02*
X1765500Y485665D01*
X1782500Y485665D02*
X1786500Y485665D01*
X1792500Y485665D02*
X1798500Y485665D01*
X1920500Y485665D02*
X1927500Y485665D01*
X500Y484665D02*
X7500Y484665D01*
X68500Y484665D02*
X87500Y484665D01*
X120500Y484665D02*
X139500Y484665D01*
X251500Y484665D02*
X317500Y484665D01*
X518500Y484665D02*
X565500Y484665D01*
X1704500Y484665D02*
X1727500Y484665D01*
X1740500Y484665D02*
X1745500Y484665D01*
X1757500Y484665D02*
X1765500Y484665D01*
X1779500Y484665D02*
X1797500Y484665D01*
X1920500Y484665D02*
X1927500Y484665D01*
X500Y483665D02*
X7500Y483665D01*
X68500Y483665D02*
X85500Y483665D01*
X122500Y483665D02*
X140500Y483665D01*
X251500Y483665D02*
X317500Y483665D01*
X518500Y483665D02*
X565500Y483665D01*
X1704500Y483665D02*
X1727500Y483665D01*
X1740500Y483665D02*
X1745500Y483665D01*
X1758500Y483665D02*
X1765500Y483665D01*
X1777500Y483665D02*
X1797500Y483665D01*
X1920500Y483665D02*
X1927500Y483665D01*
X500Y482665D02*
X7500Y482665D01*
X67500Y482665D02*
X83500Y482665D01*
X124500Y482665D02*
X141500Y482665D01*
X251500Y482665D02*
X317500Y482665D01*
X518500Y482665D02*
X565500Y482665D01*
X1705500Y482665D02*
X1726500Y482665D01*
X1740500Y482665D02*
X1745500Y482665D01*
X1758500Y482665D02*
X1765500Y482665D01*
X1777500Y482665D02*
X1796500Y482665D01*
X1920500Y482665D02*
X1927500Y482665D01*
X500Y481665D02*
X7500Y481665D01*
X67500Y481665D02*
X81500Y481665D01*
X126500Y481665D02*
X141500Y481665D01*
X251500Y481665D02*
X317500Y481665D01*
X518500Y481665D02*
X565500Y481665D01*
X1706500Y481665D02*
X1725500Y481665D01*
X1741500Y481665D02*
X1745500Y481665D01*
X1758500Y481665D02*
X1765500Y481665D01*
X1777500Y481665D02*
X1795500Y481665D01*
X1920500Y481665D02*
X1927500Y481665D01*
X500Y480665D02*
X7500Y480665D01*
X66500Y480665D02*
X79500Y480665D01*
X128500Y480665D02*
X141500Y480665D01*
X250500Y480665D02*
X316500Y480665D01*
X518500Y480665D02*
X565500Y480665D01*
X1707500Y480665D02*
X1723500Y480665D01*
X1741500Y480665D02*
X1744500Y480665D01*
X1759500Y480665D02*
X1765500Y480665D01*
X1778500Y480665D02*
X1794500Y480665D01*
X1920500Y480665D02*
X1927500Y480665D01*
X500Y479665D02*
X7500Y479665D01*
X66500Y479665D02*
X77500Y479665D01*
X130500Y479665D02*
X142500Y479665D01*
X1920500Y479665D02*
X1927500Y479665D01*
X500Y478665D02*
X7500Y478665D01*
X66500Y478665D02*
X76500Y478665D01*
X132500Y478665D02*
X142500Y478665D01*
X1920500Y478665D02*
X1927500Y478665D01*
X500Y477665D02*
X7500Y477665D01*
X65500Y477665D02*
X75500Y477665D01*
X133500Y477665D02*
X142500Y477665D01*
X1920500Y477665D02*
X1927500Y477665D01*
X500Y476665D02*
X7500Y476665D01*
X65500Y476665D02*
X74500Y476665D01*
X133500Y476665D02*
X142500Y476665D01*
X1920500Y476665D02*
X1927500Y476665D01*
X500Y475665D02*
X7500Y475665D01*
X65500Y475665D02*
X74500Y475665D01*
X133500Y475665D02*
X142500Y475665D01*
X1920500Y475665D02*
X1927500Y475665D01*
X500Y474665D02*
X7500Y474665D01*
X65500Y474665D02*
X75500Y474665D01*
X133500Y474665D02*
X142500Y474665D01*
X1920500Y474665D02*
X1927500Y474665D01*
X500Y473665D02*
X7500Y473665D01*
X66500Y473665D02*
X76500Y473665D01*
X131500Y473665D02*
X142500Y473665D01*
X1920500Y473665D02*
X1927500Y473665D01*
X500Y472665D02*
X7500Y472665D01*
X66500Y472665D02*
X78500Y472665D01*
X129500Y472665D02*
X142500Y472665D01*
X1920500Y472665D02*
X1927500Y472665D01*
X500Y471665D02*
X7500Y471665D01*
X66500Y471665D02*
X80500Y471665D01*
X127500Y471665D02*
X141500Y471665D01*
X1920500Y471665D02*
X1927500Y471665D01*
X500Y470665D02*
X7500Y470665D01*
X67500Y470665D02*
X82500Y470665D01*
X125500Y470665D02*
X141500Y470665D01*
X1920500Y470665D02*
X1927500Y470665D01*
X500Y469665D02*
X7500Y469665D01*
X67500Y469665D02*
X84500Y469665D01*
X123500Y469665D02*
X140500Y469665D01*
X1920500Y469665D02*
X1927500Y469665D01*
X500Y468665D02*
X7500Y468665D01*
X68500Y468665D02*
X86500Y468665D01*
X121500Y468665D02*
X140500Y468665D01*
X1920500Y468665D02*
X1927500Y468665D01*
X500Y467665D02*
X7500Y467665D01*
X69500Y467665D02*
X88500Y467665D01*
X120500Y467665D02*
X139500Y467665D01*
X1920500Y467665D02*
X1927500Y467665D01*
X500Y466665D02*
X7500Y466665D01*
X70500Y466665D02*
X90500Y466665D01*
X118500Y466665D02*
X138500Y466665D01*
X1920500Y466665D02*
X1927500Y466665D01*
X500Y465665D02*
X7500Y465665D01*
X71500Y465665D02*
X92500Y465665D01*
X116500Y465665D02*
X137500Y465665D01*
X1920500Y465665D02*
X1927500Y465665D01*
X500Y464665D02*
X7500Y464665D01*
X72500Y464665D02*
X94500Y464665D01*
X114500Y464665D02*
X135500Y464665D01*
X1920500Y464665D02*
X1927500Y464665D01*
X500Y463665D02*
X7500Y463665D01*
X74500Y463665D02*
X96500Y463665D01*
X112500Y463665D02*
X133500Y463665D01*
X1920500Y463665D02*
X1927500Y463665D01*
X500Y462665D02*
X7500Y462665D01*
X76500Y462665D02*
X98500Y462665D01*
X109500Y462665D02*
X131500Y462665D01*
X1920500Y462665D02*
X1927500Y462665D01*
X500Y461665D02*
X7500Y461665D01*
X78500Y461665D02*
X103500Y461665D01*
X105500Y461665D02*
X129500Y461665D01*
X1920500Y461665D02*
X1927500Y461665D01*
X500Y460665D02*
X7500Y460665D01*
X80500Y460665D02*
X127500Y460665D01*
X1920500Y460665D02*
X1927500Y460665D01*
X500Y459665D02*
X7500Y459665D01*
X82500Y459665D02*
X125500Y459665D01*
X1920500Y459665D02*
X1927500Y459665D01*
X500Y458665D02*
X7500Y458665D01*
X84500Y458665D02*
X123500Y458665D01*
X1920500Y458665D02*
X1927500Y458665D01*
X500Y457665D02*
X7500Y457665D01*
X86500Y457665D02*
X121500Y457665D01*
X1920500Y457665D02*
X1927500Y457665D01*
X500Y456665D02*
X7500Y456665D01*
X88500Y456665D02*
X119500Y456665D01*
X1920500Y456665D02*
X1927500Y456665D01*
X500Y455665D02*
X7500Y455665D01*
X90500Y455665D02*
X117500Y455665D01*
X1920500Y455665D02*
X1927500Y455665D01*
X500Y454665D02*
X7500Y454665D01*
X92500Y454665D02*
X115500Y454665D01*
X1920500Y454665D02*
X1927500Y454665D01*
X500Y453665D02*
X7500Y453665D01*
X94500Y453665D02*
X113500Y453665D01*
X1920500Y453665D02*
X1927500Y453665D01*
X500Y452665D02*
X7500Y452665D01*
X97500Y452665D02*
X110500Y452665D01*
X1920500Y452665D02*
X1927500Y452665D01*
X500Y451665D02*
X7500Y451665D01*
X102500Y451665D02*
X106500Y451665D01*
X1920500Y451665D02*
X1927500Y451665D01*
X500Y450665D02*
X7500Y450665D01*
X1920500Y450665D02*
X1927500Y450665D01*
X500Y449665D02*
X7500Y449665D01*
X1920500Y449665D02*
X1927500Y449665D01*
X500Y448665D02*
X7500Y448665D01*
X1920500Y448665D02*
X1927500Y448665D01*
X500Y447665D02*
X7500Y447665D01*
X1920500Y447665D02*
X1927500Y447665D01*
X500Y446665D02*
X7500Y446665D01*
X1920500Y446665D02*
X1927500Y446665D01*
X500Y445665D02*
X7500Y445665D01*
X1920500Y445665D02*
X1927500Y445665D01*
X500Y444665D02*
X7500Y444665D01*
X1920500Y444665D02*
X1927500Y444665D01*
X500Y443665D02*
X7500Y443665D01*
X1920500Y443665D02*
X1927500Y443665D01*
X500Y442665D02*
X7500Y442665D01*
X1920500Y442665D02*
X1927500Y442665D01*
X500Y441665D02*
X7500Y441665D01*
X1920500Y441665D02*
X1927500Y441665D01*
X500Y440665D02*
X7500Y440665D01*
X1920500Y440665D02*
X1927500Y440665D01*
X500Y439665D02*
X7500Y439665D01*
X1920500Y439665D02*
X1927500Y439665D01*
X500Y438665D02*
X7500Y438665D01*
X1920500Y438665D02*
X1927500Y438665D01*
X500Y437665D02*
X7500Y437665D01*
X1920500Y437665D02*
X1927500Y437665D01*
X500Y436665D02*
X7500Y436665D01*
X1920500Y436665D02*
X1927500Y436665D01*
X500Y435665D02*
X7500Y435665D01*
X1920500Y435665D02*
X1927500Y435665D01*
X500Y434665D02*
X7500Y434665D01*
X1920500Y434665D02*
X1927500Y434665D01*
X500Y433665D02*
X7500Y433665D01*
X1920500Y433665D02*
X1927500Y433665D01*
X500Y432665D02*
X7500Y432665D01*
X1920500Y432665D02*
X1927500Y432665D01*
X500Y431665D02*
X7500Y431665D01*
X1920500Y431665D02*
X1927500Y431665D01*
X500Y430665D02*
X7500Y430665D01*
X1920500Y430665D02*
X1927500Y430665D01*
X500Y429665D02*
X7500Y429665D01*
X1920500Y429665D02*
X1927500Y429665D01*
X500Y428665D02*
X7500Y428665D01*
X1920500Y428665D02*
X1927500Y428665D01*
X500Y427665D02*
X7500Y427665D01*
X1920500Y427665D02*
X1927500Y427665D01*
X500Y426665D02*
X7500Y426665D01*
X1920500Y426665D02*
X1927500Y426665D01*
X500Y425665D02*
X7500Y425665D01*
X1920500Y425665D02*
X1927500Y425665D01*
X500Y424665D02*
X7500Y424665D01*
X1920500Y424665D02*
X1927500Y424665D01*
X500Y423665D02*
X7500Y423665D01*
X1920500Y423665D02*
X1927500Y423665D01*
X500Y422665D02*
X7500Y422665D01*
X1920500Y422665D02*
X1927500Y422665D01*
X500Y421665D02*
X7500Y421665D01*
X1920500Y421665D02*
X1927500Y421665D01*
X500Y420665D02*
X7500Y420665D01*
X1920500Y420665D02*
X1927500Y420665D01*
X500Y419665D02*
X7500Y419665D01*
X1920500Y419665D02*
X1927500Y419665D01*
X500Y418665D02*
X7500Y418665D01*
X1920500Y418665D02*
X1927500Y418665D01*
X500Y417665D02*
X7500Y417665D01*
X1920500Y417665D02*
X1927500Y417665D01*
X500Y416665D02*
X7500Y416665D01*
X1920500Y416665D02*
X1927500Y416665D01*
X500Y415665D02*
X7500Y415665D01*
X1920500Y415665D02*
X1927500Y415665D01*
X500Y414665D02*
X7500Y414665D01*
X1920500Y414665D02*
X1927500Y414665D01*
X500Y413665D02*
X7500Y413665D01*
X1920500Y413665D02*
X1927500Y413665D01*
X500Y412665D02*
X7500Y412665D01*
X1920500Y412665D02*
X1927500Y412665D01*
X500Y411665D02*
X7500Y411665D01*
X1920500Y411665D02*
X1927500Y411665D01*
X500Y410665D02*
X7500Y410665D01*
X1920500Y410665D02*
X1927500Y410665D01*
X500Y409665D02*
X7500Y409665D01*
X1920500Y409665D02*
X1927500Y409665D01*
X500Y408665D02*
X7500Y408665D01*
X1920500Y408665D02*
X1927500Y408665D01*
X500Y407665D02*
X7500Y407665D01*
X1920500Y407665D02*
X1927500Y407665D01*
X500Y406665D02*
X7500Y406665D01*
X1920500Y406665D02*
X1927500Y406665D01*
X500Y405665D02*
X7500Y405665D01*
X1920500Y405665D02*
X1927500Y405665D01*
X500Y404665D02*
X7500Y404665D01*
X1920500Y404665D02*
X1927500Y404665D01*
X500Y403665D02*
X7500Y403665D01*
X1920500Y403665D02*
X1927500Y403665D01*
X500Y402665D02*
X7500Y402665D01*
X1920500Y402665D02*
X1927500Y402665D01*
X500Y401665D02*
X7500Y401665D01*
X1920500Y401665D02*
X1927500Y401665D01*
X500Y400665D02*
X7500Y400665D01*
X1920500Y400665D02*
X1927500Y400665D01*
X500Y399665D02*
X7500Y399665D01*
X1920500Y399665D02*
X1927500Y399665D01*
X500Y398665D02*
X7500Y398665D01*
X1920500Y398665D02*
X1927500Y398665D01*
X500Y397665D02*
X7500Y397665D01*
X1920500Y397665D02*
X1927500Y397665D01*
X500Y396665D02*
X7500Y396665D01*
X1920500Y396665D02*
X1927500Y396665D01*
X500Y395665D02*
X7500Y395665D01*
X1920500Y395665D02*
X1927500Y395665D01*
X500Y394665D02*
X7500Y394665D01*
X1920500Y394665D02*
X1927500Y394665D01*
X500Y393665D02*
X7500Y393665D01*
X1920500Y393665D02*
X1927500Y393665D01*
X500Y392665D02*
X7500Y392665D01*
X1920500Y392665D02*
X1927500Y392665D01*
X500Y391665D02*
X7500Y391665D01*
X1920500Y391665D02*
X1927500Y391665D01*
X500Y390665D02*
X7500Y390665D01*
X1920500Y390665D02*
X1927500Y390665D01*
X500Y389665D02*
X7500Y389665D01*
X1920500Y389665D02*
X1927500Y389665D01*
X500Y388665D02*
X7500Y388665D01*
X1920500Y388665D02*
X1927500Y388665D01*
X500Y387665D02*
X7500Y387665D01*
X1920500Y387665D02*
X1927500Y387665D01*
X500Y386665D02*
X7500Y386665D01*
X1920500Y386665D02*
X1927500Y386665D01*
X500Y385665D02*
X7500Y385665D01*
X1920500Y385665D02*
X1927500Y385665D01*
X500Y384665D02*
X7500Y384665D01*
X1920500Y384665D02*
X1927500Y384665D01*
X500Y383665D02*
X7500Y383665D01*
X1920500Y383665D02*
X1927500Y383665D01*
X500Y382665D02*
X7500Y382665D01*
X1920500Y382665D02*
X1927500Y382665D01*
X500Y381665D02*
X7500Y381665D01*
X1920500Y381665D02*
X1927500Y381665D01*
X500Y380665D02*
X7500Y380665D01*
X1920500Y380665D02*
X1927500Y380665D01*
X500Y379665D02*
X7500Y379665D01*
X1920500Y379665D02*
X1927500Y379665D01*
X500Y378665D02*
X7500Y378665D01*
X1920500Y378665D02*
X1927500Y378665D01*
X500Y377665D02*
X7500Y377665D01*
X1920500Y377665D02*
X1927500Y377665D01*
X500Y376665D02*
X7500Y376665D01*
X1920500Y376665D02*
X1927500Y376665D01*
X500Y375665D02*
X7500Y375665D01*
X1920500Y375665D02*
X1927500Y375665D01*
X500Y374665D02*
X7500Y374665D01*
X1920500Y374665D02*
X1927500Y374665D01*
X500Y373665D02*
X7500Y373665D01*
X1920500Y373665D02*
X1927500Y373665D01*
X500Y372665D02*
X7500Y372665D01*
X1920500Y372665D02*
X1927500Y372665D01*
X500Y371665D02*
X7500Y371665D01*
X1920500Y371665D02*
X1927500Y371665D01*
X500Y370665D02*
X7500Y370665D01*
X1920500Y370665D02*
X1927500Y370665D01*
X500Y369665D02*
X7500Y369665D01*
X1920500Y369665D02*
X1927500Y369665D01*
X500Y368665D02*
X7500Y368665D01*
X1920500Y368665D02*
X1927500Y368665D01*
X500Y367665D02*
X7500Y367665D01*
X1920500Y367665D02*
X1927500Y367665D01*
X500Y366665D02*
X7500Y366665D01*
X1920500Y366665D02*
X1927500Y366665D01*
X500Y365665D02*
X7500Y365665D01*
X1920500Y365665D02*
X1927500Y365665D01*
X500Y364665D02*
X7500Y364665D01*
X1920500Y364665D02*
X1927500Y364665D01*
X500Y363665D02*
X7500Y363665D01*
X1920500Y363665D02*
X1927500Y363665D01*
X500Y362665D02*
X7500Y362665D01*
X1920500Y362665D02*
X1927500Y362665D01*
X500Y361665D02*
X7500Y361665D01*
X1920500Y361665D02*
X1927500Y361665D01*
X500Y360665D02*
X7500Y360665D01*
X1920500Y360665D02*
X1927500Y360665D01*
X500Y359665D02*
X7500Y359665D01*
X1920500Y359665D02*
X1927500Y359665D01*
X500Y358665D02*
X7500Y358665D01*
X1920500Y358665D02*
X1927500Y358665D01*
X500Y357665D02*
X7500Y357665D01*
X1920500Y357665D02*
X1927500Y357665D01*
X500Y356665D02*
X7500Y356665D01*
X1920500Y356665D02*
X1927500Y356665D01*
X500Y355665D02*
X7500Y355665D01*
X1920500Y355665D02*
X1927500Y355665D01*
X500Y354665D02*
X7500Y354665D01*
X1920500Y354665D02*
X1927500Y354665D01*
X500Y353665D02*
X7500Y353665D01*
X1920500Y353665D02*
X1927500Y353665D01*
X500Y352665D02*
X7500Y352665D01*
X1920500Y352665D02*
X1927500Y352665D01*
X500Y351665D02*
X7500Y351665D01*
X1920500Y351665D02*
X1927500Y351665D01*
X500Y350665D02*
X7500Y350665D01*
X1920500Y350665D02*
X1927500Y350665D01*
X500Y349665D02*
X7500Y349665D01*
X1920500Y349665D02*
X1927500Y349665D01*
X500Y348665D02*
X7500Y348665D01*
X1920500Y348665D02*
X1927500Y348665D01*
X500Y347665D02*
X7500Y347665D01*
X1920500Y347665D02*
X1927500Y347665D01*
X500Y346665D02*
X7500Y346665D01*
X1920500Y346665D02*
X1927500Y346665D01*
X500Y345665D02*
X7500Y345665D01*
X1920500Y345665D02*
X1927500Y345665D01*
X500Y344665D02*
X7500Y344665D01*
X1920500Y344665D02*
X1927500Y344665D01*
X500Y343665D02*
X7500Y343665D01*
X1920500Y343665D02*
X1927500Y343665D01*
X500Y342665D02*
X7500Y342665D01*
X1920500Y342665D02*
X1927500Y342665D01*
X500Y341665D02*
X7500Y341665D01*
X1920500Y341665D02*
X1927500Y341665D01*
X500Y340665D02*
X7500Y340665D01*
X1920500Y340665D02*
X1927500Y340665D01*
X500Y339665D02*
X7500Y339665D01*
X1920500Y339665D02*
X1927500Y339665D01*
X500Y338665D02*
X7500Y338665D01*
X1920500Y338665D02*
X1927500Y338665D01*
X500Y337665D02*
X7500Y337665D01*
X1920500Y337665D02*
X1927500Y337665D01*
X500Y336665D02*
X7500Y336665D01*
X791500Y336665D02*
X791500Y336665D01*
X991500Y336665D02*
X991500Y336665D01*
X1190500Y336665D02*
X1191500Y336665D01*
X1390500Y336665D02*
X1391500Y336665D01*
X1590500Y336665D02*
X1591500Y336665D01*
X1920500Y336665D02*
X1927500Y336665D01*
X500Y335665D02*
X7500Y335665D01*
X790500Y335665D02*
X792500Y335665D01*
X990500Y335665D02*
X992500Y335665D01*
X1189500Y335665D02*
X1192500Y335665D01*
X1389500Y335665D02*
X1392500Y335665D01*
X1589500Y335665D02*
X1592500Y335665D01*
X1920500Y335665D02*
X1927500Y335665D01*
X500Y334665D02*
X7500Y334665D01*
X789500Y334665D02*
X793500Y334665D01*
X989500Y334665D02*
X993500Y334665D01*
X1188500Y334665D02*
X1193500Y334665D01*
X1388500Y334665D02*
X1393500Y334665D01*
X1588500Y334665D02*
X1593500Y334665D01*
X1920500Y334665D02*
X1927500Y334665D01*
X500Y333665D02*
X7500Y333665D01*
X788500Y333665D02*
X794500Y333665D01*
X988500Y333665D02*
X994500Y333665D01*
X1187500Y333665D02*
X1193500Y333665D01*
X1387500Y333665D02*
X1393500Y333665D01*
X1587500Y333665D02*
X1593500Y333665D01*
X1920500Y333665D02*
X1927500Y333665D01*
X500Y332665D02*
X7500Y332665D01*
X787500Y332665D02*
X793500Y332665D01*
X987500Y332665D02*
X993500Y332665D01*
X1186500Y332665D02*
X1193500Y332665D01*
X1386500Y332665D02*
X1392500Y332665D01*
X1586500Y332665D02*
X1592500Y332665D01*
X1920500Y332665D02*
X1927500Y332665D01*
X500Y331665D02*
X7500Y331665D01*
X786500Y331665D02*
X792500Y331665D01*
X986500Y331665D02*
X992500Y331665D01*
X1185500Y331665D02*
X1192500Y331665D01*
X1385500Y331665D02*
X1391500Y331665D01*
X1585500Y331665D02*
X1591500Y331665D01*
X1920500Y331665D02*
X1927500Y331665D01*
X500Y330665D02*
X7500Y330665D01*
X785500Y330665D02*
X791500Y330665D01*
X985500Y330665D02*
X991500Y330665D01*
X1184500Y330665D02*
X1191500Y330665D01*
X1384500Y330665D02*
X1390500Y330665D01*
X1584500Y330665D02*
X1590500Y330665D01*
X1920500Y330665D02*
X1927500Y330665D01*
X500Y329665D02*
X7500Y329665D01*
X1920500Y329665D02*
X1927500Y329665D01*
X500Y328665D02*
X7500Y328665D01*
X1920500Y328665D02*
X1927500Y328665D01*
X500Y327665D02*
X7500Y327665D01*
X1920500Y327665D02*
X1927500Y327665D01*
X500Y326665D02*
X7500Y326665D01*
X1920500Y326665D02*
X1927500Y326665D01*
X500Y325665D02*
X7500Y325665D01*
X1920500Y325665D02*
X1927500Y325665D01*
X500Y324665D02*
X7500Y324665D01*
X1920500Y324665D02*
X1927500Y324665D01*
X500Y323665D02*
X7500Y323665D01*
X1920500Y323665D02*
X1927500Y323665D01*
X500Y322665D02*
X7500Y322665D01*
X1920500Y322665D02*
X1927500Y322665D01*
X500Y321665D02*
X7500Y321665D01*
X1920500Y321665D02*
X1927500Y321665D01*
X500Y320665D02*
X7500Y320665D01*
X1920500Y320665D02*
X1927500Y320665D01*
X500Y319665D02*
X7500Y319665D01*
X1920500Y319665D02*
X1927500Y319665D01*
X500Y318665D02*
X7500Y318665D01*
X1920500Y318665D02*
X1927500Y318665D01*
X500Y317665D02*
X7500Y317665D01*
X1920500Y317665D02*
X1927500Y317665D01*
X500Y316665D02*
X7500Y316665D01*
X1920500Y316665D02*
X1927500Y316665D01*
X500Y315665D02*
X7500Y315665D01*
X1920500Y315665D02*
X1927500Y315665D01*
X500Y314665D02*
X7500Y314665D01*
X1920500Y314665D02*
X1927500Y314665D01*
X500Y313665D02*
X7500Y313665D01*
X1920500Y313665D02*
X1927500Y313665D01*
X500Y312665D02*
X7500Y312665D01*
X1920500Y312665D02*
X1927500Y312665D01*
X500Y311665D02*
X7500Y311665D01*
X1920500Y311665D02*
X1927500Y311665D01*
X500Y310665D02*
X7500Y310665D01*
X1920500Y310665D02*
X1927500Y310665D01*
X500Y309665D02*
X7500Y309665D01*
X1163500Y309665D02*
X1163500Y309665D01*
X1363500Y309665D02*
X1363500Y309665D01*
X1563500Y309665D02*
X1563500Y309665D01*
X1920500Y309665D02*
X1927500Y309665D01*
X500Y308665D02*
X7500Y308665D01*
X763500Y308665D02*
X763500Y308665D01*
X963500Y308665D02*
X963500Y308665D01*
X1162500Y308665D02*
X1163500Y308665D01*
X1362500Y308665D02*
X1363500Y308665D01*
X1562500Y308665D02*
X1563500Y308665D01*
X1920500Y308665D02*
X1927500Y308665D01*
X500Y307665D02*
X7500Y307665D01*
X762500Y307665D02*
X763500Y307665D01*
X962500Y307665D02*
X963500Y307665D01*
X1161500Y307665D02*
X1163500Y307665D01*
X1361500Y307665D02*
X1363500Y307665D01*
X1561500Y307665D02*
X1563500Y307665D01*
X1920500Y307665D02*
X1927500Y307665D01*
X500Y306665D02*
X7500Y306665D01*
X761500Y306665D02*
X763500Y306665D01*
X961500Y306665D02*
X963500Y306665D01*
X1160500Y306665D02*
X1163500Y306665D01*
X1360500Y306665D02*
X1363500Y306665D01*
X1560500Y306665D02*
X1563500Y306665D01*
X1920500Y306665D02*
X1927500Y306665D01*
X500Y305665D02*
X7500Y305665D01*
X760500Y305665D02*
X763500Y305665D01*
X960500Y305665D02*
X963500Y305665D01*
X1159500Y305665D02*
X1163500Y305665D01*
X1359500Y305665D02*
X1363500Y305665D01*
X1559500Y305665D02*
X1563500Y305665D01*
X1920500Y305665D02*
X1927500Y305665D01*
X500Y304665D02*
X7500Y304665D01*
X759500Y304665D02*
X763500Y304665D01*
X959500Y304665D02*
X963500Y304665D01*
X1158500Y304665D02*
X1163500Y304665D01*
X1358500Y304665D02*
X1363500Y304665D01*
X1558500Y304665D02*
X1563500Y304665D01*
X1920500Y304665D02*
X1927500Y304665D01*
X500Y303665D02*
X7500Y303665D01*
X758500Y303665D02*
X763500Y303665D01*
X958500Y303665D02*
X963500Y303665D01*
X1157500Y303665D02*
X1163500Y303665D01*
X1357500Y303665D02*
X1363500Y303665D01*
X1557500Y303665D02*
X1563500Y303665D01*
X1920500Y303665D02*
X1927500Y303665D01*
X500Y302665D02*
X7500Y302665D01*
X757500Y302665D02*
X763500Y302665D01*
X957500Y302665D02*
X963500Y302665D01*
X1157500Y302665D02*
X1163500Y302665D01*
X1356500Y302665D02*
X1362500Y302665D01*
X1556500Y302665D02*
X1562500Y302665D01*
X1920500Y302665D02*
X1927500Y302665D01*
X500Y301665D02*
X7500Y301665D01*
X757500Y301665D02*
X762500Y301665D01*
X957500Y301665D02*
X962500Y301665D01*
X1157500Y301665D02*
X1162500Y301665D01*
X1357500Y301665D02*
X1361500Y301665D01*
X1557500Y301665D02*
X1561500Y301665D01*
X1920500Y301665D02*
X1927500Y301665D01*
X500Y300665D02*
X7500Y300665D01*
X758500Y300665D02*
X761500Y300665D01*
X958500Y300665D02*
X961500Y300665D01*
X1158500Y300665D02*
X1161500Y300665D01*
X1358500Y300665D02*
X1360500Y300665D01*
X1558500Y300665D02*
X1560500Y300665D01*
X1920500Y300665D02*
X1927500Y300665D01*
X500Y299665D02*
X7500Y299665D01*
X759500Y299665D02*
X760500Y299665D01*
X959500Y299665D02*
X960500Y299665D01*
X1159500Y299665D02*
X1160500Y299665D01*
X1359500Y299665D02*
X1359500Y299665D01*
X1559500Y299665D02*
X1559500Y299665D01*
X1708500Y299665D02*
X1727500Y299665D01*
X1753500Y299665D02*
X1767500Y299665D01*
X1781500Y299665D02*
X1784500Y299665D01*
X1920500Y299665D02*
X1927500Y299665D01*
X500Y298665D02*
X7500Y298665D01*
X1707500Y298665D02*
X1728500Y298665D01*
X1751500Y298665D02*
X1768500Y298665D01*
X1780500Y298665D02*
X1784500Y298665D01*
X1920500Y298665D02*
X1927500Y298665D01*
X500Y297665D02*
X7500Y297665D01*
X1706500Y297665D02*
X1729500Y297665D01*
X1750500Y297665D02*
X1768500Y297665D01*
X1780500Y297665D02*
X1785500Y297665D01*
X1920500Y297665D02*
X1927500Y297665D01*
X500Y296665D02*
X7500Y296665D01*
X1706500Y296665D02*
X1730500Y296665D01*
X1750500Y296665D02*
X1767500Y296665D01*
X1780500Y296665D02*
X1785500Y296665D01*
X1920500Y296665D02*
X1927500Y296665D01*
X500Y295665D02*
X7500Y295665D01*
X1706500Y295665D02*
X1730500Y295665D01*
X1749500Y295665D02*
X1766500Y295665D01*
X1780500Y295665D02*
X1785500Y295665D01*
X1920500Y295665D02*
X1927500Y295665D01*
X500Y294665D02*
X7500Y294665D01*
X1705500Y294665D02*
X1710500Y294665D01*
X1726500Y294665D02*
X1730500Y294665D01*
X1749500Y294665D02*
X1754500Y294665D01*
X1780500Y294665D02*
X1785500Y294665D01*
X1920500Y294665D02*
X1927500Y294665D01*
X500Y293665D02*
X7500Y293665D01*
X1706500Y293665D02*
X1710500Y293665D01*
X1726500Y293665D02*
X1730500Y293665D01*
X1748500Y293665D02*
X1753500Y293665D01*
X1780500Y293665D02*
X1785500Y293665D01*
X1920500Y293665D02*
X1927500Y293665D01*
X500Y292665D02*
X7500Y292665D01*
X1706500Y292665D02*
X1711500Y292665D01*
X1726500Y292665D02*
X1730500Y292665D01*
X1748500Y292665D02*
X1752500Y292665D01*
X1780500Y292665D02*
X1785500Y292665D01*
X1920500Y292665D02*
X1927500Y292665D01*
X500Y291665D02*
X7500Y291665D01*
X1706500Y291665D02*
X1712500Y291665D01*
X1727500Y291665D02*
X1729500Y291665D01*
X1747500Y291665D02*
X1752500Y291665D01*
X1780500Y291665D02*
X1785500Y291665D01*
X1920500Y291665D02*
X1927500Y291665D01*
X500Y290665D02*
X7500Y290665D01*
X1707500Y290665D02*
X1713500Y290665D01*
X1747500Y290665D02*
X1751500Y290665D01*
X1780500Y290665D02*
X1785500Y290665D01*
X1920500Y290665D02*
X1927500Y290665D01*
X500Y289665D02*
X7500Y289665D01*
X1708500Y289665D02*
X1713500Y289665D01*
X1746500Y289665D02*
X1751500Y289665D01*
X1780500Y289665D02*
X1785500Y289665D01*
X1920500Y289665D02*
X1927500Y289665D01*
X500Y288665D02*
X7500Y288665D01*
X1709500Y288665D02*
X1714500Y288665D01*
X1746500Y288665D02*
X1750500Y288665D01*
X1780500Y288665D02*
X1785500Y288665D01*
X1920500Y288665D02*
X1927500Y288665D01*
X500Y287665D02*
X7500Y287665D01*
X1709500Y287665D02*
X1715500Y287665D01*
X1745500Y287665D02*
X1750500Y287665D01*
X1780500Y287665D02*
X1785500Y287665D01*
X1920500Y287665D02*
X1927500Y287665D01*
X500Y286665D02*
X7500Y286665D01*
X1710500Y286665D02*
X1716500Y286665D01*
X1745500Y286665D02*
X1749500Y286665D01*
X1780500Y286665D02*
X1785500Y286665D01*
X1920500Y286665D02*
X1927500Y286665D01*
X500Y285665D02*
X7500Y285665D01*
X1711500Y285665D02*
X1717500Y285665D01*
X1744500Y285665D02*
X1749500Y285665D01*
X1780500Y285665D02*
X1785500Y285665D01*
X1920500Y285665D02*
X1927500Y285665D01*
X500Y284665D02*
X7500Y284665D01*
X1712500Y284665D02*
X1717500Y284665D01*
X1744500Y284665D02*
X1748500Y284665D01*
X1780500Y284665D02*
X1785500Y284665D01*
X1920500Y284665D02*
X1927500Y284665D01*
X500Y283665D02*
X7500Y283665D01*
X1712500Y283665D02*
X1718500Y283665D01*
X1743500Y283665D02*
X1748500Y283665D01*
X1780500Y283665D02*
X1785500Y283665D01*
X1920500Y283665D02*
X1927500Y283665D01*
X500Y282665D02*
X7500Y282665D01*
X1713500Y282665D02*
X1719500Y282665D01*
X1743500Y282665D02*
X1748500Y282665D01*
X1780500Y282665D02*
X1785500Y282665D01*
X1920500Y282665D02*
X1927500Y282665D01*
X500Y281665D02*
X7500Y281665D01*
X1714500Y281665D02*
X1720500Y281665D01*
X1743500Y281665D02*
X1747500Y281665D01*
X1780500Y281665D02*
X1785500Y281665D01*
X1920500Y281665D02*
X1927500Y281665D01*
X500Y280665D02*
X7500Y280665D01*
X1715500Y280665D02*
X1720500Y280665D01*
X1743500Y280665D02*
X1747500Y280665D01*
X1780500Y280665D02*
X1785500Y280665D01*
X1920500Y280665D02*
X1927500Y280665D01*
X500Y279665D02*
X7500Y279665D01*
X1715500Y279665D02*
X1721500Y279665D01*
X1743500Y279665D02*
X1747500Y279665D01*
X1780500Y279665D02*
X1785500Y279665D01*
X1920500Y279665D02*
X1927500Y279665D01*
X500Y278665D02*
X7500Y278665D01*
X1716500Y278665D02*
X1722500Y278665D01*
X1743500Y278665D02*
X1747500Y278665D01*
X1780500Y278665D02*
X1785500Y278665D01*
X1920500Y278665D02*
X1927500Y278665D01*
X500Y277665D02*
X7500Y277665D01*
X1717500Y277665D02*
X1723500Y277665D01*
X1743500Y277665D02*
X1748500Y277665D01*
X1780500Y277665D02*
X1785500Y277665D01*
X1920500Y277665D02*
X1927500Y277665D01*
X500Y276665D02*
X7500Y276665D01*
X1718500Y276665D02*
X1724500Y276665D01*
X1744500Y276665D02*
X1748500Y276665D01*
X1780500Y276665D02*
X1785500Y276665D01*
X1920500Y276665D02*
X1927500Y276665D01*
X500Y275665D02*
X7500Y275665D01*
X1719500Y275665D02*
X1724500Y275665D01*
X1744500Y275665D02*
X1749500Y275665D01*
X1780500Y275665D02*
X1785500Y275665D01*
X1920500Y275665D02*
X1927500Y275665D01*
X500Y274665D02*
X7500Y274665D01*
X1719500Y274665D02*
X1725500Y274665D01*
X1744500Y274665D02*
X1749500Y274665D01*
X1780500Y274665D02*
X1785500Y274665D01*
X1920500Y274665D02*
X1927500Y274665D01*
X500Y273665D02*
X7500Y273665D01*
X1720500Y273665D02*
X1726500Y273665D01*
X1745500Y273665D02*
X1750500Y273665D01*
X1780500Y273665D02*
X1785500Y273665D01*
X1920500Y273665D02*
X1927500Y273665D01*
X500Y272665D02*
X7500Y272665D01*
X1721500Y272665D02*
X1727500Y272665D01*
X1745500Y272665D02*
X1750500Y272665D01*
X1780500Y272665D02*
X1785500Y272665D01*
X1920500Y272665D02*
X1927500Y272665D01*
X500Y271665D02*
X7500Y271665D01*
X259500Y271665D02*
X260500Y271665D01*
X1722500Y271665D02*
X1727500Y271665D01*
X1746500Y271665D02*
X1751500Y271665D01*
X1780500Y271665D02*
X1785500Y271665D01*
X1920500Y271665D02*
X1927500Y271665D01*
X500Y270665D02*
X7500Y270665D01*
X258500Y270665D02*
X261500Y270665D01*
X1722500Y270665D02*
X1728500Y270665D01*
X1746500Y270665D02*
X1751500Y270665D01*
X1780500Y270665D02*
X1785500Y270665D01*
X1920500Y270665D02*
X1927500Y270665D01*
X500Y269665D02*
X7500Y269665D01*
X257500Y269665D02*
X262500Y269665D01*
X1707500Y269665D02*
X1708500Y269665D01*
X1723500Y269665D02*
X1729500Y269665D01*
X1747500Y269665D02*
X1752500Y269665D01*
X1780500Y269665D02*
X1785500Y269665D01*
X1920500Y269665D02*
X1927500Y269665D01*
X500Y268665D02*
X7500Y268665D01*
X257500Y268665D02*
X263500Y268665D01*
X1706500Y268665D02*
X1709500Y268665D01*
X1724500Y268665D02*
X1730500Y268665D01*
X1747500Y268665D02*
X1752500Y268665D01*
X1780500Y268665D02*
X1785500Y268665D01*
X1920500Y268665D02*
X1927500Y268665D01*
X500Y267665D02*
X7500Y267665D01*
X258500Y267665D02*
X263500Y267665D01*
X1706500Y267665D02*
X1710500Y267665D01*
X1725500Y267665D02*
X1730500Y267665D01*
X1748500Y267665D02*
X1753500Y267665D01*
X1780500Y267665D02*
X1785500Y267665D01*
X1920500Y267665D02*
X1927500Y267665D01*
X500Y266665D02*
X7500Y266665D01*
X259500Y266665D02*
X263500Y266665D01*
X1705500Y266665D02*
X1710500Y266665D01*
X1726500Y266665D02*
X1730500Y266665D01*
X1748500Y266665D02*
X1753500Y266665D01*
X1780500Y266665D02*
X1785500Y266665D01*
X1920500Y266665D02*
X1927500Y266665D01*
X500Y265665D02*
X7500Y265665D01*
X260500Y265665D02*
X263500Y265665D01*
X1706500Y265665D02*
X1711500Y265665D01*
X1726500Y265665D02*
X1730500Y265665D01*
X1749500Y265665D02*
X1755500Y265665D01*
X1780500Y265665D02*
X1785500Y265665D01*
X1920500Y265665D02*
X1927500Y265665D01*
X500Y264665D02*
X7500Y264665D01*
X261500Y264665D02*
X263500Y264665D01*
X1706500Y264665D02*
X1730500Y264665D01*
X1749500Y264665D02*
X1767500Y264665D01*
X1780500Y264665D02*
X1804500Y264665D01*
X1920500Y264665D02*
X1927500Y264665D01*
X500Y263665D02*
X7500Y263665D01*
X262500Y263665D02*
X263500Y263665D01*
X1706500Y263665D02*
X1730500Y263665D01*
X1750500Y263665D02*
X1768500Y263665D01*
X1780500Y263665D02*
X1805500Y263665D01*
X1920500Y263665D02*
X1927500Y263665D01*
X500Y262665D02*
X7500Y262665D01*
X263500Y262665D02*
X263500Y262665D01*
X1707500Y262665D02*
X1729500Y262665D01*
X1751500Y262665D02*
X1768500Y262665D01*
X1780500Y262665D02*
X1805500Y262665D01*
X1920500Y262665D02*
X1927500Y262665D01*
X500Y261665D02*
X7500Y261665D01*
X1708500Y261665D02*
X1728500Y261665D01*
X1752500Y261665D02*
X1767500Y261665D01*
X1780500Y261665D02*
X1805500Y261665D01*
X1920500Y261665D02*
X1927500Y261665D01*
X500Y260665D02*
X7500Y260665D01*
X1710500Y260665D02*
X1727500Y260665D01*
X1754500Y260665D02*
X1766500Y260665D01*
X1781500Y260665D02*
X1804500Y260665D01*
X1920500Y260665D02*
X1927500Y260665D01*
X500Y259665D02*
X7500Y259665D01*
X1920500Y259665D02*
X1927500Y259665D01*
X500Y258665D02*
X7500Y258665D01*
X1920500Y258665D02*
X1927500Y258665D01*
X500Y257665D02*
X7500Y257665D01*
X1920500Y257665D02*
X1927500Y257665D01*
X500Y256665D02*
X7500Y256665D01*
X1920500Y256665D02*
X1927500Y256665D01*
X500Y255665D02*
X7500Y255665D01*
X1920500Y255665D02*
X1927500Y255665D01*
X500Y254665D02*
X7500Y254665D01*
X1920500Y254665D02*
X1927500Y254665D01*
X500Y253665D02*
X7500Y253665D01*
X1920500Y253665D02*
X1927500Y253665D01*
X500Y252665D02*
X7500Y252665D01*
X1920500Y252665D02*
X1927500Y252665D01*
X500Y251665D02*
X7500Y251665D01*
X1920500Y251665D02*
X1927500Y251665D01*
X500Y250665D02*
X7500Y250665D01*
X1920500Y250665D02*
X1927500Y250665D01*
X500Y249665D02*
X7500Y249665D01*
X1920500Y249665D02*
X1927500Y249665D01*
X500Y248665D02*
X7500Y248665D01*
X1920500Y248665D02*
X1927500Y248665D01*
X500Y247665D02*
X7500Y247665D01*
X1920500Y247665D02*
X1927500Y247665D01*
X500Y246665D02*
X7500Y246665D01*
X1920500Y246665D02*
X1927500Y246665D01*
X500Y245665D02*
X7500Y245665D01*
X1920500Y245665D02*
X1927500Y245665D01*
X500Y244665D02*
X7500Y244665D01*
X1920500Y244665D02*
X1927500Y244665D01*
X500Y243665D02*
X7500Y243665D01*
X1920500Y243665D02*
X1927500Y243665D01*
X500Y242665D02*
X7500Y242665D01*
X1920500Y242665D02*
X1927500Y242665D01*
X500Y241665D02*
X7500Y241665D01*
X284500Y241665D02*
X290500Y241665D01*
X1920500Y241665D02*
X1927500Y241665D01*
X500Y240665D02*
X7500Y240665D01*
X285500Y240665D02*
X291500Y240665D01*
X1920500Y240665D02*
X1927500Y240665D01*
X500Y239665D02*
X7500Y239665D01*
X286500Y239665D02*
X292500Y239665D01*
X1920500Y239665D02*
X1927500Y239665D01*
X500Y238665D02*
X7500Y238665D01*
X287500Y238665D02*
X293500Y238665D01*
X1920500Y238665D02*
X1927500Y238665D01*
X500Y237665D02*
X7500Y237665D01*
X288500Y237665D02*
X294500Y237665D01*
X1920500Y237665D02*
X1927500Y237665D01*
X500Y236665D02*
X7500Y236665D01*
X289500Y236665D02*
X293500Y236665D01*
X1920500Y236665D02*
X1927500Y236665D01*
X500Y235665D02*
X7500Y235665D01*
X290500Y235665D02*
X292500Y235665D01*
X1920500Y235665D02*
X1927500Y235665D01*
X500Y234665D02*
X7500Y234665D01*
X291500Y234665D02*
X291500Y234665D01*
X1920500Y234665D02*
X1927500Y234665D01*
X500Y233665D02*
X7500Y233665D01*
X1920500Y233665D02*
X1927500Y233665D01*
X500Y232665D02*
X7500Y232665D01*
X1920500Y232665D02*
X1927500Y232665D01*
X500Y231665D02*
X7500Y231665D01*
X1920500Y231665D02*
X1927500Y231665D01*
X500Y230665D02*
X7500Y230665D01*
X1920500Y230665D02*
X1927500Y230665D01*
X500Y229665D02*
X7500Y229665D01*
X1920500Y229665D02*
X1927500Y229665D01*
X500Y228665D02*
X7500Y228665D01*
X1920500Y228665D02*
X1927500Y228665D01*
X500Y227665D02*
X7500Y227665D01*
X1920500Y227665D02*
X1927500Y227665D01*
X500Y226665D02*
X7500Y226665D01*
X1920500Y226665D02*
X1927500Y226665D01*
X500Y225665D02*
X7500Y225665D01*
X1920500Y225665D02*
X1927500Y225665D01*
X500Y224665D02*
X7500Y224665D01*
X1920500Y224665D02*
X1927500Y224665D01*
X500Y223665D02*
X7500Y223665D01*
X1920500Y223665D02*
X1927500Y223665D01*
X500Y222665D02*
X7500Y222665D01*
X1920500Y222665D02*
X1927500Y222665D01*
X500Y221665D02*
X7500Y221665D01*
X1920500Y221665D02*
X1927500Y221665D01*
X500Y220665D02*
X7500Y220665D01*
X1920500Y220665D02*
X1927500Y220665D01*
X500Y219665D02*
X7500Y219665D01*
X1920500Y219665D02*
X1927500Y219665D01*
X500Y218665D02*
X7500Y218665D01*
X1920500Y218665D02*
X1927500Y218665D01*
X500Y217665D02*
X7500Y217665D01*
X1920500Y217665D02*
X1927500Y217665D01*
X500Y216665D02*
X7500Y216665D01*
X1920500Y216665D02*
X1927500Y216665D01*
X500Y215665D02*
X7500Y215665D01*
X1920500Y215665D02*
X1927500Y215665D01*
X500Y214665D02*
X7500Y214665D01*
X1920500Y214665D02*
X1927500Y214665D01*
X500Y213665D02*
X7500Y213665D01*
X1920500Y213665D02*
X1927500Y213665D01*
X500Y212665D02*
X7500Y212665D01*
X1920500Y212665D02*
X1927500Y212665D01*
X500Y211665D02*
X7500Y211665D01*
X1920500Y211665D02*
X1927500Y211665D01*
X500Y210665D02*
X7500Y210665D01*
X1920500Y210665D02*
X1927500Y210665D01*
X500Y209665D02*
X7500Y209665D01*
X1920500Y209665D02*
X1927500Y209665D01*
X500Y208665D02*
X7500Y208665D01*
X1920500Y208665D02*
X1927500Y208665D01*
X500Y207665D02*
X7500Y207665D01*
X1920500Y207665D02*
X1927500Y207665D01*
X500Y206665D02*
X7500Y206665D01*
X1920500Y206665D02*
X1927500Y206665D01*
X500Y205665D02*
X7500Y205665D01*
X1920500Y205665D02*
X1927500Y205665D01*
X500Y204665D02*
X7500Y204665D01*
X1920500Y204665D02*
X1927500Y204665D01*
X500Y203665D02*
X7500Y203665D01*
X1920500Y203665D02*
X1927500Y203665D01*
X500Y202665D02*
X7500Y202665D01*
X1920500Y202665D02*
X1927500Y202665D01*
X500Y201665D02*
X7500Y201665D01*
X1920500Y201665D02*
X1927500Y201665D01*
X500Y200665D02*
X7500Y200665D01*
X1920500Y200665D02*
X1927500Y200665D01*
X500Y199665D02*
X7500Y199665D01*
X1920500Y199665D02*
X1927500Y199665D01*
X500Y198665D02*
X7500Y198665D01*
X1712500Y198665D02*
X1728500Y198665D01*
X1746500Y198665D02*
X1760500Y198665D01*
X1795500Y198665D02*
X1797500Y198665D01*
X1920500Y198665D02*
X1927500Y198665D01*
X500Y197665D02*
X7500Y197665D01*
X1711500Y197665D02*
X1730500Y197665D01*
X1745500Y197665D02*
X1762500Y197665D01*
X1794500Y197665D02*
X1798500Y197665D01*
X1920500Y197665D02*
X1927500Y197665D01*
X500Y196665D02*
X7500Y196665D01*
X1710500Y196665D02*
X1731500Y196665D01*
X1745500Y196665D02*
X1763500Y196665D01*
X1794500Y196665D02*
X1798500Y196665D01*
X1920500Y196665D02*
X1927500Y196665D01*
X500Y195665D02*
X7500Y195665D01*
X1709500Y195665D02*
X1732500Y195665D01*
X1745500Y195665D02*
X1764500Y195665D01*
X1793500Y195665D02*
X1798500Y195665D01*
X1920500Y195665D02*
X1927500Y195665D01*
X500Y194665D02*
X7500Y194665D01*
X1709500Y194665D02*
X1733500Y194665D01*
X1746500Y194665D02*
X1765500Y194665D01*
X1793500Y194665D02*
X1799500Y194665D01*
X1920500Y194665D02*
X1927500Y194665D01*
X500Y193665D02*
X7500Y193665D01*
X275500Y193665D02*
X285500Y193665D01*
X1708500Y193665D02*
X1713500Y193665D01*
X1728500Y193665D02*
X1733500Y193665D01*
X1750500Y193665D02*
X1755500Y193665D01*
X1759500Y193665D02*
X1765500Y193665D01*
X1793500Y193665D02*
X1799500Y193665D01*
X1920500Y193665D02*
X1927500Y193665D01*
X500Y192665D02*
X7500Y192665D01*
X274500Y192665D02*
X287500Y192665D01*
X1709500Y192665D02*
X1713500Y192665D01*
X1729500Y192665D02*
X1733500Y192665D01*
X1750500Y192665D02*
X1754500Y192665D01*
X1761500Y192665D02*
X1766500Y192665D01*
X1792500Y192665D02*
X1799500Y192665D01*
X1920500Y192665D02*
X1927500Y192665D01*
X500Y191665D02*
X7500Y191665D01*
X273500Y191665D02*
X290500Y191665D01*
X1709500Y191665D02*
X1714500Y191665D01*
X1729500Y191665D02*
X1733500Y191665D01*
X1750500Y191665D02*
X1754500Y191665D01*
X1761500Y191665D02*
X1766500Y191665D01*
X1792500Y191665D02*
X1799500Y191665D01*
X1920500Y191665D02*
X1927500Y191665D01*
X500Y190665D02*
X7500Y190665D01*
X273500Y190665D02*
X292500Y190665D01*
X1709500Y190665D02*
X1714500Y190665D01*
X1729500Y190665D02*
X1733500Y190665D01*
X1750500Y190665D02*
X1754500Y190665D01*
X1762500Y190665D02*
X1767500Y190665D01*
X1792500Y190665D02*
X1800500Y190665D01*
X1920500Y190665D02*
X1927500Y190665D01*
X500Y189665D02*
X7500Y189665D01*
X274500Y189665D02*
X295500Y189665D01*
X1710500Y189665D02*
X1715500Y189665D01*
X1730500Y189665D02*
X1732500Y189665D01*
X1750500Y189665D02*
X1754500Y189665D01*
X1763500Y189665D02*
X1767500Y189665D01*
X1792500Y189665D02*
X1800500Y189665D01*
X1920500Y189665D02*
X1927500Y189665D01*
X500Y188665D02*
X7500Y188665D01*
X275500Y188665D02*
X297500Y188665D01*
X1710500Y188665D02*
X1716500Y188665D01*
X1750500Y188665D02*
X1754500Y188665D01*
X1763500Y188665D02*
X1768500Y188665D01*
X1791500Y188665D02*
X1800500Y188665D01*
X1920500Y188665D02*
X1927500Y188665D01*
X500Y187665D02*
X7500Y187665D01*
X287500Y187665D02*
X300500Y187665D01*
X1711500Y187665D02*
X1717500Y187665D01*
X1750500Y187665D02*
X1754500Y187665D01*
X1764500Y187665D02*
X1768500Y187665D01*
X1791500Y187665D02*
X1801500Y187665D01*
X1920500Y187665D02*
X1927500Y187665D01*
X500Y186665D02*
X7500Y186665D01*
X289500Y186665D02*
X302500Y186665D01*
X1712500Y186665D02*
X1718500Y186665D01*
X1750500Y186665D02*
X1754500Y186665D01*
X1764500Y186665D02*
X1769500Y186665D01*
X1791500Y186665D02*
X1801500Y186665D01*
X1920500Y186665D02*
X1927500Y186665D01*
X500Y185665D02*
X7500Y185665D01*
X292500Y185665D02*
X305500Y185665D01*
X1713500Y185665D02*
X1718500Y185665D01*
X1750500Y185665D02*
X1754500Y185665D01*
X1765500Y185665D02*
X1769500Y185665D01*
X1790500Y185665D02*
X1795500Y185665D01*
X1797500Y185665D02*
X1801500Y185665D01*
X1920500Y185665D02*
X1927500Y185665D01*
X500Y184665D02*
X7500Y184665D01*
X294500Y184665D02*
X308500Y184665D01*
X533500Y184665D02*
X536500Y184665D01*
X1713500Y184665D02*
X1719500Y184665D01*
X1750500Y184665D02*
X1754500Y184665D01*
X1765500Y184665D02*
X1770500Y184665D01*
X1790500Y184665D02*
X1795500Y184665D01*
X1797500Y184665D02*
X1801500Y184665D01*
X1920500Y184665D02*
X1927500Y184665D01*
X500Y183665D02*
X7500Y183665D01*
X297500Y183665D02*
X310500Y183665D01*
X529500Y183665D02*
X537500Y183665D01*
X1714500Y183665D02*
X1720500Y183665D01*
X1750500Y183665D02*
X1754500Y183665D01*
X1766500Y183665D02*
X1770500Y183665D01*
X1790500Y183665D02*
X1794500Y183665D01*
X1797500Y183665D02*
X1802500Y183665D01*
X1920500Y183665D02*
X1927500Y183665D01*
X500Y182665D02*
X7500Y182665D01*
X299500Y182665D02*
X312500Y182665D01*
X422500Y182665D02*
X423500Y182665D01*
X526500Y182665D02*
X537500Y182665D01*
X611500Y182665D02*
X619500Y182665D01*
X1715500Y182665D02*
X1721500Y182665D01*
X1750500Y182665D02*
X1754500Y182665D01*
X1766500Y182665D02*
X1771500Y182665D01*
X1789500Y182665D02*
X1794500Y182665D01*
X1798500Y182665D02*
X1802500Y182665D01*
X1920500Y182665D02*
X1927500Y182665D01*
X500Y181665D02*
X7500Y181665D01*
X302500Y181665D02*
X313500Y181665D01*
X421500Y181665D02*
X424500Y181665D01*
X523500Y181665D02*
X537500Y181665D01*
X608500Y181665D02*
X621500Y181665D01*
X1716500Y181665D02*
X1721500Y181665D01*
X1750500Y181665D02*
X1754500Y181665D01*
X1767500Y181665D02*
X1771500Y181665D01*
X1789500Y181665D02*
X1794500Y181665D01*
X1798500Y181665D02*
X1802500Y181665D01*
X1920500Y181665D02*
X1927500Y181665D01*
X500Y180665D02*
X7500Y180665D01*
X303500Y180665D02*
X313500Y180665D01*
X420500Y180665D02*
X424500Y180665D01*
X519500Y180665D02*
X536500Y180665D01*
X607500Y180665D02*
X623500Y180665D01*
X1716500Y180665D02*
X1722500Y180665D01*
X1750500Y180665D02*
X1754500Y180665D01*
X1767500Y180665D02*
X1771500Y180665D01*
X1789500Y180665D02*
X1793500Y180665D01*
X1798500Y180665D02*
X1803500Y180665D01*
X1920500Y180665D02*
X1927500Y180665D01*
X500Y179665D02*
X7500Y179665D01*
X301500Y179665D02*
X313500Y179665D01*
X420500Y179665D02*
X424500Y179665D01*
X516500Y179665D02*
X534500Y179665D01*
X605500Y179665D02*
X625500Y179665D01*
X1717500Y179665D02*
X1723500Y179665D01*
X1750500Y179665D02*
X1754500Y179665D01*
X1767500Y179665D02*
X1771500Y179665D01*
X1789500Y179665D02*
X1793500Y179665D01*
X1798500Y179665D02*
X1803500Y179665D01*
X1920500Y179665D02*
X1927500Y179665D01*
X500Y178665D02*
X7500Y178665D01*
X298500Y178665D02*
X312500Y178665D01*
X420500Y178665D02*
X424500Y178665D01*
X512500Y178665D02*
X530500Y178665D01*
X603500Y178665D02*
X627500Y178665D01*
X1718500Y178665D02*
X1724500Y178665D01*
X1750500Y178665D02*
X1754500Y178665D01*
X1767500Y178665D02*
X1771500Y178665D01*
X1788500Y178665D02*
X1793500Y178665D01*
X1799500Y178665D02*
X1803500Y178665D01*
X1920500Y178665D02*
X1927500Y178665D01*
X500Y177665D02*
X7500Y177665D01*
X296500Y177665D02*
X309500Y177665D01*
X420500Y177665D02*
X424500Y177665D01*
X509500Y177665D02*
X528500Y177665D01*
X601500Y177665D02*
X611500Y177665D01*
X618500Y177665D02*
X629500Y177665D01*
X1719500Y177665D02*
X1725500Y177665D01*
X1750500Y177665D02*
X1754500Y177665D01*
X1767500Y177665D02*
X1771500Y177665D01*
X1788500Y177665D02*
X1793500Y177665D01*
X1799500Y177665D02*
X1803500Y177665D01*
X1920500Y177665D02*
X1927500Y177665D01*
X500Y176665D02*
X7500Y176665D01*
X293500Y176665D02*
X307500Y176665D01*
X420500Y176665D02*
X424500Y176665D01*
X506500Y176665D02*
X528500Y176665D01*
X599500Y176665D02*
X609500Y176665D01*
X620500Y176665D02*
X631500Y176665D01*
X1720500Y176665D02*
X1725500Y176665D01*
X1750500Y176665D02*
X1754500Y176665D01*
X1767500Y176665D02*
X1771500Y176665D01*
X1788500Y176665D02*
X1792500Y176665D01*
X1799500Y176665D02*
X1804500Y176665D01*
X1920500Y176665D02*
X1927500Y176665D01*
X500Y175665D02*
X7500Y175665D01*
X291500Y175665D02*
X304500Y175665D01*
X420500Y175665D02*
X424500Y175665D01*
X502500Y175665D02*
X520500Y175665D01*
X524500Y175665D02*
X528500Y175665D01*
X597500Y175665D02*
X607500Y175665D01*
X622500Y175665D02*
X632500Y175665D01*
X1720500Y175665D02*
X1726500Y175665D01*
X1750500Y175665D02*
X1754500Y175665D01*
X1766500Y175665D02*
X1771500Y175665D01*
X1787500Y175665D02*
X1792500Y175665D01*
X1800500Y175665D02*
X1804500Y175665D01*
X1920500Y175665D02*
X1927500Y175665D01*
X500Y174665D02*
X7500Y174665D01*
X288500Y174665D02*
X302500Y174665D01*
X420500Y174665D02*
X424500Y174665D01*
X499500Y174665D02*
X516500Y174665D01*
X524500Y174665D02*
X528500Y174665D01*
X597500Y174665D02*
X605500Y174665D01*
X624500Y174665D02*
X633500Y174665D01*
X1721500Y174665D02*
X1727500Y174665D01*
X1750500Y174665D02*
X1754500Y174665D01*
X1766500Y174665D02*
X1771500Y174665D01*
X1787500Y174665D02*
X1792500Y174665D01*
X1800500Y174665D02*
X1804500Y174665D01*
X1920500Y174665D02*
X1927500Y174665D01*
X500Y173665D02*
X7500Y173665D01*
X286500Y173665D02*
X299500Y173665D01*
X420500Y173665D02*
X424500Y173665D01*
X498500Y173665D02*
X513500Y173665D01*
X524500Y173665D02*
X528500Y173665D01*
X596500Y173665D02*
X603500Y173665D01*
X626500Y173665D02*
X634500Y173665D01*
X1722500Y173665D02*
X1728500Y173665D01*
X1750500Y173665D02*
X1754500Y173665D01*
X1765500Y173665D02*
X1770500Y173665D01*
X1787500Y173665D02*
X1791500Y173665D01*
X1800500Y173665D02*
X1805500Y173665D01*
X1920500Y173665D02*
X1927500Y173665D01*
X500Y172665D02*
X7500Y172665D01*
X274500Y172665D02*
X296500Y172665D01*
X420500Y172665D02*
X424500Y172665D01*
X497500Y172665D02*
X509500Y172665D01*
X524500Y172665D02*
X528500Y172665D01*
X596500Y172665D02*
X601500Y172665D01*
X628500Y172665D02*
X634500Y172665D01*
X1723500Y172665D02*
X1728500Y172665D01*
X1750500Y172665D02*
X1754500Y172665D01*
X1765500Y172665D02*
X1770500Y172665D01*
X1787500Y172665D02*
X1792500Y172665D01*
X1800500Y172665D02*
X1805500Y172665D01*
X1920500Y172665D02*
X1927500Y172665D01*
X500Y171665D02*
X7500Y171665D01*
X274500Y171665D02*
X294500Y171665D01*
X420500Y171665D02*
X424500Y171665D01*
X497500Y171665D02*
X510500Y171665D01*
X524500Y171665D02*
X528500Y171665D01*
X595500Y171665D02*
X600500Y171665D01*
X629500Y171665D02*
X634500Y171665D01*
X1723500Y171665D02*
X1729500Y171665D01*
X1750500Y171665D02*
X1754500Y171665D01*
X1764500Y171665D02*
X1769500Y171665D01*
X1786500Y171665D02*
X1805500Y171665D01*
X1920500Y171665D02*
X1927500Y171665D01*
X500Y170665D02*
X7500Y170665D01*
X273500Y170665D02*
X291500Y170665D01*
X420500Y170665D02*
X424500Y170665D01*
X498500Y170665D02*
X514500Y170665D01*
X524500Y170665D02*
X528500Y170665D01*
X595500Y170665D02*
X599500Y170665D01*
X630500Y170665D02*
X634500Y170665D01*
X1724500Y170665D02*
X1730500Y170665D01*
X1750500Y170665D02*
X1754500Y170665D01*
X1764500Y170665D02*
X1769500Y170665D01*
X1786500Y170665D02*
X1806500Y170665D01*
X1920500Y170665D02*
X1927500Y170665D01*
X500Y169665D02*
X7500Y169665D01*
X274500Y169665D02*
X289500Y169665D01*
X420500Y169665D02*
X424500Y169665D01*
X500500Y169665D02*
X517500Y169665D01*
X524500Y169665D02*
X528500Y169665D01*
X595500Y169665D02*
X599500Y169665D01*
X630500Y169665D02*
X634500Y169665D01*
X1725500Y169665D02*
X1731500Y169665D01*
X1750500Y169665D02*
X1754500Y169665D01*
X1763500Y169665D02*
X1768500Y169665D01*
X1786500Y169665D02*
X1806500Y169665D01*
X1920500Y169665D02*
X1927500Y169665D01*
X500Y168665D02*
X7500Y168665D01*
X274500Y168665D02*
X286500Y168665D01*
X420500Y168665D02*
X424500Y168665D01*
X503500Y168665D02*
X521500Y168665D01*
X524500Y168665D02*
X528500Y168665D01*
X595500Y168665D02*
X599500Y168665D01*
X630500Y168665D02*
X634500Y168665D01*
X1726500Y168665D02*
X1732500Y168665D01*
X1750500Y168665D02*
X1754500Y168665D01*
X1763500Y168665D02*
X1768500Y168665D01*
X1785500Y168665D02*
X1806500Y168665D01*
X1920500Y168665D02*
X1927500Y168665D01*
X500Y167665D02*
X7500Y167665D01*
X420500Y167665D02*
X424500Y167665D01*
X506500Y167665D02*
X528500Y167665D01*
X595500Y167665D02*
X599500Y167665D01*
X630500Y167665D02*
X634500Y167665D01*
X1710500Y167665D02*
X1712500Y167665D01*
X1727500Y167665D02*
X1732500Y167665D01*
X1750500Y167665D02*
X1754500Y167665D01*
X1762500Y167665D02*
X1767500Y167665D01*
X1785500Y167665D02*
X1806500Y167665D01*
X1920500Y167665D02*
X1927500Y167665D01*
X500Y166665D02*
X7500Y166665D01*
X420500Y166665D02*
X424500Y166665D01*
X510500Y166665D02*
X528500Y166665D01*
X595500Y166665D02*
X600500Y166665D01*
X630500Y166665D02*
X634500Y166665D01*
X1709500Y166665D02*
X1712500Y166665D01*
X1727500Y166665D02*
X1733500Y166665D01*
X1750500Y166665D02*
X1754500Y166665D01*
X1762500Y166665D02*
X1767500Y166665D01*
X1785500Y166665D02*
X1789500Y166665D01*
X1802500Y166665D02*
X1807500Y166665D01*
X1920500Y166665D02*
X1927500Y166665D01*
X500Y165665D02*
X7500Y165665D01*
X420500Y165665D02*
X424500Y165665D01*
X513500Y165665D02*
X531500Y165665D01*
X595500Y165665D02*
X634500Y165665D01*
X1708500Y165665D02*
X1713500Y165665D01*
X1728500Y165665D02*
X1733500Y165665D01*
X1750500Y165665D02*
X1754500Y165665D01*
X1761500Y165665D02*
X1766500Y165665D01*
X1784500Y165665D02*
X1789500Y165665D01*
X1803500Y165665D02*
X1807500Y165665D01*
X1920500Y165665D02*
X1927500Y165665D01*
X500Y164665D02*
X7500Y164665D01*
X420500Y164665D02*
X424500Y164665D01*
X517500Y164665D02*
X534500Y164665D01*
X595500Y164665D02*
X634500Y164665D01*
X1709500Y164665D02*
X1713500Y164665D01*
X1729500Y164665D02*
X1733500Y164665D01*
X1750500Y164665D02*
X1754500Y164665D01*
X1761500Y164665D02*
X1766500Y164665D01*
X1784500Y164665D02*
X1789500Y164665D01*
X1803500Y164665D02*
X1807500Y164665D01*
X1920500Y164665D02*
X1927500Y164665D01*
X500Y163665D02*
X7500Y163665D01*
X420500Y163665D02*
X424500Y163665D01*
X520500Y163665D02*
X536500Y163665D01*
X595500Y163665D02*
X634500Y163665D01*
X1709500Y163665D02*
X1733500Y163665D01*
X1747500Y163665D02*
X1765500Y163665D01*
X1784500Y163665D02*
X1788500Y163665D01*
X1803500Y163665D02*
X1808500Y163665D01*
X1920500Y163665D02*
X1927500Y163665D01*
X500Y162665D02*
X7500Y162665D01*
X420500Y162665D02*
X424500Y162665D01*
X523500Y162665D02*
X537500Y162665D01*
X595500Y162665D02*
X634500Y162665D01*
X1709500Y162665D02*
X1733500Y162665D01*
X1746500Y162665D02*
X1765500Y162665D01*
X1784500Y162665D02*
X1788500Y162665D01*
X1803500Y162665D02*
X1808500Y162665D01*
X1920500Y162665D02*
X1927500Y162665D01*
X500Y161665D02*
X7500Y161665D01*
X386500Y161665D02*
X424500Y161665D01*
X527500Y161665D02*
X537500Y161665D01*
X595500Y161665D02*
X634500Y161665D01*
X1710500Y161665D02*
X1732500Y161665D01*
X1745500Y161665D02*
X1764500Y161665D01*
X1783500Y161665D02*
X1788500Y161665D01*
X1804500Y161665D02*
X1808500Y161665D01*
X1920500Y161665D02*
X1927500Y161665D01*
X500Y160665D02*
X7500Y160665D01*
X385500Y160665D02*
X424500Y160665D01*
X530500Y160665D02*
X536500Y160665D01*
X595500Y160665D02*
X599500Y160665D01*
X630500Y160665D02*
X634500Y160665D01*
X1711500Y160665D02*
X1732500Y160665D01*
X1745500Y160665D02*
X1763500Y160665D01*
X1783500Y160665D02*
X1788500Y160665D01*
X1804500Y160665D02*
X1808500Y160665D01*
X1920500Y160665D02*
X1927500Y160665D01*
X500Y159665D02*
X7500Y159665D01*
X385500Y159665D02*
X424500Y159665D01*
X534500Y159665D02*
X535500Y159665D01*
X595500Y159665D02*
X599500Y159665D01*
X630500Y159665D02*
X634500Y159665D01*
X1712500Y159665D02*
X1730500Y159665D01*
X1746500Y159665D02*
X1762500Y159665D01*
X1784500Y159665D02*
X1787500Y159665D01*
X1804500Y159665D02*
X1808500Y159665D01*
X1920500Y159665D02*
X1927500Y159665D01*
X500Y158665D02*
X7500Y158665D01*
X385500Y158665D02*
X424500Y158665D01*
X595500Y158665D02*
X599500Y158665D01*
X630500Y158665D02*
X634500Y158665D01*
X1715500Y158665D02*
X1728500Y158665D01*
X1747500Y158665D02*
X1758500Y158665D01*
X1806500Y158665D02*
X1806500Y158665D01*
X1920500Y158665D02*
X1927500Y158665D01*
X500Y157665D02*
X7500Y157665D01*
X386500Y157665D02*
X424500Y157665D01*
X595500Y157665D02*
X599500Y157665D01*
X631500Y157665D02*
X634500Y157665D01*
X1920500Y157665D02*
X1927500Y157665D01*
X500Y156665D02*
X7500Y156665D01*
X596500Y156665D02*
X598500Y156665D01*
X631500Y156665D02*
X633500Y156665D01*
X1920500Y156665D02*
X1927500Y156665D01*
X500Y155665D02*
X7500Y155665D01*
X276500Y155665D02*
X290500Y155665D01*
X296500Y155665D02*
X310500Y155665D01*
X1920500Y155665D02*
X1927500Y155665D01*
X500Y154665D02*
X7500Y154665D01*
X275500Y154665D02*
X292500Y154665D01*
X294500Y154665D02*
X311500Y154665D01*
X1920500Y154665D02*
X1927500Y154665D01*
X500Y153665D02*
X7500Y153665D01*
X274500Y153665D02*
X312500Y153665D01*
X1920500Y153665D02*
X1927500Y153665D01*
X500Y152665D02*
X7500Y152665D01*
X274500Y152665D02*
X312500Y152665D01*
X1920500Y152665D02*
X1927500Y152665D01*
X500Y151665D02*
X7500Y151665D01*
X273500Y151665D02*
X313500Y151665D01*
X1920500Y151665D02*
X1927500Y151665D01*
X500Y150665D02*
X7500Y150665D01*
X273500Y150665D02*
X278500Y150665D01*
X290500Y150665D02*
X297500Y150665D01*
X309500Y150665D02*
X313500Y150665D01*
X1920500Y150665D02*
X1927500Y150665D01*
X500Y149665D02*
X7500Y149665D01*
X273500Y149665D02*
X278500Y149665D01*
X291500Y149665D02*
X296500Y149665D01*
X309500Y149665D02*
X313500Y149665D01*
X1920500Y149665D02*
X1927500Y149665D01*
X500Y148665D02*
X7500Y148665D01*
X273500Y148665D02*
X278500Y148665D01*
X291500Y148665D02*
X295500Y148665D01*
X309500Y148665D02*
X313500Y148665D01*
X1920500Y148665D02*
X1927500Y148665D01*
X500Y147665D02*
X7500Y147665D01*
X273500Y147665D02*
X278500Y147665D01*
X291500Y147665D02*
X295500Y147665D01*
X309500Y147665D02*
X313500Y147665D01*
X514500Y147665D02*
X521500Y147665D01*
X1920500Y147665D02*
X1927500Y147665D01*
X500Y146665D02*
X7500Y146665D01*
X273500Y146665D02*
X278500Y146665D01*
X291500Y146665D02*
X295500Y146665D01*
X309500Y146665D02*
X313500Y146665D01*
X511500Y146665D02*
X523500Y146665D01*
X1920500Y146665D02*
X1927500Y146665D01*
X500Y145665D02*
X7500Y145665D01*
X273500Y145665D02*
X278500Y145665D01*
X291500Y145665D02*
X295500Y145665D01*
X309500Y145665D02*
X313500Y145665D01*
X509500Y145665D02*
X525500Y145665D01*
X1920500Y145665D02*
X1927500Y145665D01*
X500Y144665D02*
X7500Y144665D01*
X273500Y144665D02*
X278500Y144665D01*
X291500Y144665D02*
X295500Y144665D01*
X309500Y144665D02*
X313500Y144665D01*
X386500Y144665D02*
X388500Y144665D01*
X421500Y144665D02*
X424500Y144665D01*
X507500Y144665D02*
X527500Y144665D01*
X596500Y144665D02*
X634500Y144665D01*
X1920500Y144665D02*
X1927500Y144665D01*
X500Y143665D02*
X7500Y143665D01*
X273500Y143665D02*
X278500Y143665D01*
X291500Y143665D02*
X295500Y143665D01*
X309500Y143665D02*
X313500Y143665D01*
X385500Y143665D02*
X389500Y143665D01*
X420500Y143665D02*
X424500Y143665D01*
X505500Y143665D02*
X529500Y143665D01*
X595500Y143665D02*
X634500Y143665D01*
X1920500Y143665D02*
X1927500Y143665D01*
X500Y142665D02*
X7500Y142665D01*
X273500Y142665D02*
X278500Y142665D01*
X291500Y142665D02*
X295500Y142665D01*
X309500Y142665D02*
X313500Y142665D01*
X385500Y142665D02*
X389500Y142665D01*
X420500Y142665D02*
X424500Y142665D01*
X503500Y142665D02*
X514500Y142665D01*
X520500Y142665D02*
X531500Y142665D01*
X595500Y142665D02*
X634500Y142665D01*
X1920500Y142665D02*
X1927500Y142665D01*
X500Y141665D02*
X7500Y141665D01*
X273500Y141665D02*
X278500Y141665D01*
X291500Y141665D02*
X295500Y141665D01*
X309500Y141665D02*
X313500Y141665D01*
X385500Y141665D02*
X389500Y141665D01*
X420500Y141665D02*
X424500Y141665D01*
X501500Y141665D02*
X512500Y141665D01*
X522500Y141665D02*
X533500Y141665D01*
X595500Y141665D02*
X634500Y141665D01*
X1920500Y141665D02*
X1927500Y141665D01*
X500Y140665D02*
X7500Y140665D01*
X273500Y140665D02*
X278500Y140665D01*
X291500Y140665D02*
X295500Y140665D01*
X309500Y140665D02*
X313500Y140665D01*
X385500Y140665D02*
X389500Y140665D01*
X420500Y140665D02*
X424500Y140665D01*
X500500Y140665D02*
X510500Y140665D01*
X524500Y140665D02*
X534500Y140665D01*
X596500Y140665D02*
X634500Y140665D01*
X1920500Y140665D02*
X1927500Y140665D01*
X500Y139665D02*
X7500Y139665D01*
X273500Y139665D02*
X278500Y139665D01*
X291500Y139665D02*
X295500Y139665D01*
X309500Y139665D02*
X313500Y139665D01*
X385500Y139665D02*
X389500Y139665D01*
X420500Y139665D02*
X424500Y139665D01*
X499500Y139665D02*
X508500Y139665D01*
X526500Y139665D02*
X535500Y139665D01*
X625500Y139665D02*
X634500Y139665D01*
X1920500Y139665D02*
X1927500Y139665D01*
X500Y138665D02*
X7500Y138665D01*
X273500Y138665D02*
X278500Y138665D01*
X291500Y138665D02*
X295500Y138665D01*
X309500Y138665D02*
X313500Y138665D01*
X385500Y138665D02*
X389500Y138665D01*
X420500Y138665D02*
X424500Y138665D01*
X498500Y138665D02*
X506500Y138665D01*
X528500Y138665D02*
X536500Y138665D01*
X623500Y138665D02*
X634500Y138665D01*
X1920500Y138665D02*
X1927500Y138665D01*
X500Y137665D02*
X7500Y137665D01*
X273500Y137665D02*
X278500Y137665D01*
X291500Y137665D02*
X295500Y137665D01*
X309500Y137665D02*
X313500Y137665D01*
X385500Y137665D02*
X389500Y137665D01*
X420500Y137665D02*
X424500Y137665D01*
X498500Y137665D02*
X504500Y137665D01*
X530500Y137665D02*
X536500Y137665D01*
X620500Y137665D02*
X633500Y137665D01*
X1920500Y137665D02*
X1927500Y137665D01*
X500Y136665D02*
X7500Y136665D01*
X273500Y136665D02*
X278500Y136665D01*
X292500Y136665D02*
X295500Y136665D01*
X309500Y136665D02*
X313500Y136665D01*
X385500Y136665D02*
X389500Y136665D01*
X420500Y136665D02*
X424500Y136665D01*
X498500Y136665D02*
X503500Y136665D01*
X532500Y136665D02*
X537500Y136665D01*
X618500Y136665D02*
X630500Y136665D01*
X1920500Y136665D02*
X1927500Y136665D01*
X500Y135665D02*
X7500Y135665D01*
X273500Y135665D02*
X278500Y135665D01*
X309500Y135665D02*
X313500Y135665D01*
X385500Y135665D02*
X389500Y135665D01*
X420500Y135665D02*
X424500Y135665D01*
X497500Y135665D02*
X502500Y135665D01*
X532500Y135665D02*
X537500Y135665D01*
X616500Y135665D02*
X628500Y135665D01*
X1920500Y135665D02*
X1927500Y135665D01*
X500Y134665D02*
X7500Y134665D01*
X273500Y134665D02*
X278500Y134665D01*
X309500Y134665D02*
X313500Y134665D01*
X385500Y134665D02*
X389500Y134665D01*
X420500Y134665D02*
X424500Y134665D01*
X497500Y134665D02*
X502500Y134665D01*
X533500Y134665D02*
X537500Y134665D01*
X614500Y134665D02*
X626500Y134665D01*
X1920500Y134665D02*
X1927500Y134665D01*
X500Y133665D02*
X7500Y133665D01*
X273500Y133665D02*
X278500Y133665D01*
X309500Y133665D02*
X313500Y133665D01*
X385500Y133665D02*
X389500Y133665D01*
X420500Y133665D02*
X424500Y133665D01*
X497500Y133665D02*
X502500Y133665D01*
X533500Y133665D02*
X537500Y133665D01*
X611500Y133665D02*
X623500Y133665D01*
X1920500Y133665D02*
X1927500Y133665D01*
X500Y132665D02*
X7500Y132665D01*
X273500Y132665D02*
X278500Y132665D01*
X309500Y132665D02*
X313500Y132665D01*
X385500Y132665D02*
X389500Y132665D01*
X420500Y132665D02*
X424500Y132665D01*
X497500Y132665D02*
X502500Y132665D01*
X533500Y132665D02*
X537500Y132665D01*
X609500Y132665D02*
X621500Y132665D01*
X1920500Y132665D02*
X1927500Y132665D01*
X500Y131665D02*
X7500Y131665D01*
X274500Y131665D02*
X277500Y131665D01*
X309500Y131665D02*
X312500Y131665D01*
X385500Y131665D02*
X390500Y131665D01*
X419500Y131665D02*
X424500Y131665D01*
X497500Y131665D02*
X502500Y131665D01*
X532500Y131665D02*
X537500Y131665D01*
X607500Y131665D02*
X619500Y131665D01*
X1920500Y131665D02*
X1927500Y131665D01*
X500Y130665D02*
X7500Y130665D01*
X275500Y130665D02*
X276500Y130665D01*
X311500Y130665D02*
X311500Y130665D01*
X385500Y130665D02*
X391500Y130665D01*
X418500Y130665D02*
X424500Y130665D01*
X497500Y130665D02*
X537500Y130665D01*
X605500Y130665D02*
X617500Y130665D01*
X1920500Y130665D02*
X1927500Y130665D01*
X500Y129665D02*
X7500Y129665D01*
X386500Y129665D02*
X393500Y129665D01*
X416500Y129665D02*
X423500Y129665D01*
X497500Y129665D02*
X537500Y129665D01*
X602500Y129665D02*
X614500Y129665D01*
X1920500Y129665D02*
X1927500Y129665D01*
X500Y128665D02*
X7500Y128665D01*
X386500Y128665D02*
X395500Y128665D01*
X414500Y128665D02*
X423500Y128665D01*
X497500Y128665D02*
X537500Y128665D01*
X600500Y128665D02*
X612500Y128665D01*
X1920500Y128665D02*
X1927500Y128665D01*
X500Y127665D02*
X7500Y127665D01*
X387500Y127665D02*
X397500Y127665D01*
X412500Y127665D02*
X422500Y127665D01*
X497500Y127665D02*
X537500Y127665D01*
X598500Y127665D02*
X610500Y127665D01*
X1920500Y127665D02*
X1927500Y127665D01*
X500Y126665D02*
X7500Y126665D01*
X389500Y126665D02*
X399500Y126665D01*
X410500Y126665D02*
X421500Y126665D01*
X497500Y126665D02*
X537500Y126665D01*
X596500Y126665D02*
X608500Y126665D01*
X1920500Y126665D02*
X1927500Y126665D01*
X500Y125665D02*
X7500Y125665D01*
X390500Y125665D02*
X401500Y125665D01*
X408500Y125665D02*
X419500Y125665D01*
X497500Y125665D02*
X502500Y125665D01*
X533500Y125665D02*
X537500Y125665D01*
X595500Y125665D02*
X605500Y125665D01*
X1920500Y125665D02*
X1927500Y125665D01*
X500Y124665D02*
X7500Y124665D01*
X392500Y124665D02*
X417500Y124665D01*
X497500Y124665D02*
X502500Y124665D01*
X533500Y124665D02*
X537500Y124665D01*
X595500Y124665D02*
X633500Y124665D01*
X1920500Y124665D02*
X1927500Y124665D01*
X500Y123665D02*
X7500Y123665D01*
X394500Y123665D02*
X415500Y123665D01*
X497500Y123665D02*
X502500Y123665D01*
X533500Y123665D02*
X537500Y123665D01*
X595500Y123665D02*
X634500Y123665D01*
X1920500Y123665D02*
X1927500Y123665D01*
X500Y122665D02*
X7500Y122665D01*
X396500Y122665D02*
X413500Y122665D01*
X498500Y122665D02*
X501500Y122665D01*
X533500Y122665D02*
X537500Y122665D01*
X595500Y122665D02*
X634500Y122665D01*
X1920500Y122665D02*
X1927500Y122665D01*
X500Y121665D02*
X7500Y121665D01*
X398500Y121665D02*
X411500Y121665D01*
X498500Y121665D02*
X501500Y121665D01*
X534500Y121665D02*
X536500Y121665D01*
X595500Y121665D02*
X634500Y121665D01*
X1920500Y121665D02*
X1927500Y121665D01*
X500Y120665D02*
X7500Y120665D01*
X401500Y120665D02*
X408500Y120665D01*
X595500Y120665D02*
X634500Y120665D01*
X1920500Y120665D02*
X1927500Y120665D01*
X500Y119665D02*
X7500Y119665D01*
X596500Y119665D02*
X632500Y119665D01*
X1920500Y119665D02*
X1927500Y119665D01*
X500Y118665D02*
X7500Y118665D01*
X1920500Y118665D02*
X1927500Y118665D01*
X500Y117665D02*
X7500Y117665D01*
X1920500Y117665D02*
X1927500Y117665D01*
X500Y116665D02*
X7500Y116665D01*
X1920500Y116665D02*
X1927500Y116665D01*
X500Y115665D02*
X7500Y115665D01*
X1920500Y115665D02*
X1927500Y115665D01*
X500Y114665D02*
X7500Y114665D01*
X1920500Y114665D02*
X1927500Y114665D01*
X500Y113665D02*
X7500Y113665D01*
X1920500Y113665D02*
X1927500Y113665D01*
X500Y112665D02*
X7500Y112665D01*
X1920500Y112665D02*
X1927500Y112665D01*
X500Y111665D02*
X7500Y111665D01*
X1920500Y111665D02*
X1927500Y111665D01*
X500Y110665D02*
X7500Y110665D01*
X301500Y110665D02*
X308500Y110665D01*
X1920500Y110665D02*
X1927500Y110665D01*
X500Y109665D02*
X7500Y109665D01*
X301500Y109665D02*
X309500Y109665D01*
X502500Y109665D02*
X505500Y109665D01*
X530500Y109665D02*
X533500Y109665D01*
X1920500Y109665D02*
X1927500Y109665D01*
X500Y108665D02*
X7500Y108665D01*
X300500Y108665D02*
X309500Y108665D01*
X500500Y108665D02*
X506500Y108665D01*
X528500Y108665D02*
X535500Y108665D01*
X1920500Y108665D02*
X1927500Y108665D01*
X500Y107665D02*
X7500Y107665D01*
X300500Y107665D02*
X309500Y107665D01*
X390500Y107665D02*
X392500Y107665D01*
X418500Y107665D02*
X420500Y107665D01*
X499500Y107665D02*
X506500Y107665D01*
X527500Y107665D02*
X536500Y107665D01*
X597500Y107665D02*
X598500Y107665D01*
X617500Y107665D02*
X628500Y107665D01*
X1920500Y107665D02*
X1927500Y107665D01*
X500Y106665D02*
X7500Y106665D01*
X300500Y106665D02*
X309500Y106665D01*
X388500Y106665D02*
X393500Y106665D01*
X416500Y106665D02*
X422500Y106665D01*
X498500Y106665D02*
X506500Y106665D01*
X525500Y106665D02*
X536500Y106665D01*
X595500Y106665D02*
X599500Y106665D01*
X616500Y106665D02*
X631500Y106665D01*
X1920500Y106665D02*
X1927500Y106665D01*
X500Y105665D02*
X7500Y105665D01*
X300500Y105665D02*
X309500Y105665D01*
X387500Y105665D02*
X394500Y105665D01*
X414500Y105665D02*
X423500Y105665D01*
X498500Y105665D02*
X505500Y105665D01*
X524500Y105665D02*
X537500Y105665D01*
X595500Y105665D02*
X599500Y105665D01*
X615500Y105665D02*
X632500Y105665D01*
X1920500Y105665D02*
X1927500Y105665D01*
X500Y104665D02*
X7500Y104665D01*
X300500Y104665D02*
X309500Y104665D01*
X386500Y104665D02*
X393500Y104665D01*
X413500Y104665D02*
X424500Y104665D01*
X498500Y104665D02*
X502500Y104665D01*
X523500Y104665D02*
X530500Y104665D01*
X532500Y104665D02*
X537500Y104665D01*
X595500Y104665D02*
X599500Y104665D01*
X615500Y104665D02*
X633500Y104665D01*
X1920500Y104665D02*
X1927500Y104665D01*
X500Y103665D02*
X7500Y103665D01*
X300500Y103665D02*
X309500Y103665D01*
X385500Y103665D02*
X393500Y103665D01*
X412500Y103665D02*
X424500Y103665D01*
X497500Y103665D02*
X502500Y103665D01*
X521500Y103665D02*
X529500Y103665D01*
X533500Y103665D02*
X537500Y103665D01*
X595500Y103665D02*
X599500Y103665D01*
X615500Y103665D02*
X633500Y103665D01*
X1725500Y103665D02*
X1737500Y103665D01*
X1750500Y103665D02*
X1757500Y103665D01*
X1772500Y103665D02*
X1774500Y103665D01*
X1788500Y103665D02*
X1803500Y103665D01*
X1920500Y103665D02*
X1927500Y103665D01*
X500Y102665D02*
X7500Y102665D01*
X300500Y102665D02*
X309500Y102665D01*
X385500Y102665D02*
X391500Y102665D01*
X411500Y102665D02*
X418500Y102665D01*
X420500Y102665D02*
X424500Y102665D01*
X497500Y102665D02*
X502500Y102665D01*
X520500Y102665D02*
X528500Y102665D01*
X533500Y102665D02*
X537500Y102665D01*
X595500Y102665D02*
X599500Y102665D01*
X615500Y102665D02*
X620500Y102665D01*
X628500Y102665D02*
X634500Y102665D01*
X1724500Y102665D02*
X1738500Y102665D01*
X1750500Y102665D02*
X1757500Y102665D01*
X1771500Y102665D02*
X1775500Y102665D01*
X1787500Y102665D02*
X1805500Y102665D01*
X1920500Y102665D02*
X1927500Y102665D01*
X500Y101665D02*
X7500Y101665D01*
X301500Y101665D02*
X308500Y101665D01*
X385500Y101665D02*
X389500Y101665D01*
X409500Y101665D02*
X417500Y101665D01*
X420500Y101665D02*
X424500Y101665D01*
X497500Y101665D02*
X502500Y101665D01*
X519500Y101665D02*
X527500Y101665D01*
X533500Y101665D02*
X537500Y101665D01*
X595500Y101665D02*
X599500Y101665D01*
X615500Y101665D02*
X619500Y101665D01*
X629500Y101665D02*
X634500Y101665D01*
X1722500Y101665D02*
X1738500Y101665D01*
X1750500Y101665D02*
X1758500Y101665D01*
X1771500Y101665D02*
X1775500Y101665D01*
X1787500Y101665D02*
X1806500Y101665D01*
X1920500Y101665D02*
X1927500Y101665D01*
X500Y100665D02*
X7500Y100665D01*
X385500Y100665D02*
X389500Y100665D01*
X408500Y100665D02*
X416500Y100665D01*
X420500Y100665D02*
X424500Y100665D01*
X497500Y100665D02*
X502500Y100665D01*
X518500Y100665D02*
X525500Y100665D01*
X533500Y100665D02*
X537500Y100665D01*
X595500Y100665D02*
X599500Y100665D01*
X615500Y100665D02*
X619500Y100665D01*
X630500Y100665D02*
X634500Y100665D01*
X1721500Y100665D02*
X1737500Y100665D01*
X1750500Y100665D02*
X1758500Y100665D01*
X1771500Y100665D02*
X1775500Y100665D01*
X1787500Y100665D02*
X1807500Y100665D01*
X1920500Y100665D02*
X1927500Y100665D01*
X500Y99665D02*
X7500Y99665D01*
X385500Y99665D02*
X389500Y99665D01*
X407500Y99665D02*
X414500Y99665D01*
X420500Y99665D02*
X424500Y99665D01*
X497500Y99665D02*
X502500Y99665D01*
X516500Y99665D02*
X524500Y99665D01*
X533500Y99665D02*
X537500Y99665D01*
X595500Y99665D02*
X599500Y99665D01*
X615500Y99665D02*
X619500Y99665D01*
X630500Y99665D02*
X634500Y99665D01*
X1720500Y99665D02*
X1736500Y99665D01*
X1750500Y99665D02*
X1758500Y99665D01*
X1771500Y99665D02*
X1775500Y99665D01*
X1788500Y99665D02*
X1807500Y99665D01*
X1920500Y99665D02*
X1927500Y99665D01*
X500Y98665D02*
X7500Y98665D01*
X385500Y98665D02*
X389500Y98665D01*
X405500Y98665D02*
X413500Y98665D01*
X420500Y98665D02*
X424500Y98665D01*
X497500Y98665D02*
X502500Y98665D01*
X515500Y98665D02*
X523500Y98665D01*
X533500Y98665D02*
X537500Y98665D01*
X595500Y98665D02*
X599500Y98665D01*
X615500Y98665D02*
X619500Y98665D01*
X630500Y98665D02*
X634500Y98665D01*
X1719500Y98665D02*
X1726500Y98665D01*
X1750500Y98665D02*
X1759500Y98665D01*
X1771500Y98665D02*
X1775500Y98665D01*
X1792500Y98665D02*
X1796500Y98665D01*
X1802500Y98665D02*
X1808500Y98665D01*
X1920500Y98665D02*
X1927500Y98665D01*
X500Y97665D02*
X7500Y97665D01*
X385500Y97665D02*
X389500Y97665D01*
X404500Y97665D02*
X412500Y97665D01*
X420500Y97665D02*
X424500Y97665D01*
X497500Y97665D02*
X502500Y97665D01*
X514500Y97665D02*
X521500Y97665D01*
X533500Y97665D02*
X537500Y97665D01*
X595500Y97665D02*
X599500Y97665D01*
X615500Y97665D02*
X619500Y97665D01*
X630500Y97665D02*
X634500Y97665D01*
X1718500Y97665D02*
X1725500Y97665D01*
X1750500Y97665D02*
X1759500Y97665D01*
X1771500Y97665D02*
X1775500Y97665D01*
X1792500Y97665D02*
X1796500Y97665D01*
X1803500Y97665D02*
X1808500Y97665D01*
X1920500Y97665D02*
X1927500Y97665D01*
X500Y96665D02*
X7500Y96665D01*
X385500Y96665D02*
X389500Y96665D01*
X403500Y96665D02*
X411500Y96665D01*
X420500Y96665D02*
X424500Y96665D01*
X497500Y96665D02*
X502500Y96665D01*
X512500Y96665D02*
X520500Y96665D01*
X533500Y96665D02*
X537500Y96665D01*
X595500Y96665D02*
X599500Y96665D01*
X615500Y96665D02*
X619500Y96665D01*
X630500Y96665D02*
X634500Y96665D01*
X1717500Y96665D02*
X1724500Y96665D01*
X1750500Y96665D02*
X1760500Y96665D01*
X1771500Y96665D02*
X1775500Y96665D01*
X1792500Y96665D02*
X1796500Y96665D01*
X1804500Y96665D02*
X1809500Y96665D01*
X1920500Y96665D02*
X1927500Y96665D01*
X500Y95665D02*
X7500Y95665D01*
X385500Y95665D02*
X389500Y95665D01*
X402500Y95665D02*
X409500Y95665D01*
X420500Y95665D02*
X424500Y95665D01*
X497500Y95665D02*
X502500Y95665D01*
X511500Y95665D02*
X519500Y95665D01*
X533500Y95665D02*
X537500Y95665D01*
X595500Y95665D02*
X600500Y95665D01*
X615500Y95665D02*
X619500Y95665D01*
X630500Y95665D02*
X634500Y95665D01*
X1716500Y95665D02*
X1722500Y95665D01*
X1750500Y95665D02*
X1760500Y95665D01*
X1771500Y95665D02*
X1775500Y95665D01*
X1792500Y95665D02*
X1796500Y95665D01*
X1804500Y95665D02*
X1809500Y95665D01*
X1920500Y95665D02*
X1927500Y95665D01*
X500Y94665D02*
X7500Y94665D01*
X385500Y94665D02*
X389500Y94665D01*
X400500Y94665D02*
X408500Y94665D01*
X420500Y94665D02*
X424500Y94665D01*
X497500Y94665D02*
X502500Y94665D01*
X510500Y94665D02*
X518500Y94665D01*
X533500Y94665D02*
X537500Y94665D01*
X596500Y94665D02*
X601500Y94665D01*
X615500Y94665D02*
X619500Y94665D01*
X630500Y94665D02*
X634500Y94665D01*
X1715500Y94665D02*
X1721500Y94665D01*
X1750500Y94665D02*
X1761500Y94665D01*
X1771500Y94665D02*
X1775500Y94665D01*
X1792500Y94665D02*
X1796500Y94665D01*
X1805500Y94665D02*
X1810500Y94665D01*
X1920500Y94665D02*
X1927500Y94665D01*
X500Y93665D02*
X7500Y93665D01*
X385500Y93665D02*
X389500Y93665D01*
X399500Y93665D02*
X407500Y93665D01*
X420500Y93665D02*
X424500Y93665D01*
X497500Y93665D02*
X502500Y93665D01*
X509500Y93665D02*
X516500Y93665D01*
X533500Y93665D02*
X537500Y93665D01*
X596500Y93665D02*
X602500Y93665D01*
X616500Y93665D02*
X618500Y93665D01*
X630500Y93665D02*
X634500Y93665D01*
X1714500Y93665D02*
X1720500Y93665D01*
X1750500Y93665D02*
X1761500Y93665D01*
X1771500Y93665D02*
X1775500Y93665D01*
X1792500Y93665D02*
X1796500Y93665D01*
X1805500Y93665D02*
X1810500Y93665D01*
X1920500Y93665D02*
X1927500Y93665D01*
X500Y92665D02*
X7500Y92665D01*
X385500Y92665D02*
X389500Y92665D01*
X398500Y92665D02*
X405500Y92665D01*
X420500Y92665D02*
X424500Y92665D01*
X497500Y92665D02*
X502500Y92665D01*
X507500Y92665D02*
X515500Y92665D01*
X533500Y92665D02*
X537500Y92665D01*
X597500Y92665D02*
X603500Y92665D01*
X630500Y92665D02*
X634500Y92665D01*
X1714500Y92665D02*
X1719500Y92665D01*
X1750500Y92665D02*
X1755500Y92665D01*
X1757500Y92665D02*
X1761500Y92665D01*
X1771500Y92665D02*
X1775500Y92665D01*
X1792500Y92665D02*
X1796500Y92665D01*
X1806500Y92665D02*
X1811500Y92665D01*
X1920500Y92665D02*
X1927500Y92665D01*
X500Y91665D02*
X7500Y91665D01*
X385500Y91665D02*
X389500Y91665D01*
X396500Y91665D02*
X404500Y91665D01*
X420500Y91665D02*
X424500Y91665D01*
X497500Y91665D02*
X502500Y91665D01*
X506500Y91665D02*
X514500Y91665D01*
X533500Y91665D02*
X537500Y91665D01*
X598500Y91665D02*
X604500Y91665D01*
X630500Y91665D02*
X634500Y91665D01*
X1713500Y91665D02*
X1718500Y91665D01*
X1750500Y91665D02*
X1755500Y91665D01*
X1757500Y91665D02*
X1762500Y91665D01*
X1771500Y91665D02*
X1775500Y91665D01*
X1792500Y91665D02*
X1796500Y91665D01*
X1806500Y91665D02*
X1811500Y91665D01*
X1920500Y91665D02*
X1927500Y91665D01*
X500Y90665D02*
X7500Y90665D01*
X385500Y90665D02*
X389500Y90665D01*
X395500Y90665D02*
X403500Y90665D01*
X420500Y90665D02*
X424500Y90665D01*
X497500Y90665D02*
X502500Y90665D01*
X505500Y90665D02*
X512500Y90665D01*
X532500Y90665D02*
X537500Y90665D01*
X599500Y90665D02*
X605500Y90665D01*
X630500Y90665D02*
X634500Y90665D01*
X1713500Y90665D02*
X1718500Y90665D01*
X1750500Y90665D02*
X1755500Y90665D01*
X1758500Y90665D02*
X1762500Y90665D01*
X1771500Y90665D02*
X1775500Y90665D01*
X1792500Y90665D02*
X1796500Y90665D01*
X1807500Y90665D02*
X1812500Y90665D01*
X1920500Y90665D02*
X1927500Y90665D01*
X500Y89665D02*
X7500Y89665D01*
X385500Y89665D02*
X389500Y89665D01*
X394500Y89665D02*
X402500Y89665D01*
X420500Y89665D02*
X424500Y89665D01*
X497500Y89665D02*
X511500Y89665D01*
X530500Y89665D02*
X537500Y89665D01*
X600500Y89665D02*
X605500Y89665D01*
X630500Y89665D02*
X634500Y89665D01*
X1713500Y89665D02*
X1717500Y89665D01*
X1750500Y89665D02*
X1755500Y89665D01*
X1758500Y89665D02*
X1763500Y89665D01*
X1771500Y89665D02*
X1775500Y89665D01*
X1792500Y89665D02*
X1796500Y89665D01*
X1807500Y89665D02*
X1812500Y89665D01*
X1920500Y89665D02*
X1927500Y89665D01*
X500Y88665D02*
X7500Y88665D01*
X385500Y88665D02*
X389500Y88665D01*
X393500Y88665D02*
X400500Y88665D01*
X420500Y88665D02*
X424500Y88665D01*
X498500Y88665D02*
X510500Y88665D01*
X529500Y88665D02*
X536500Y88665D01*
X600500Y88665D02*
X606500Y88665D01*
X630500Y88665D02*
X634500Y88665D01*
X1713500Y88665D02*
X1717500Y88665D01*
X1750500Y88665D02*
X1755500Y88665D01*
X1758500Y88665D02*
X1763500Y88665D01*
X1771500Y88665D02*
X1775500Y88665D01*
X1792500Y88665D02*
X1796500Y88665D01*
X1808500Y88665D02*
X1813500Y88665D01*
X1920500Y88665D02*
X1927500Y88665D01*
X500Y87665D02*
X7500Y87665D01*
X385500Y87665D02*
X399500Y87665D01*
X419500Y87665D02*
X424500Y87665D01*
X498500Y87665D02*
X509500Y87665D01*
X528500Y87665D02*
X536500Y87665D01*
X601500Y87665D02*
X608500Y87665D01*
X629500Y87665D02*
X634500Y87665D01*
X1713500Y87665D02*
X1717500Y87665D01*
X1750500Y87665D02*
X1755500Y87665D01*
X1759500Y87665D02*
X1764500Y87665D01*
X1771500Y87665D02*
X1775500Y87665D01*
X1792500Y87665D02*
X1796500Y87665D01*
X1808500Y87665D02*
X1813500Y87665D01*
X1920500Y87665D02*
X1927500Y87665D01*
X500Y86665D02*
X7500Y86665D01*
X385500Y86665D02*
X398500Y86665D01*
X416500Y86665D02*
X424500Y86665D01*
X499500Y86665D02*
X507500Y86665D01*
X528500Y86665D02*
X535500Y86665D01*
X602500Y86665D02*
X634500Y86665D01*
X1713500Y86665D02*
X1717500Y86665D01*
X1750500Y86665D02*
X1755500Y86665D01*
X1759500Y86665D02*
X1764500Y86665D01*
X1771500Y86665D02*
X1775500Y86665D01*
X1792500Y86665D02*
X1796500Y86665D01*
X1809500Y86665D02*
X1813500Y86665D01*
X1920500Y86665D02*
X1927500Y86665D01*
X500Y85665D02*
X7500Y85665D01*
X386500Y85665D02*
X396500Y85665D01*
X416500Y85665D02*
X423500Y85665D01*
X500500Y85665D02*
X506500Y85665D01*
X529500Y85665D02*
X534500Y85665D01*
X603500Y85665D02*
X633500Y85665D01*
X1713500Y85665D02*
X1717500Y85665D01*
X1750500Y85665D02*
X1755500Y85665D01*
X1760500Y85665D02*
X1765500Y85665D01*
X1771500Y85665D02*
X1775500Y85665D01*
X1792500Y85665D02*
X1796500Y85665D01*
X1809500Y85665D02*
X1813500Y85665D01*
X1920500Y85665D02*
X1927500Y85665D01*
X500Y84665D02*
X7500Y84665D01*
X386500Y84665D02*
X395500Y84665D01*
X416500Y84665D02*
X423500Y84665D01*
X502500Y84665D02*
X504500Y84665D01*
X530500Y84665D02*
X531500Y84665D01*
X604500Y84665D02*
X632500Y84665D01*
X1713500Y84665D02*
X1717500Y84665D01*
X1750500Y84665D02*
X1755500Y84665D01*
X1760500Y84665D02*
X1765500Y84665D01*
X1771500Y84665D02*
X1775500Y84665D01*
X1792500Y84665D02*
X1796500Y84665D01*
X1809500Y84665D02*
X1813500Y84665D01*
X1920500Y84665D02*
X1927500Y84665D01*
X500Y83665D02*
X7500Y83665D01*
X387500Y83665D02*
X394500Y83665D01*
X416500Y83665D02*
X422500Y83665D01*
X605500Y83665D02*
X631500Y83665D01*
X1713500Y83665D02*
X1717500Y83665D01*
X1725500Y83665D02*
X1737500Y83665D01*
X1750500Y83665D02*
X1755500Y83665D01*
X1761500Y83665D02*
X1765500Y83665D01*
X1771500Y83665D02*
X1775500Y83665D01*
X1792500Y83665D02*
X1796500Y83665D01*
X1809500Y83665D02*
X1813500Y83665D01*
X1920500Y83665D02*
X1927500Y83665D01*
X500Y82665D02*
X7500Y82665D01*
X389500Y82665D02*
X392500Y82665D01*
X417500Y82665D02*
X420500Y82665D01*
X607500Y82665D02*
X629500Y82665D01*
X1713500Y82665D02*
X1717500Y82665D01*
X1724500Y82665D02*
X1738500Y82665D01*
X1750500Y82665D02*
X1755500Y82665D01*
X1761500Y82665D02*
X1766500Y82665D01*
X1771500Y82665D02*
X1775500Y82665D01*
X1792500Y82665D02*
X1796500Y82665D01*
X1809500Y82665D02*
X1813500Y82665D01*
X1920500Y82665D02*
X1927500Y82665D01*
X500Y81665D02*
X7500Y81665D01*
X1713500Y81665D02*
X1717500Y81665D01*
X1724500Y81665D02*
X1738500Y81665D01*
X1750500Y81665D02*
X1755500Y81665D01*
X1762500Y81665D02*
X1766500Y81665D01*
X1771500Y81665D02*
X1775500Y81665D01*
X1792500Y81665D02*
X1796500Y81665D01*
X1809500Y81665D02*
X1813500Y81665D01*
X1920500Y81665D02*
X1927500Y81665D01*
X500Y80665D02*
X7500Y80665D01*
X276500Y80665D02*
X291500Y80665D01*
X296500Y80665D02*
X310500Y80665D01*
X1713500Y80665D02*
X1717500Y80665D01*
X1724500Y80665D02*
X1738500Y80665D01*
X1750500Y80665D02*
X1755500Y80665D01*
X1762500Y80665D02*
X1767500Y80665D01*
X1771500Y80665D02*
X1775500Y80665D01*
X1792500Y80665D02*
X1796500Y80665D01*
X1808500Y80665D02*
X1813500Y80665D01*
X1920500Y80665D02*
X1927500Y80665D01*
X500Y79665D02*
X7500Y79665D01*
X275500Y79665D02*
X292500Y79665D01*
X294500Y79665D02*
X311500Y79665D01*
X1713500Y79665D02*
X1717500Y79665D01*
X1725500Y79665D02*
X1738500Y79665D01*
X1750500Y79665D02*
X1755500Y79665D01*
X1762500Y79665D02*
X1767500Y79665D01*
X1771500Y79665D02*
X1775500Y79665D01*
X1792500Y79665D02*
X1796500Y79665D01*
X1808500Y79665D02*
X1812500Y79665D01*
X1920500Y79665D02*
X1927500Y79665D01*
X500Y78665D02*
X7500Y78665D01*
X274500Y78665D02*
X312500Y78665D01*
X1713500Y78665D02*
X1717500Y78665D01*
X1733500Y78665D02*
X1738500Y78665D01*
X1750500Y78665D02*
X1755500Y78665D01*
X1763500Y78665D02*
X1768500Y78665D01*
X1771500Y78665D02*
X1775500Y78665D01*
X1792500Y78665D02*
X1796500Y78665D01*
X1807500Y78665D02*
X1812500Y78665D01*
X1920500Y78665D02*
X1927500Y78665D01*
X500Y77665D02*
X7500Y77665D01*
X274500Y77665D02*
X313500Y77665D01*
X1713500Y77665D02*
X1717500Y77665D01*
X1733500Y77665D02*
X1738500Y77665D01*
X1750500Y77665D02*
X1755500Y77665D01*
X1763500Y77665D02*
X1768500Y77665D01*
X1771500Y77665D02*
X1775500Y77665D01*
X1792500Y77665D02*
X1796500Y77665D01*
X1807500Y77665D02*
X1812500Y77665D01*
X1920500Y77665D02*
X1927500Y77665D01*
X500Y76665D02*
X7500Y76665D01*
X273500Y76665D02*
X313500Y76665D01*
X1713500Y76665D02*
X1717500Y76665D01*
X1733500Y76665D02*
X1738500Y76665D01*
X1750500Y76665D02*
X1755500Y76665D01*
X1764500Y76665D02*
X1768500Y76665D01*
X1771500Y76665D02*
X1775500Y76665D01*
X1792500Y76665D02*
X1796500Y76665D01*
X1806500Y76665D02*
X1811500Y76665D01*
X1920500Y76665D02*
X1927500Y76665D01*
X500Y75665D02*
X7500Y75665D01*
X273500Y75665D02*
X278500Y75665D01*
X290500Y75665D02*
X296500Y75665D01*
X309500Y75665D02*
X313500Y75665D01*
X1713500Y75665D02*
X1717500Y75665D01*
X1733500Y75665D02*
X1738500Y75665D01*
X1750500Y75665D02*
X1755500Y75665D01*
X1764500Y75665D02*
X1769500Y75665D01*
X1771500Y75665D02*
X1775500Y75665D01*
X1792500Y75665D02*
X1796500Y75665D01*
X1806500Y75665D02*
X1811500Y75665D01*
X1920500Y75665D02*
X1927500Y75665D01*
X500Y74665D02*
X7500Y74665D01*
X273500Y74665D02*
X278500Y74665D01*
X291500Y74665D02*
X296500Y74665D01*
X309500Y74665D02*
X313500Y74665D01*
X1713500Y74665D02*
X1717500Y74665D01*
X1733500Y74665D02*
X1738500Y74665D01*
X1750500Y74665D02*
X1755500Y74665D01*
X1765500Y74665D02*
X1769500Y74665D01*
X1771500Y74665D02*
X1775500Y74665D01*
X1792500Y74665D02*
X1796500Y74665D01*
X1805500Y74665D02*
X1810500Y74665D01*
X1920500Y74665D02*
X1927500Y74665D01*
X500Y73665D02*
X7500Y73665D01*
X273500Y73665D02*
X278500Y73665D01*
X291500Y73665D02*
X295500Y73665D01*
X309500Y73665D02*
X313500Y73665D01*
X1713500Y73665D02*
X1717500Y73665D01*
X1733500Y73665D02*
X1738500Y73665D01*
X1750500Y73665D02*
X1755500Y73665D01*
X1765500Y73665D02*
X1775500Y73665D01*
X1792500Y73665D02*
X1796500Y73665D01*
X1805500Y73665D02*
X1810500Y73665D01*
X1920500Y73665D02*
X1927500Y73665D01*
X500Y72665D02*
X7500Y72665D01*
X273500Y72665D02*
X278500Y72665D01*
X291500Y72665D02*
X295500Y72665D01*
X309500Y72665D02*
X313500Y72665D01*
X1713500Y72665D02*
X1717500Y72665D01*
X1733500Y72665D02*
X1738500Y72665D01*
X1750500Y72665D02*
X1755500Y72665D01*
X1765500Y72665D02*
X1775500Y72665D01*
X1792500Y72665D02*
X1796500Y72665D01*
X1804500Y72665D02*
X1809500Y72665D01*
X1920500Y72665D02*
X1927500Y72665D01*
X500Y71665D02*
X7500Y71665D01*
X273500Y71665D02*
X278500Y71665D01*
X291500Y71665D02*
X295500Y71665D01*
X309500Y71665D02*
X313500Y71665D01*
X1713500Y71665D02*
X1717500Y71665D01*
X1733500Y71665D02*
X1738500Y71665D01*
X1750500Y71665D02*
X1755500Y71665D01*
X1766500Y71665D02*
X1775500Y71665D01*
X1792500Y71665D02*
X1796500Y71665D01*
X1804500Y71665D02*
X1809500Y71665D01*
X1920500Y71665D02*
X1927500Y71665D01*
X500Y70665D02*
X7500Y70665D01*
X273500Y70665D02*
X278500Y70665D01*
X291500Y70665D02*
X295500Y70665D01*
X309500Y70665D02*
X313500Y70665D01*
X1713500Y70665D02*
X1718500Y70665D01*
X1733500Y70665D02*
X1738500Y70665D01*
X1750500Y70665D02*
X1755500Y70665D01*
X1766500Y70665D02*
X1775500Y70665D01*
X1792500Y70665D02*
X1796500Y70665D01*
X1803500Y70665D02*
X1808500Y70665D01*
X1920500Y70665D02*
X1927500Y70665D01*
X500Y69665D02*
X7500Y69665D01*
X273500Y69665D02*
X278500Y69665D01*
X291500Y69665D02*
X295500Y69665D01*
X309500Y69665D02*
X313500Y69665D01*
X1713500Y69665D02*
X1719500Y69665D01*
X1732500Y69665D02*
X1737500Y69665D01*
X1750500Y69665D02*
X1755500Y69665D01*
X1767500Y69665D02*
X1775500Y69665D01*
X1792500Y69665D02*
X1797500Y69665D01*
X1802500Y69665D02*
X1808500Y69665D01*
X1920500Y69665D02*
X1927500Y69665D01*
X500Y68665D02*
X7500Y68665D01*
X273500Y68665D02*
X278500Y68665D01*
X291500Y68665D02*
X295500Y68665D01*
X309500Y68665D02*
X313500Y68665D01*
X1714500Y68665D02*
X1737500Y68665D01*
X1750500Y68665D02*
X1755500Y68665D01*
X1767500Y68665D02*
X1775500Y68665D01*
X1788500Y68665D02*
X1807500Y68665D01*
X1920500Y68665D02*
X1927500Y68665D01*
X500Y67665D02*
X7500Y67665D01*
X273500Y67665D02*
X278500Y67665D01*
X291500Y67665D02*
X295500Y67665D01*
X309500Y67665D02*
X313500Y67665D01*
X1714500Y67665D02*
X1736500Y67665D01*
X1750500Y67665D02*
X1755500Y67665D01*
X1768500Y67665D02*
X1775500Y67665D01*
X1787500Y67665D02*
X1806500Y67665D01*
X1920500Y67665D02*
X1927500Y67665D01*
X500Y66665D02*
X7500Y66665D01*
X273500Y66665D02*
X278500Y66665D01*
X291500Y66665D02*
X295500Y66665D01*
X309500Y66665D02*
X313500Y66665D01*
X1715500Y66665D02*
X1736500Y66665D01*
X1750500Y66665D02*
X1755500Y66665D01*
X1768500Y66665D02*
X1775500Y66665D01*
X1787500Y66665D02*
X1806500Y66665D01*
X1920500Y66665D02*
X1927500Y66665D01*
X500Y65665D02*
X7500Y65665D01*
X273500Y65665D02*
X278500Y65665D01*
X291500Y65665D02*
X295500Y65665D01*
X309500Y65665D02*
X313500Y65665D01*
X1716500Y65665D02*
X1735500Y65665D01*
X1751500Y65665D02*
X1754500Y65665D01*
X1769500Y65665D02*
X1775500Y65665D01*
X1787500Y65665D02*
X1805500Y65665D01*
X1920500Y65665D02*
X1927500Y65665D01*
X500Y64665D02*
X7500Y64665D01*
X273500Y64665D02*
X278500Y64665D01*
X291500Y64665D02*
X295500Y64665D01*
X309500Y64665D02*
X313500Y64665D01*
X1718500Y64665D02*
X1733500Y64665D01*
X1751500Y64665D02*
X1754500Y64665D01*
X1769500Y64665D02*
X1775500Y64665D01*
X1788500Y64665D02*
X1803500Y64665D01*
X1920500Y64665D02*
X1927500Y64665D01*
X500Y63665D02*
X7500Y63665D01*
X273500Y63665D02*
X278500Y63665D01*
X291500Y63665D02*
X295500Y63665D01*
X309500Y63665D02*
X313500Y63665D01*
X1920500Y63665D02*
X1927500Y63665D01*
X500Y62665D02*
X7500Y62665D01*
X273500Y62665D02*
X278500Y62665D01*
X291500Y62665D02*
X295500Y62665D01*
X309500Y62665D02*
X313500Y62665D01*
X1920500Y62665D02*
X1927500Y62665D01*
X500Y61665D02*
X7500Y61665D01*
X273500Y61665D02*
X278500Y61665D01*
X292500Y61665D02*
X295500Y61665D01*
X309500Y61665D02*
X313500Y61665D01*
X1920500Y61665D02*
X1927500Y61665D01*
X500Y60665D02*
X7500Y60665D01*
X273500Y60665D02*
X278500Y60665D01*
X309500Y60665D02*
X313500Y60665D01*
X1920500Y60665D02*
X1927500Y60665D01*
X500Y59665D02*
X7500Y59665D01*
X273500Y59665D02*
X278500Y59665D01*
X309500Y59665D02*
X313500Y59665D01*
X1920500Y59665D02*
X1927500Y59665D01*
X500Y58665D02*
X7500Y58665D01*
X273500Y58665D02*
X278500Y58665D01*
X309500Y58665D02*
X313500Y58665D01*
X1920500Y58665D02*
X1927500Y58665D01*
X500Y57665D02*
X7500Y57665D01*
X273500Y57665D02*
X278500Y57665D01*
X309500Y57665D02*
X313500Y57665D01*
X1920500Y57665D02*
X1927500Y57665D01*
X500Y56665D02*
X7500Y56665D01*
X274500Y56665D02*
X277500Y56665D01*
X309500Y56665D02*
X312500Y56665D01*
X1920500Y56665D02*
X1927500Y56665D01*
X500Y55665D02*
X7500Y55665D01*
X311500Y55665D02*
X311500Y55665D01*
X1920500Y55665D02*
X1927500Y55665D01*
X500Y54665D02*
X7500Y54665D01*
X1920500Y54665D02*
X1927500Y54665D01*
X500Y53665D02*
X7500Y53665D01*
X1920500Y53665D02*
X1927500Y53665D01*
X500Y52665D02*
X7500Y52665D01*
X1920500Y52665D02*
X1927500Y52665D01*
X500Y51665D02*
X7500Y51665D01*
X1920500Y51665D02*
X1927500Y51665D01*
X500Y50665D02*
X7500Y50665D01*
X1920500Y50665D02*
X1927500Y50665D01*
X500Y49665D02*
X7500Y49665D01*
X1920500Y49665D02*
X1927500Y49665D01*
X500Y48665D02*
X7500Y48665D01*
X1920500Y48665D02*
X1927500Y48665D01*
X500Y47665D02*
X7500Y47665D01*
X1920500Y47665D02*
X1927500Y47665D01*
X500Y46665D02*
X7500Y46665D01*
X1920500Y46665D02*
X1927500Y46665D01*
X500Y45665D02*
X7500Y45665D01*
X1920500Y45665D02*
X1927500Y45665D01*
X500Y44665D02*
X7500Y44665D01*
X1920500Y44665D02*
X1927500Y44665D01*
X500Y43665D02*
X7500Y43665D01*
X1920500Y43665D02*
X1927500Y43665D01*
X500Y42665D02*
X7500Y42665D01*
X1920500Y42665D02*
X1927500Y42665D01*
X500Y41665D02*
X7500Y41665D01*
X1920500Y41665D02*
X1927500Y41665D01*
X500Y40665D02*
X7500Y40665D01*
X1920500Y40665D02*
X1927500Y40665D01*
X500Y39665D02*
X7500Y39665D01*
X1920500Y39665D02*
X1927500Y39665D01*
X500Y38665D02*
X7500Y38665D01*
X1920500Y38665D02*
X1927500Y38665D01*
X500Y37665D02*
X7500Y37665D01*
X1920500Y37665D02*
X1927500Y37665D01*
X500Y36665D02*
X7500Y36665D01*
X1920500Y36665D02*
X1927500Y36665D01*
X500Y35665D02*
X7500Y35665D01*
X1920500Y35665D02*
X1927500Y35665D01*
X500Y34665D02*
X7500Y34665D01*
X1920500Y34665D02*
X1927500Y34665D01*
X500Y33665D02*
X7500Y33665D01*
X1920500Y33665D02*
X1927500Y33665D01*
X500Y32665D02*
X7500Y32665D01*
X1920500Y32665D02*
X1927500Y32665D01*
X500Y31665D02*
X7500Y31665D01*
X1920500Y31665D02*
X1927500Y31665D01*
X500Y30665D02*
X7500Y30665D01*
X1920500Y30665D02*
X1927500Y30665D01*
X500Y29665D02*
X7500Y29665D01*
X1920500Y29665D02*
X1927500Y29665D01*
X500Y28665D02*
X7500Y28665D01*
X1920500Y28665D02*
X1927500Y28665D01*
X500Y27665D02*
X7500Y27665D01*
X1920500Y27665D02*
X1927500Y27665D01*
X500Y26665D02*
X7500Y26665D01*
X1920500Y26665D02*
X1927500Y26665D01*
X500Y25665D02*
X7500Y25665D01*
X1920500Y25665D02*
X1927500Y25665D01*
X500Y24665D02*
X7500Y24665D01*
X1920500Y24665D02*
X1927500Y24665D01*
X500Y23665D02*
X7500Y23665D01*
X1920500Y23665D02*
X1927500Y23665D01*
X500Y22665D02*
X7500Y22665D01*
X1920500Y22665D02*
X1927500Y22665D01*
X500Y21665D02*
X7500Y21665D01*
X1920500Y21665D02*
X1927500Y21665D01*
X500Y20665D02*
X7500Y20665D01*
X1920500Y20665D02*
X1927500Y20665D01*
X500Y19665D02*
X7500Y19665D01*
X1920500Y19665D02*
X1927500Y19665D01*
X500Y18665D02*
X7500Y18665D01*
X1920500Y18665D02*
X1927500Y18665D01*
X500Y17665D02*
X7500Y17665D01*
X1920500Y17665D02*
X1927500Y17665D01*
X500Y16665D02*
X7500Y16665D01*
X1920500Y16665D02*
X1927500Y16665D01*
X500Y15665D02*
X7500Y15665D01*
X1920500Y15665D02*
X1927500Y15665D01*
X500Y14665D02*
X7500Y14665D01*
X1920500Y14665D02*
X1927500Y14665D01*
X500Y13665D02*
X7500Y13665D01*
X1920500Y13665D02*
X1927500Y13665D01*
X500Y12665D02*
X7500Y12665D01*
X1920500Y12665D02*
X1927500Y12665D01*
X500Y11665D02*
X7500Y11665D01*
X1920500Y11665D02*
X1927500Y11665D01*
X500Y10665D02*
X7500Y10665D01*
X1920500Y10665D02*
X1927500Y10665D01*
X500Y9665D02*
X7500Y9665D01*
X1920500Y9665D02*
X1927500Y9665D01*
X500Y8665D02*
X7500Y8665D01*
X1920500Y8665D02*
X1927500Y8665D01*
X500Y7665D02*
X1927500Y7665D01*
X500Y6665D02*
X1927500Y6665D01*
X500Y5665D02*
X1927500Y5665D01*
X500Y4665D02*
X1927500Y4665D01*
X500Y3665D02*
X1927500Y3665D01*
X500Y2665D02*
X1927500Y2665D01*
X500Y1665D02*
X1927500Y1665D01*
X500Y665D02*
X1927500Y665D01*
D02*
G04 End of Silk1*
M02*