G04 MADE WITH FRITZING*
G04 WWW.FRITZING.ORG*
G04 DOUBLE SIDED*
G04 HOLES PLATED*
G04 CONTOUR ON CENTER OF CONTOUR VECTOR*
%FSLAX26Y26*%
%MOIN*%
%ADD10R,1.928600X0.780165X1.912600X0.764165*%
%ADD11C,0.008000*%
%ADD12R,0.001000X0.001000*%
G04 SILK0*
%FSLAX26Y26*%
%MOIN*%
D11*
X4000Y776165D02*
X1924600Y776165D01*
X1924600Y4000D01*
X4000Y4000D01*
X4000Y776165D01*
D02*
D12*
X110500Y706665D02*
X121500Y706665D01*
X107500Y705665D02*
X124500Y705665D01*
X105500Y704665D02*
X127500Y704665D01*
X103500Y703665D02*
X129500Y703665D01*
X101500Y702665D02*
X131500Y702665D01*
X99500Y701665D02*
X133500Y701665D01*
X97500Y700665D02*
X135500Y700665D01*
X95500Y699665D02*
X137500Y699665D01*
X93500Y698665D02*
X139500Y698665D01*
X91500Y697665D02*
X141500Y697665D01*
X89500Y696665D02*
X111500Y696665D01*
X121500Y696665D02*
X143500Y696665D01*
X87500Y695665D02*
X109500Y695665D01*
X123500Y695665D02*
X145500Y695665D01*
X85500Y694665D02*
X107500Y694665D01*
X125500Y694665D02*
X147500Y694665D01*
X83500Y693665D02*
X105500Y693665D01*
X127500Y693665D02*
X148500Y693665D01*
X82500Y692665D02*
X103500Y692665D01*
X129500Y692665D02*
X150500Y692665D01*
X81500Y691665D02*
X101500Y691665D01*
X131500Y691665D02*
X151500Y691665D01*
X80500Y690665D02*
X99500Y690665D01*
X133500Y690665D02*
X151500Y690665D01*
X79500Y689665D02*
X97500Y689665D01*
X135500Y689665D02*
X152500Y689665D01*
X79500Y688665D02*
X95500Y688665D01*
X137500Y688665D02*
X153500Y688665D01*
X78500Y687665D02*
X93500Y687665D01*
X139500Y687665D02*
X153500Y687665D01*
X78500Y686665D02*
X91500Y686665D01*
X141500Y686665D02*
X154500Y686665D01*
X78500Y685665D02*
X89500Y685665D01*
X143500Y685665D02*
X154500Y685665D01*
X77500Y684665D02*
X87500Y684665D01*
X144500Y684665D02*
X154500Y684665D01*
X77500Y683665D02*
X87500Y683665D01*
X145500Y683665D02*
X154500Y683665D01*
X77500Y682665D02*
X86500Y682665D01*
X145500Y682665D02*
X154500Y682665D01*
X77500Y681665D02*
X87500Y681665D01*
X145500Y681665D02*
X154500Y681665D01*
X77500Y680665D02*
X87500Y680665D01*
X144500Y680665D02*
X154500Y680665D01*
X78500Y679665D02*
X89500Y679665D01*
X143500Y679665D02*
X154500Y679665D01*
X78500Y678665D02*
X91500Y678665D01*
X141500Y678665D02*
X154500Y678665D01*
X78500Y677665D02*
X93500Y677665D01*
X139500Y677665D02*
X153500Y677665D01*
X79500Y676665D02*
X95500Y676665D01*
X137500Y676665D02*
X153500Y676665D01*
X79500Y675665D02*
X97500Y675665D01*
X135500Y675665D02*
X152500Y675665D01*
X80500Y674665D02*
X99500Y674665D01*
X133500Y674665D02*
X151500Y674665D01*
X81500Y673665D02*
X101500Y673665D01*
X131500Y673665D02*
X151500Y673665D01*
X82500Y672665D02*
X103500Y672665D01*
X129500Y672665D02*
X150500Y672665D01*
X83500Y671665D02*
X105500Y671665D01*
X127500Y671665D02*
X148500Y671665D01*
X85500Y670665D02*
X107500Y670665D01*
X125500Y670665D02*
X147500Y670665D01*
X87500Y669665D02*
X109500Y669665D01*
X123500Y669665D02*
X145500Y669665D01*
X89500Y668665D02*
X111500Y668665D01*
X120500Y668665D02*
X142500Y668665D01*
X91500Y667665D02*
X140500Y667665D01*
X93500Y666665D02*
X138500Y666665D01*
X95500Y665665D02*
X136500Y665665D01*
X97500Y664665D02*
X134500Y664665D01*
X99500Y663665D02*
X132500Y663665D01*
X101500Y662665D02*
X130500Y662665D01*
X103500Y661665D02*
X128500Y661665D01*
X105500Y660665D02*
X126500Y660665D01*
X107500Y659665D02*
X124500Y659665D01*
X110500Y658665D02*
X122500Y658665D01*
X80500Y634665D02*
X154500Y634665D01*
X79500Y633665D02*
X154500Y633665D01*
X78500Y632665D02*
X154500Y632665D01*
X78500Y631665D02*
X154500Y631665D01*
X77500Y630665D02*
X154500Y630665D01*
X77500Y629665D02*
X154500Y629665D01*
X78500Y628665D02*
X154500Y628665D01*
X78500Y627665D02*
X154500Y627665D01*
X79500Y626665D02*
X154500Y626665D01*
X80500Y625665D02*
X154500Y625665D01*
X145500Y624665D02*
X154500Y624665D01*
X145500Y623665D02*
X154500Y623665D01*
X145500Y622665D02*
X154500Y622665D01*
X145500Y621665D02*
X154500Y621665D01*
X145500Y620665D02*
X154500Y620665D01*
X145500Y619665D02*
X154500Y619665D01*
X145500Y618665D02*
X154500Y618665D01*
X145500Y617665D02*
X154500Y617665D01*
X145500Y616665D02*
X154500Y616665D01*
X145500Y615665D02*
X154500Y615665D01*
X145500Y614665D02*
X154500Y614665D01*
X145500Y613665D02*
X154500Y613665D01*
X145500Y612665D02*
X154500Y612665D01*
X145500Y611665D02*
X154500Y611665D01*
X145500Y610665D02*
X154500Y610665D01*
X145500Y609665D02*
X154500Y609665D01*
X145500Y608665D02*
X154500Y608665D01*
X145500Y607665D02*
X154500Y607665D01*
X145500Y606665D02*
X154500Y606665D01*
X145500Y605665D02*
X154500Y605665D01*
X145500Y604665D02*
X154500Y604665D01*
X145500Y603665D02*
X154500Y603665D01*
X145500Y602665D02*
X154500Y602665D01*
X145500Y601665D02*
X154500Y601665D01*
X145500Y600665D02*
X154500Y600665D01*
X145500Y599665D02*
X154500Y599665D01*
X145500Y598665D02*
X154500Y598665D01*
X145500Y597665D02*
X154500Y597665D01*
X145500Y596665D02*
X154500Y596665D01*
X145500Y595665D02*
X154500Y595665D01*
X145500Y594665D02*
X154500Y594665D01*
X145500Y593665D02*
X154500Y593665D01*
X145500Y592665D02*
X154500Y592665D01*
X145500Y591665D02*
X154500Y591665D01*
X145500Y590665D02*
X154500Y590665D01*
X145500Y589665D02*
X154500Y589665D01*
X146500Y588665D02*
X154500Y588665D01*
X146500Y587665D02*
X153500Y587665D01*
X147500Y586665D02*
X152500Y586665D01*
X149500Y585665D02*
X151500Y585665D01*
X148500Y562665D02*
X151500Y562665D01*
X145500Y561665D02*
X153500Y561665D01*
X141500Y560665D02*
X154500Y560665D01*
X138500Y559665D02*
X154500Y559665D01*
X135500Y558665D02*
X154500Y558665D01*
X131500Y557665D02*
X154500Y557665D01*
X128500Y556665D02*
X154500Y556665D01*
X124500Y555665D02*
X154500Y555665D01*
X121500Y554665D02*
X153500Y554665D01*
X118500Y553665D02*
X152500Y553665D01*
X114500Y552665D02*
X149500Y552665D01*
X111500Y551665D02*
X146500Y551665D01*
X107500Y550665D02*
X142500Y550665D01*
X104500Y549665D02*
X139500Y549665D01*
X101500Y548665D02*
X137500Y548665D01*
X97500Y547665D02*
X137500Y547665D01*
X94500Y546665D02*
X137500Y546665D01*
X90500Y545665D02*
X125500Y545665D01*
X128500Y545665D02*
X137500Y545665D01*
X87500Y544665D02*
X122500Y544665D01*
X128500Y544665D02*
X137500Y544665D01*
X84500Y543665D02*
X119500Y543665D01*
X128500Y543665D02*
X137500Y543665D01*
X80500Y542665D02*
X115500Y542665D01*
X128500Y542665D02*
X137500Y542665D01*
X79500Y541665D02*
X112500Y541665D01*
X128500Y541665D02*
X137500Y541665D01*
X78500Y540665D02*
X108500Y540665D01*
X128500Y540665D02*
X137500Y540665D01*
X78500Y539665D02*
X105500Y539665D01*
X128500Y539665D02*
X137500Y539665D01*
X77500Y538665D02*
X102500Y538665D01*
X128500Y538665D02*
X137500Y538665D01*
X77500Y537665D02*
X100500Y537665D01*
X128500Y537665D02*
X137500Y537665D01*
X78500Y536665D02*
X104500Y536665D01*
X128500Y536665D02*
X137500Y536665D01*
X78500Y535665D02*
X107500Y535665D01*
X128500Y535665D02*
X137500Y535665D01*
X79500Y534665D02*
X111500Y534665D01*
X128500Y534665D02*
X137500Y534665D01*
X80500Y533665D02*
X114500Y533665D01*
X128500Y533665D02*
X137500Y533665D01*
X83500Y532665D02*
X118500Y532665D01*
X128500Y532665D02*
X137500Y532665D01*
X86500Y531665D02*
X121500Y531665D01*
X128500Y531665D02*
X137500Y531665D01*
X89500Y530665D02*
X124500Y530665D01*
X128500Y530665D02*
X137500Y530665D01*
X93500Y529665D02*
X137500Y529665D01*
X96500Y528665D02*
X137500Y528665D01*
X100500Y527665D02*
X137500Y527665D01*
X103500Y526665D02*
X138500Y526665D01*
X106500Y525665D02*
X141500Y525665D01*
X110500Y524665D02*
X145500Y524665D01*
X113500Y523665D02*
X148500Y523665D01*
X117500Y522665D02*
X151500Y522665D01*
X120500Y521665D02*
X153500Y521665D01*
X124500Y520665D02*
X154500Y520665D01*
X127500Y519665D02*
X154500Y519665D01*
X130500Y518665D02*
X154500Y518665D01*
X134500Y517665D02*
X154500Y517665D01*
X137500Y516665D02*
X154500Y516665D01*
X141500Y515665D02*
X154500Y515665D01*
X144500Y514665D02*
X153500Y514665D01*
X147500Y513665D02*
X152500Y513665D01*
X77500Y489665D02*
X152500Y489665D01*
X77500Y488665D02*
X153500Y488665D01*
X77500Y487665D02*
X154500Y487665D01*
X77500Y486665D02*
X154500Y486665D01*
X77500Y485665D02*
X154500Y485665D01*
X77500Y484665D02*
X154500Y484665D01*
X77500Y483665D02*
X154500Y483665D01*
X77500Y482665D02*
X153500Y482665D01*
X77500Y481665D02*
X152500Y481665D01*
X77500Y480665D02*
X150500Y480665D01*
X77500Y479665D02*
X86500Y479665D01*
X103500Y479665D02*
X112500Y479665D01*
X77500Y478665D02*
X86500Y478665D01*
X103500Y478665D02*
X112500Y478665D01*
X77500Y477665D02*
X86500Y477665D01*
X103500Y477665D02*
X112500Y477665D01*
X77500Y476665D02*
X86500Y476665D01*
X103500Y476665D02*
X112500Y476665D01*
X77500Y475665D02*
X86500Y475665D01*
X103500Y475665D02*
X112500Y475665D01*
X77500Y474665D02*
X86500Y474665D01*
X103500Y474665D02*
X112500Y474665D01*
X77500Y473665D02*
X86500Y473665D01*
X103500Y473665D02*
X112500Y473665D01*
X77500Y472665D02*
X86500Y472665D01*
X103500Y472665D02*
X112500Y472665D01*
X77500Y471665D02*
X86500Y471665D01*
X103500Y471665D02*
X112500Y471665D01*
X77500Y470665D02*
X86500Y470665D01*
X103500Y470665D02*
X112500Y470665D01*
X77500Y469665D02*
X86500Y469665D01*
X103500Y469665D02*
X112500Y469665D01*
X77500Y468665D02*
X86500Y468665D01*
X103500Y468665D02*
X112500Y468665D01*
X77500Y467665D02*
X86500Y467665D01*
X103500Y467665D02*
X112500Y467665D01*
X77500Y466665D02*
X86500Y466665D01*
X103500Y466665D02*
X112500Y466665D01*
X77500Y465665D02*
X86500Y465665D01*
X103500Y465665D02*
X112500Y465665D01*
X77500Y464665D02*
X86500Y464665D01*
X103500Y464665D02*
X112500Y464665D01*
X77500Y463665D02*
X86500Y463665D01*
X103500Y463665D02*
X112500Y463665D01*
X77500Y462665D02*
X86500Y462665D01*
X103500Y462665D02*
X112500Y462665D01*
X77500Y461665D02*
X86500Y461665D01*
X103500Y461665D02*
X112500Y461665D01*
X77500Y460665D02*
X86500Y460665D01*
X103500Y460665D02*
X112500Y460665D01*
X77500Y459665D02*
X86500Y459665D01*
X103500Y459665D02*
X112500Y459665D01*
X77500Y458665D02*
X86500Y458665D01*
X103500Y458665D02*
X112500Y458665D01*
X77500Y457665D02*
X86500Y457665D01*
X103500Y457665D02*
X112500Y457665D01*
X77500Y456665D02*
X86500Y456665D01*
X103500Y456665D02*
X112500Y456665D01*
X77500Y455665D02*
X86500Y455665D01*
X103500Y455665D02*
X112500Y455665D01*
X77500Y454665D02*
X86500Y454665D01*
X103500Y454665D02*
X112500Y454665D01*
X77500Y453665D02*
X86500Y453665D01*
X103500Y453665D02*
X111500Y453665D01*
X77500Y452665D02*
X86500Y452665D01*
X104500Y452665D02*
X111500Y452665D01*
X77500Y451665D02*
X86500Y451665D01*
X105500Y451665D02*
X110500Y451665D01*
X77500Y450665D02*
X86500Y450665D01*
X77500Y449665D02*
X86500Y449665D01*
X77500Y448665D02*
X86500Y448665D01*
X77500Y447665D02*
X86500Y447665D01*
X77500Y446665D02*
X86500Y446665D01*
X77500Y445665D02*
X86500Y445665D01*
X78500Y444665D02*
X86500Y444665D01*
X78500Y443665D02*
X86500Y443665D01*
X79500Y442665D02*
X85500Y442665D01*
X80500Y441665D02*
X84500Y441665D01*
D02*
G04 End of Silk0*
M02*