; NON-PLATED HOLES START AT T1
; THROUGH (PLATED) HOLES START AT T100
M48
INCH
T1C0.125984
T100C0.038000
T101C0.035000
%
T1
X018083Y003855
X001083Y002855
T100
X008083Y004855
X016083Y005855
X016083Y002855
X008083Y006855
X012083Y001855
X008083Y000855
X010083Y001855
X008083Y002855
X008083Y005855
X016083Y004855
X006083Y002855
X016083Y000855
X014083Y001855
X016083Y006855
X012083Y005855
X012083Y002855
X014083Y004855
X010083Y002855
X010083Y005855
X004083Y002855
X005083Y002855
X014083Y000855
X016083Y001855
X014083Y006855
X012083Y004855
X014083Y005855
X014083Y002855
X010083Y004855
X008083Y001855
X012083Y006855
X012083Y000855
X010083Y000855
X010083Y006855
X003083Y002855
T101
X002083Y004855
X006083Y004855
X002083Y005855
X006083Y005855
T00
M30
