G04 MADE WITH FRITZING*
G04 WWW.FRITZING.ORG*
G04 DOUBLE SIDED*
G04 HOLES PLATED*
G04 CONTOUR ON CENTER OF CONTOUR VECTOR*
%FSLAX26Y26*%
%MOIN*%
%ADD10C,0.075000*%
%ADD11C,0.078000*%
%ADD12R,0.078000X0.078000*%
%ADD13C,0.024000*%
G04 COPPER1*
%FSLAX26Y26*%
%MOIN*%
D10*
X208392Y485593D03*
X608392Y485593D03*
X208392Y585593D03*
X608392Y585593D03*
D11*
X308392Y285593D03*
X408392Y285593D03*
X508392Y285593D03*
X608392Y285593D03*
X808392Y685593D03*
X808392Y585593D03*
X808392Y485593D03*
X1208390Y685593D03*
X1208390Y585593D03*
X1208390Y485593D03*
X1608390Y685593D03*
X1608390Y585593D03*
X1608390Y485593D03*
X1608390Y285593D03*
X1608390Y185593D03*
X1608390Y85593D03*
X1408390Y285593D03*
X1408390Y185593D03*
X1408390Y85593D03*
X1208390Y285593D03*
X1208390Y185593D03*
X1208390Y85593D03*
X1008390Y285593D03*
X1008390Y185593D03*
X1008390Y85593D03*
X1008390Y685593D03*
X1008390Y585593D03*
X1008390Y485593D03*
X1408390Y685593D03*
X1408390Y585593D03*
X1408390Y485593D03*
X808392Y285593D03*
X808392Y185593D03*
X808392Y85593D03*
D12*
X308392Y285593D03*
X808392Y685593D03*
X1208390Y685593D03*
X1608390Y685593D03*
X1608390Y285593D03*
X1408390Y285593D03*
X1208390Y285593D03*
X1008392Y285593D03*
X1008392Y685593D03*
X1408390Y685593D03*
X808392Y285593D03*
D13*
X827392Y285593D02*
X989392Y285593D01*
D02*
X827392Y185593D02*
X989392Y185593D01*
D02*
X827392Y85593D02*
X989392Y85593D01*
D02*
X1389390Y585593D02*
X1227390Y585593D01*
D02*
X1589390Y585593D02*
X1427390Y585593D01*
D02*
X208392Y503093D02*
X208392Y568093D01*
D02*
X1589390Y485593D02*
X1427390Y485593D01*
D02*
X1027390Y485593D02*
X1189390Y485593D01*
D02*
X621827Y299028D02*
X794957Y472158D01*
D02*
X1389390Y85593D02*
X1227390Y85593D01*
D02*
X1589390Y85593D02*
X1427390Y85593D01*
D02*
X1227390Y685593D02*
X1389390Y685593D01*
D02*
X1027390Y685593D02*
X1189390Y685593D01*
D02*
X1389390Y285593D02*
X1227390Y285593D01*
D02*
X1027360Y186757D02*
X1044000Y187778D01*
D02*
X1044000Y187778D02*
X1189390Y185846D01*
D02*
X519825Y270417D02*
X564000Y211778D01*
D02*
X564000Y211778D02*
X780000Y211778D01*
D02*
X780000Y211778D02*
X794425Y198474D01*
D02*
X600566Y469941D02*
X516889Y302587D01*
D02*
X791398Y577096D02*
X624045Y493419D01*
D02*
X1189870Y589842D02*
X1164000Y595778D01*
D02*
X1164000Y595778D02*
X1027350Y586834D01*
G04 End of Copper1*
M02*