G04 MADE WITH FRITZING*
G04 WWW.FRITZING.ORG*
G04 DOUBLE SIDED*
G04 HOLES PLATED*
G04 CONTOUR ON CENTER OF CONTOUR VECTOR*
%FSLAX26Y26*%
%MOIN*%
%ADD10C,0.039370*%
%ADD11C,0.078000*%
%ADD12C,0.080000*%
%ADD13R,0.079986X0.080000*%
%ADD14R,0.078000X0.078000*%
%ADD15C,0.024000*%
G04 COPPER0*
%FSLAX26Y26*%
%MOIN*%
D10*
X1654500Y901800D03*
X652659Y503780D03*
X1751030Y704140D03*
D11*
X2052660Y1004190D03*
X2052660Y1104190D03*
X2052660Y1204190D03*
X2052660Y1304070D03*
X2052660Y1404070D03*
X2052660Y1504070D03*
X2052660Y1604070D03*
X2052660Y1704070D03*
X2052660Y1804190D03*
X2052660Y1904190D03*
X2052660Y2004190D03*
X2052660Y2104190D03*
X2052660Y2204190D03*
X2052660Y2304190D03*
X2052660Y2404190D03*
X2052660Y2504130D03*
X2052660Y2604140D03*
X2052660Y2704140D03*
X2052660Y2804130D03*
X2052660Y2904130D03*
X1052660Y2904400D03*
X1052660Y2803790D03*
X1052660Y2703790D03*
X1052660Y2603790D03*
X1052660Y2503790D03*
X1052660Y2403790D03*
X1052660Y2303790D03*
X1052660Y2203840D03*
X1052660Y2103840D03*
X1052660Y2003840D03*
X1052660Y1903840D03*
X1052660Y1803840D03*
X1052660Y1703840D03*
X1052660Y1603840D03*
X1052660Y1503840D03*
X1052660Y1403840D03*
X1052660Y1303840D03*
X1052660Y1203840D03*
X1052660Y1103310D03*
X1052660Y1003400D03*
D12*
X452663Y2503781D03*
X452663Y2703781D03*
D11*
X152663Y2003780D03*
X252663Y2003780D03*
X352663Y2003780D03*
X152663Y2103780D03*
X252663Y2103780D03*
X352663Y2103780D03*
X152663Y2203781D03*
X252663Y2203781D03*
X352663Y2203781D03*
X2552660Y1903780D03*
X2652660Y1903780D03*
X2752660Y1903780D03*
X2552660Y1803780D03*
X2652660Y1803780D03*
X2752660Y1803780D03*
X2652660Y903780D03*
X2652660Y803780D03*
X2652660Y703780D03*
X452663Y1803780D03*
X352663Y1803780D03*
X252663Y1803780D03*
X152663Y1803780D03*
X952663Y303780D03*
X1052660Y303780D03*
X1152660Y303780D03*
X1252660Y303780D03*
X1352660Y303780D03*
X1452660Y303780D03*
X1552660Y303780D03*
X1652660Y303780D03*
X2652660Y1403780D03*
X2652660Y1303780D03*
X2652660Y1203780D03*
D13*
X452670Y2503781D03*
D14*
X152663Y2003780D03*
X152663Y2103780D03*
X152663Y2203781D03*
X2552660Y1903780D03*
X2552660Y1803780D03*
X2652660Y903780D03*
X452663Y1803780D03*
X952663Y303780D03*
X2652660Y1403780D03*
D15*
X353574Y405350D02*
X151310Y603010D01*
D02*
X151312Y603010D02*
X152642Y1784780D01*
D02*
X933931Y306960D02*
X353577Y405350D01*
D02*
X1351100Y2501519D02*
X1070640Y2597626D01*
D02*
X1352650Y322780D02*
X1351100Y2501514D01*
D02*
X1254560Y2404984D02*
X1069730Y2495433D01*
D02*
X1153580Y322760D02*
X1254560Y2404981D01*
D02*
X1553360Y2404984D02*
X2036370Y2694369D01*
D02*
X1453570Y322760D02*
X1553360Y2404981D01*
D02*
X1653160Y894050D02*
X1555850Y322520D01*
D02*
X753508Y1205200D02*
X653787Y511580D01*
D02*
X1034620Y1297890D02*
X753504Y1205200D01*
D02*
X1749140Y696500D02*
X1657190Y322240D01*
D02*
X162439Y2220073D02*
X442373Y2686631D01*
D02*
X263203Y2219590D02*
X441569Y2487140D01*
D02*
X371472Y2206468D02*
X1033850Y2301098D01*
D02*
X371472Y2106470D02*
X1033850Y2201150D01*
D02*
X371472Y2006470D02*
X1033850Y2101150D01*
D02*
X152663Y2022780D02*
X152663Y2084780D01*
D02*
X152663Y2122780D02*
X152663Y2184781D01*
D02*
X252663Y2122780D02*
X252663Y2184781D01*
D02*
X252663Y2022780D02*
X252663Y2084780D01*
D02*
X352241Y1703860D02*
X552534Y1703860D01*
D02*
X552541Y1703860D02*
X1033670Y1703840D01*
D02*
X352584Y1784780D02*
X352244Y1703860D01*
D02*
X152663Y1822780D02*
X152663Y1984780D01*
D02*
X252663Y1822780D02*
X252663Y1984780D01*
D02*
X2852030Y703950D02*
X2671660Y703800D01*
D02*
X2653300Y1703860D02*
X2852040Y1604490D01*
D02*
X2852040Y1604490D02*
X2852030Y703950D01*
D02*
X2652780Y1784780D02*
X2653290Y1703860D01*
D02*
X2633850Y901090D02*
X1952660Y803780D01*
D02*
X1952660Y803780D02*
X1752660Y1003780D01*
D02*
X1752660Y1003780D02*
X1752660Y2003780D01*
D02*
X1752660Y2003780D02*
X2039240Y2290745D01*
D02*
X2352660Y1503780D02*
X2552660Y1303780D01*
D02*
X2066090Y1790740D02*
X2352660Y1503780D01*
D02*
X2552660Y1303780D02*
X2633660Y1303780D01*
D02*
X2671660Y803780D02*
X2752660Y803780D01*
D02*
X2752660Y803780D02*
X2752660Y1503780D01*
D02*
X2752660Y1503780D02*
X2068120Y1993140D01*
D02*
X2152660Y2903781D02*
X2742890Y1920070D01*
D02*
X2071660Y2904065D02*
X2152660Y2903782D01*
D02*
X752663Y2903781D02*
X952663Y3003781D01*
D02*
X469304Y2714875D02*
X752663Y2903781D01*
D02*
X1452660Y3003781D02*
X2033920Y2907244D01*
D02*
X952663Y3003781D02*
X1452660Y3003781D01*
D02*
X2652660Y1884780D02*
X2652660Y1822780D01*
D02*
X2452660Y1603780D02*
X2639230Y1417220D01*
D02*
X2067860Y1892770D02*
X2452660Y1603780D01*
G04 End of Copper0*
M02*