; NON-PLATED HOLES START AT T1
; THROUGH (PLATED) HOLES START AT T100
M48
INCH
T1C0.125984
T100C0.038000
T101C0.040000
T102C0.015748
%
T1
X027526Y030037
X001526Y030037
X001526Y002037
X027526Y002037
T100
X020526Y017040
X010526Y029044
X020526Y015040
X020526Y018041
X010526Y020038
X027526Y019037
X004526Y018037
X010526Y023037
X020526Y016040
X020526Y021041
X027526Y018037
X001526Y018037
X020526Y010041
X002526Y020037
X001526Y021037
X026526Y013037
X003526Y020037
X001526Y022037
X010526Y012038
X020526Y022041
X009526Y003037
X020526Y019041
X013526Y003037
X010526Y013038
X020526Y023041
X026526Y012037
X012526Y003037
X020526Y014040
X010526Y025037
X010526Y028037
X020526Y024041
X026526Y009037
X010526Y014038
X011526Y003037
X010526Y011033
X020526Y013040
X010526Y026037
X026526Y019037
X002526Y021037
X020526Y011041
X003526Y022037
X001526Y020037
X025526Y018037
X002526Y018037
X020526Y020041
X010526Y003037
X026526Y014037
X003526Y018037
X016526Y003037
X020526Y012041
X002526Y022037
X010526Y027037
X020526Y029041
X003526Y021037
X010526Y019038
X010526Y021038
X020526Y028041
X010526Y018038
X020526Y025041
X010526Y015038
X010526Y016038
X020526Y026041
X025526Y019037
X026526Y007037
X010526Y024037
X010526Y022038
X026526Y008037
X014526Y003037
X026526Y018037
X010526Y010034
X020526Y027041
X010526Y017038
X015526Y003037
T101
X004526Y027037
X004526Y025037
T102
X017510Y007041
X006526Y005037
X016545Y009018
T00
M30
