G04 MADE WITH FRITZING*
G04 WWW.FRITZING.ORG*
G04 DOUBLE SIDED*
G04 HOLES PLATED*
G04 CONTOUR ON CENTER OF CONTOUR VECTOR*
%FSLAX26Y26*%
%MOIN*%
%ADD10C,0.039370*%
%ADD11C,0.078000*%
%ADD12C,0.080000*%
%ADD13R,0.079986X0.080000*%
%ADD14R,0.078000X0.078000*%
%ADD15C,0.024000*%
G04 COPPER1*
%FSLAX26Y26*%
%MOIN*%
D10*
X1654500Y901800D03*
X652659Y503780D03*
X1751030Y704140D03*
D11*
X2052660Y1004190D03*
X2052660Y1104190D03*
X2052660Y1204190D03*
X2052660Y1304070D03*
X2052660Y1404070D03*
X2052660Y1504070D03*
X2052660Y1604070D03*
X2052660Y1704070D03*
X2052660Y1804190D03*
X2052660Y1904190D03*
X2052660Y2004190D03*
X2052660Y2104190D03*
X2052660Y2204190D03*
X2052660Y2304190D03*
X2052660Y2404190D03*
X2052660Y2504130D03*
X2052660Y2604140D03*
X2052660Y2704140D03*
X2052660Y2804130D03*
X2052660Y2904130D03*
X1052660Y2904400D03*
X1052660Y2803790D03*
X1052660Y2703790D03*
X1052660Y2603790D03*
X1052660Y2503790D03*
X1052660Y2403790D03*
X1052660Y2303790D03*
X1052660Y2203840D03*
X1052660Y2103840D03*
X1052660Y2003840D03*
X1052660Y1903840D03*
X1052660Y1803840D03*
X1052660Y1703840D03*
X1052660Y1603840D03*
X1052660Y1503840D03*
X1052660Y1403840D03*
X1052660Y1303840D03*
X1052660Y1203840D03*
X1052660Y1103310D03*
X1052660Y1003400D03*
D12*
X452663Y2503781D03*
X452663Y2703781D03*
D11*
X152663Y2003780D03*
X252663Y2003780D03*
X352663Y2003780D03*
X152663Y2103780D03*
X252663Y2103780D03*
X352663Y2103780D03*
X152663Y2203781D03*
X252663Y2203781D03*
X352663Y2203781D03*
X2552660Y1903780D03*
X2652660Y1903780D03*
X2752660Y1903780D03*
X2552660Y1803780D03*
X2652660Y1803780D03*
X2752660Y1803780D03*
X2652660Y903780D03*
X2652660Y803780D03*
X2652660Y703780D03*
X452663Y1803780D03*
X352663Y1803780D03*
X252663Y1803780D03*
X152663Y1803780D03*
X952663Y303780D03*
X1052660Y303780D03*
X1152660Y303780D03*
X1252660Y303780D03*
X1352660Y303780D03*
X1452660Y303780D03*
X1552660Y303780D03*
X1652660Y303780D03*
X2652660Y1403780D03*
X2652660Y1303780D03*
X2652660Y1203780D03*
D13*
X452670Y2503781D03*
D14*
X152663Y2003780D03*
X152663Y2103780D03*
X152663Y2203781D03*
X2552660Y1903780D03*
X2552660Y1803780D03*
X2652660Y903780D03*
X452663Y1803780D03*
X952663Y303780D03*
X2652660Y1403780D03*
D15*
X1254560Y805270D02*
X1743310Y705710D01*
D02*
X1254560Y1301740D02*
X1254560Y805280D01*
D02*
X1069620Y1395260D02*
X1254560Y1301730D01*
D02*
X1153430Y203080D02*
X1239330Y290240D01*
D02*
X753508Y203080D02*
X1153440Y203080D01*
D02*
X655167Y496320D02*
X753504Y203090D01*
D02*
X2035710Y2795556D02*
X1654490Y2602651D01*
D02*
X1654490Y2602650D02*
X1654490Y909680D01*
D02*
X951174Y603010D02*
X1046570Y321780D01*
D02*
X651908Y1803240D02*
X1033660Y1803810D01*
D02*
X471663Y1803730D02*
X651909Y1803240D01*
D02*
X2252710Y603030D02*
X2642140Y1187970D01*
D02*
X951174Y603010D02*
X353574Y805270D01*
D02*
X2252710Y603030D02*
X951174Y603010D01*
D02*
X353574Y805270D02*
X254574Y1784880D01*
D02*
X2634240Y699140D02*
X2252710Y603030D01*
D02*
X2535670Y1895280D02*
X2152660Y1703780D01*
D02*
X2152660Y1703780D02*
X2071660Y1704010D01*
D02*
X2535670Y1795280D02*
X2352660Y1703780D01*
D02*
X2352660Y1703780D02*
X2068480Y1514590D01*
D02*
X2752660Y1822780D02*
X2752660Y1884780D01*
D02*
X752663Y2803781D02*
X1034650Y2898356D01*
D02*
X466805Y2517923D02*
X752663Y2803781D01*
G04 End of Copper1*
M02*